<svg preserveAspectRatio="none" width="100%" height="100%" overflow="visible" style="display: block;" viewBox="0 0 258.48 131.359" fill="none" xmlns="http://www.w3.org/2000/svg">
<g id="avanz-logo.svg" clip-path="url(#clip0_0_30)">
<path id="Vector" d="M256.522 34.4054C256.325 33.8018 256.063 33.2058 255.702 32.628C255.702 32.628 247.444 14.128 195.231 1.12057C194.449 0.9245 179.28 -2.21515 176.494 2.96771C176.494 2.96771 172.896 7.39211 189.898 20.5131C189.957 20.5079 189.993 20.5028 189.993 20.5028C238.766 17.941 254.152 31.8797 256.522 34.4054Z" fill="var(--fill-0, #FF7500)"/>
<path id="Vector_2" d="M211.705 51.9204C211.169 54.2704 210.11 57.1573 208.129 60.5138C208.129 60.5138 198.68 75.9899 209.463 75.069C209.463 75.069 215.865 74.295 218.447 72.4685C221.623 57.4669 212.314 52.2454 211.705 51.9204Z" fill="var(--fill-0, #FF7500)"/>
<path id="Vector_3" d="M256.866 34.7954C256.866 34.7954 256.755 34.6562 256.52 34.406C261.431 49.472 218.441 72.4687 218.441 72.4687C218.441 72.4687 213.598 87.3876 221.611 87.9707C221.611 87.9707 226.886 90.308 245.257 67.3296C245.257 67.3296 263.978 42.1816 256.866 34.7954Z" fill="var(--fill-0, #FFA300)"/>
<path id="Vector_4" d="M211.792 44.7715C210.961 36.8154 190.461 20.9546 190.461 20.9546C190.265 20.8049 190.086 20.663 189.897 20.5134C187.758 20.7456 148.447 25.2965 188.388 40.4581C188.388 40.4581 203.489 46.4122 211.67 51.9072C211.67 51.9072 211.681 51.9125 211.701 51.9227C212.752 47.3203 211.792 44.7715 211.792 44.7715Z" fill="var(--fill-0, #FFA300)"/>
<path id="Vector_5" d="M256.522 34.4052C254.152 31.8795 238.766 17.9407 189.994 20.5024C189.994 20.5024 189.957 20.5076 189.898 20.5128C190.089 20.6598 190.268 20.8017 190.465 20.9513C190.465 20.9513 210.964 36.812 211.796 44.7683C211.796 44.7683 212.757 47.3146 211.707 51.9195C212.316 52.2445 221.623 57.466 218.45 72.4678C218.45 72.4678 261.438 49.4686 256.529 34.4026" fill="var(--fill-0, #E01837)"/>
<path id="Vector_6" d="M23.3528 71.2172H29.1055L5.72169 129.725H0L23.3528 71.2172Z" fill="var(--fill-0, #7C7F83)"/>
<path id="Vector_7" d="M30.972 72.8702L27.8472 79.9803L48.3027 129.662H54.1073L30.972 72.8702Z" fill="var(--fill-0, #7C7F83)"/>
<path id="Vector_8" d="M16.3192 109.385L14.626 113.665H39.5735L37.6213 109.215L16.3192 109.385Z" fill="var(--fill-0, #7C7F83)"/>
<path id="Vector_9" d="M47.7565 87.7974L65.5842 129.714H70.3843L52.7403 87.5987H47.658L47.7565 87.7974Z" fill="var(--fill-0, #7C7F83)"/>
<path id="Vector_10" d="M69.3146 121.374L71.6265 126.98L88.7709 87.4777H83.3988L69.3146 121.374Z" fill="var(--fill-0, #7C7F83)"/>
<path id="Vector_11" d="M95.2571 96.7111C95.2571 96.7111 103.578 86.6989 115.009 91.9564C115.009 91.9564 119.407 94.0022 119.503 100.039V129.694H124.041V99.7474C124.041 99.7474 124.673 91.9977 117.693 88.2777C117.693 88.2777 104.148 81.3456 92.4299 93.2721L95.2571 96.7111Z" fill="var(--fill-0, #7C7F83)"/>
<path id="Vector_12" d="M117.354 104.613V109.77C117.354 109.77 105.375 101.409 96.9037 110.849C96.9037 110.849 92.1763 116.302 96.9037 122.721C96.9037 122.721 105.794 131.714 117.24 122.398V127.385C117.24 127.385 113.932 130.803 105.528 130.901C105.528 130.901 96.1503 131.095 91.85 123.208C91.85 123.208 88.3317 117.561 91.85 109.724C91.85 109.724 97.3207 97.0179 117.354 104.613Z" fill="var(--fill-0, #7C7F83)"/>
<path id="Vector_13" d="M138.243 87.462H133.606V129.658H138.243V87.462Z" fill="var(--fill-0, #7C7F83)"/>
<path id="Vector_14" d="M140.415 90.1059V95.4126C140.415 95.4126 146.854 90.565 154.186 91.4087C154.186 91.4087 161.911 92.0536 161.714 98.6735V129.616H166.763V98.0904C166.763 98.0904 167.245 87.3635 154.414 86.3961C154.414 86.3961 146.276 85.6272 140.415 90.1059Z" fill="var(--fill-0, #7C7F83)"/>
<path id="Vector_15" d="M175.785 123.453L181.357 123.502L203.244 93.8367H197.362L175.785 123.453Z" fill="var(--fill-0, #7C7F83)"/>
<path id="Vector_16" d="M205.564 125.548H174.125V129.66H205.564V125.548Z" fill="var(--fill-0, #7C7F83)"/>
<path id="Vector_17" d="M205.564 86.9904H174.125V91.1025H205.564V86.9904Z" fill="var(--fill-0, #7C7F83)"/>
</g>
<defs>
<clipPath id="clip0_0_30">
<rect width="258.48" height="131.359" fill="white"/>
</clipPath>
</defs>
</svg>
