<svg preserveAspectRatio="none" width="100%" height="100%" overflow="visible" style="display: block;" viewBox="0 0 78.33 73" fill="none" xmlns="http://www.w3.org/2000/svg">
<g id="Component 5">
<path id="Vector" d="M39.0947 71.3758C41.4385 71.3758 43.6417 70.9305 45.7042 70.0399C47.7668 69.1492 49.5715 67.9304 51.1184 66.3835C52.6653 64.8366 53.9075 63.0084 54.8451 60.899C55.7357 58.8365 56.181 56.6333 56.181 54.2895C56.181 52.3676 55.5716 50.141 54.3529 47.6096C53.1341 45.0315 51.6926 42.4767 50.0285 39.9454C48.3644 37.4141 46.6652 35.0468 44.9308 32.8437C43.1495 30.5936 41.7432 28.8358 40.7119 27.5701C40.2432 27.1013 39.6806 26.867 39.0244 26.867C38.3681 26.867 37.8056 27.1013 37.3368 27.5701C36.2587 28.8358 34.8524 30.5936 33.118 32.8437C31.4304 35.0468 29.7546 37.4141 28.0905 39.9454C26.4264 42.4767 24.985 45.0315 23.7662 47.6096C22.5943 50.141 22.0083 52.3676 22.0083 54.2895C22.0083 56.6333 22.4537 58.8365 23.3443 60.899C24.235 63.0084 25.442 64.8366 26.9655 66.3835C28.489 67.9304 30.3054 69.1492 32.4148 70.0399C34.4774 70.9305 36.704 71.3758 39.0947 71.3758ZM39.0947 48.594C40.6416 48.594 41.9776 49.1331 43.1026 50.2113C44.2276 51.2894 44.7901 52.6488 44.7901 54.2895C44.7901 55.8364 44.2276 57.1724 43.1026 58.2974C41.9776 59.4224 40.6416 59.9849 39.0947 59.9849C37.454 59.9849 36.0946 59.4224 35.0165 58.2974C33.9383 57.1724 33.3992 55.8364 33.3992 54.2895C33.3992 52.6488 33.9383 51.2894 35.0165 50.2113C36.0946 49.1331 37.454 48.594 39.0947 48.594ZM2.74225 42.0548L18.7036 48.4534C19.0786 47.4221 19.5239 46.4026 20.0395 45.3947C20.5552 44.3869 21.1177 43.3205 21.7271 42.1955V10.6244L2.88288 2.04605C2.17974 1.71792 1.52347 1.77651 0.914084 2.22184C0.304695 2.66716 0 3.28827 0 4.08516V38.0469C0 38.8907 0.2461 39.6876 0.738299 40.4376C1.2305 41.1876 1.89848 41.7267 2.74225 42.0548ZM39.0947 22.5778C40.0322 22.5778 40.9229 22.7653 41.7666 23.1403C42.6104 23.5153 43.337 24.0778 43.9464 24.8278C45.3058 26.4216 46.6886 28.0857 48.0949 29.8202C49.5012 31.5546 50.8372 33.3827 52.1028 35.3047V1.90542L26.0866 10.6244V35.3047C27.3053 33.3827 28.5944 31.5546 29.9538 29.8202C31.3132 28.0857 32.6727 26.4216 34.0321 24.8278C34.6415 24.0778 35.3798 23.5153 36.247 23.1403C37.1142 22.7653 38.0634 22.5778 39.0947 22.5778ZM75.1659 49.4378C75.869 49.7659 76.5487 49.7073 77.205 49.262C77.8612 48.8167 78.1894 48.1956 78.1894 47.3987V13.4369C78.1894 12.5463 77.9081 11.7377 77.3456 11.0111C76.7831 10.2845 76.1034 9.73373 75.3065 9.35873L56.4623 1.90542V41.0001L75.1659 49.4378Z" fill="var(--fill-0, white)"/>
</g>
</svg>
