<svg preserveAspectRatio="none" width="100%" height="100%" overflow="visible" style="display: block;" viewBox="0 0 263.23 275" fill="none" xmlns="http://www.w3.org/2000/svg">
<g id="Group">
<path id="Vector" d="M84.6603 40.2532H74.606L66.6956 130.852H76.7501C79.9329 130.852 82.7384 128.267 83.0169 125.077L89.9187 46.0277C90.1971 42.8384 87.843 40.2532 84.6603 40.2532Z" fill="var(--fill-0, #007681)"/>
<path id="Vector_2" d="M73.9678 130.852H18.2478C15.0651 130.852 12.7108 128.267 12.9893 125.077L19.8911 46.0277C20.1695 42.8384 22.9752 40.2532 26.158 40.2532H81.8782C85.0609 40.2532 87.4152 42.8384 87.1368 46.0277L80.235 125.077C79.9565 128.267 77.1503 130.852 73.9678 130.852Z" fill="var(--fill-0, #007681)"/>
<path id="Vector_3" opacity="0.2" d="M73.9678 130.852H18.2478C15.0651 130.852 12.7108 128.267 12.9893 125.077L19.8911 46.0277C20.1695 42.8384 22.9752 40.2532 26.158 40.2532H81.8782C85.0609 40.2532 87.4152 42.8384 87.1368 46.0277L80.235 125.077C79.9565 128.267 77.1503 130.852 73.9678 130.852Z" fill="var(--fill-0, white)"/>
<path id="Vector_4" d="M78.489 64.9934H25.6313L26.8787 50.7067H79.7363L78.489 64.9934Z" fill="var(--fill-0, #263238)"/>
<path id="Vector_5" d="M78.3335 78.0845C78.1094 80.6503 75.8522 82.7304 73.2916 82.7304C70.7311 82.7304 68.8371 80.6505 69.0611 78.0845C69.2851 75.5188 71.5424 73.4387 74.103 73.4387C76.6635 73.4387 78.5574 75.5186 78.3335 78.0845Z" fill="var(--fill-0, white)"/>
<path id="Vector_6" d="M77.0724 92.5275C76.8484 95.0932 74.5911 97.1731 72.0305 97.1731C69.47 97.1731 67.5758 95.0932 67.7998 92.5275C68.0239 89.9618 70.2813 87.8817 72.8416 87.8817C75.402 87.8817 77.2964 89.9615 77.0724 92.5275Z" fill="var(--fill-0, white)"/>
<path id="Vector_7" d="M75.8111 106.971C75.5871 109.536 73.3299 111.616 70.7693 111.616C68.2088 111.616 66.3145 109.536 66.5385 106.971C66.7626 104.405 69.0199 102.325 71.5804 102.325C74.141 102.325 76.0354 104.405 75.8111 106.971Z" fill="var(--fill-0, white)"/>
<path id="Vector_8" d="M32.3695 78.0845C32.1455 80.6503 29.8882 82.7304 27.3277 82.7304C24.7671 82.7304 22.8729 80.6505 23.097 78.0845C23.321 75.5186 25.5783 73.4387 28.1388 73.4387C30.6993 73.4387 32.5936 75.5186 32.3695 78.0845Z" fill="var(--fill-0, #007681)"/>
<path id="Vector_9" d="M47.6908 78.0845C47.4667 80.6503 45.2095 82.7304 42.6489 82.7304C40.0884 82.7304 38.1942 80.6505 38.4181 78.0845C38.6422 75.5188 40.8997 73.4387 43.4601 73.4387C46.0203 73.4387 47.9147 75.5186 47.6908 78.0845Z" fill="var(--fill-0, #007681)"/>
<path id="Vector_10" d="M63.0118 78.0845C62.7877 80.6503 60.5305 82.7304 57.9699 82.7304C55.4094 82.7304 53.5152 80.6505 53.7394 78.0845C53.9635 75.5188 56.2207 73.4387 58.7812 73.4387C61.3418 73.4387 63.2358 75.5186 63.0118 78.0845Z" fill="var(--fill-0, #007681)"/>
<path id="Vector_11" d="M31.1086 92.5275C30.8845 95.0932 28.6273 97.1731 26.0668 97.1731C23.5062 97.1731 21.6122 95.0932 21.8363 92.5275C22.0602 89.9618 24.3175 87.8817 26.8781 87.8817C29.4386 87.8817 31.3327 89.9615 31.1086 92.5275Z" fill="var(--fill-0, #007681)"/>
<path id="Vector_12" d="M46.4299 92.5275C46.206 95.0932 43.9487 97.1731 41.3881 97.1731C38.8276 97.1731 36.9334 95.0932 37.1574 92.5275C37.3815 89.9618 39.6387 87.8817 42.1992 87.8817C44.7598 87.8817 46.6542 89.9615 46.4299 92.5275Z" fill="var(--fill-0, #007681)"/>
<path id="Vector_13" d="M61.7512 92.5275C61.5271 95.0932 59.2699 97.1731 56.7094 97.1731C54.1488 97.1731 52.2546 95.0932 52.4787 92.5275C52.7026 89.9618 54.9599 87.8817 57.5205 87.8817C60.081 87.8817 61.9753 89.9615 61.7512 92.5275Z" fill="var(--fill-0, #007681)"/>
<path id="Vector_14" d="M29.8476 106.971C29.6235 109.536 27.3662 111.616 24.8056 111.616C22.2451 111.616 20.351 109.536 20.5749 106.971C20.799 104.405 23.0562 102.325 25.6168 102.325C28.1773 102.325 30.0715 104.405 29.8476 106.971Z" fill="var(--fill-0, #007681)"/>
<path id="Vector_15" d="M45.1686 106.971C44.9445 109.536 42.6873 111.616 40.1267 111.616C37.5662 111.616 35.672 109.536 35.8962 106.971C36.1202 104.405 38.3775 102.325 40.9381 102.325C43.4986 102.325 45.3925 104.405 45.1686 106.971Z" fill="var(--fill-0, #007681)"/>
<path id="Vector_16" d="M60.4903 106.971C60.2662 109.536 58.009 111.616 55.4485 111.616C52.8879 111.616 50.9939 109.536 51.2178 106.971C51.4419 104.405 53.6992 102.325 56.2598 102.325C58.8203 102.325 60.7143 104.405 60.4903 106.971Z" fill="var(--fill-0, #007681)"/>
<path id="Vector_17" d="M28.5866 121.413C28.3626 123.979 26.1053 126.059 23.5447 126.059C20.9842 126.059 19.0901 123.979 19.3142 121.413C19.5383 118.847 21.7955 116.768 24.356 116.768C26.9166 116.768 28.8108 118.847 28.5866 121.413Z" fill="var(--fill-0, #007681)"/>
<path id="Vector_18" d="M43.908 121.413C43.6839 123.979 41.4265 126.059 38.8662 126.059C36.3058 126.059 34.4114 123.979 34.6354 121.413C34.8594 118.847 37.1168 116.768 39.6773 116.768C42.2378 116.768 44.132 118.847 43.908 121.413Z" fill="var(--fill-0, #007681)"/>
<path id="Vector_19" d="M59.2292 121.413C59.0052 123.979 56.7479 126.059 54.1873 126.059C51.6268 126.059 49.7326 123.979 49.9566 121.413C50.1807 118.847 52.4379 116.768 54.9985 116.768C57.559 116.768 59.4532 118.847 59.2292 121.413Z" fill="var(--fill-0, #007681)"/>
<g id="Group_2" opacity="0.3">
<path id="Vector_20" d="M32.3701 78.0845C32.146 80.6503 29.8888 82.7304 27.3283 82.7304C24.7677 82.7304 22.8735 80.6505 23.0975 78.0845C23.3215 75.5186 25.5787 73.4387 28.1393 73.4387C30.6998 73.4387 32.5941 75.5186 32.3701 78.0845Z" fill="var(--fill-0, black)"/>
<path id="Vector_21" d="M47.6913 78.0845C47.4672 80.6503 45.21 82.7304 42.6494 82.7304C40.0889 82.7304 38.1947 80.6505 38.4187 78.0845C38.6427 75.5188 40.9002 73.4387 43.4605 73.4387C46.0209 73.4387 47.9153 75.5186 47.6913 78.0845Z" fill="var(--fill-0, black)"/>
<path id="Vector_22" d="M63.0122 78.0845C62.7883 80.6503 60.531 82.7304 57.9704 82.7304C55.4099 82.7304 53.5156 80.6505 53.7399 78.0845C53.964 75.5188 56.2212 73.4387 58.7817 73.4387C61.3423 73.4387 63.2363 75.5186 63.0122 78.0845Z" fill="var(--fill-0, black)"/>
<path id="Vector_23" d="M31.1086 92.5275C30.8845 95.0932 28.6273 97.1731 26.0668 97.1731C23.5062 97.1731 21.6122 95.0932 21.8363 92.5275C22.0602 89.9618 24.3175 87.8817 26.8781 87.8817C29.4386 87.8817 31.3327 89.9615 31.1086 92.5275Z" fill="var(--fill-0, black)"/>
<path id="Vector_24" d="M46.43 92.5275C46.206 95.0932 43.9487 97.1731 41.3881 97.1731C38.8276 97.1731 36.9334 95.0932 37.1574 92.5275C37.3815 89.9618 39.6387 87.8817 42.1992 87.8817C44.7598 87.8817 46.6542 89.9615 46.43 92.5275Z" fill="var(--fill-0, black)"/>
<path id="Vector_25" d="M61.7512 92.5275C61.5271 95.0932 59.2699 97.1731 56.7094 97.1731C54.1488 97.1731 52.2546 95.0932 52.4787 92.5275C52.7026 89.9618 54.9599 87.8817 57.5205 87.8817C60.081 87.8817 61.9753 89.9615 61.7512 92.5275Z" fill="var(--fill-0, black)"/>
<path id="Vector_26" d="M29.8476 106.971C29.6235 109.536 27.3662 111.616 24.8056 111.616C22.2451 111.616 20.351 109.536 20.5749 106.971C20.799 104.405 23.0562 102.325 25.6168 102.325C28.1773 102.325 30.0715 104.405 29.8476 106.971Z" fill="var(--fill-0, black)"/>
<path id="Vector_27" d="M45.169 106.971C44.9451 109.536 42.6878 111.616 40.1272 111.616C37.5667 111.616 35.6724 109.536 35.8967 106.971C36.1208 104.405 38.378 102.325 40.9385 102.325C43.4991 102.325 45.3931 104.405 45.169 106.971Z" fill="var(--fill-0, black)"/>
<path id="Vector_28" d="M60.4903 106.971C60.2662 109.536 58.009 111.616 55.4485 111.616C52.8879 111.616 50.9939 109.536 51.2178 106.971C51.4419 104.405 53.6992 102.325 56.2598 102.325C58.8203 102.325 60.7143 104.405 60.4903 106.971Z" fill="var(--fill-0, black)"/>
<path id="Vector_29" d="M28.5866 121.413C28.3626 123.979 26.1053 126.059 23.5447 126.059C20.9842 126.059 19.0901 123.979 19.3142 121.413C19.5383 118.847 21.7955 116.767 24.356 116.767C26.9166 116.767 28.8108 118.847 28.5866 121.413Z" fill="var(--fill-0, black)"/>
<path id="Vector_30" d="M43.908 121.413C43.6839 123.979 41.4265 126.059 38.8662 126.059C36.3058 126.059 34.4114 123.979 34.6354 121.413C34.8594 118.847 37.1168 116.767 39.6773 116.767C42.2378 116.767 44.132 118.847 43.908 121.413Z" fill="var(--fill-0, black)"/>
<path id="Vector_31" d="M59.2292 121.413C59.0052 123.979 56.7479 126.059 54.1873 126.059C51.6268 126.059 49.7326 123.979 49.9566 121.413C50.1807 118.847 52.4379 116.767 54.9985 116.767C57.559 116.767 59.4532 118.847 59.2292 121.413Z" fill="var(--fill-0, black)"/>
</g>
<path id="Vector_32" d="M74.5503 121.413C74.3262 123.979 72.0689 126.059 69.5083 126.059C66.9478 126.059 65.0537 123.979 65.2778 121.413C65.5019 118.847 67.7591 116.768 70.3196 116.768C72.8802 116.768 74.7742 118.847 74.5503 121.413Z" fill="var(--fill-0, white)"/>
<path id="Vector_33" d="M24.5241 230.826H12.1701V231.182H24.5241V230.826Z" fill="var(--fill-0, #EBEBEB)"/>
<path id="Vector_34" d="M127.583 212.242C114.367 216.878 110.427 235.739 120.814 253.66C131.201 271.58 149.56 277.597 160.19 268.498C169.364 260.645 169.485 243.912 161.538 230.203C153.592 216.494 138.99 208.242 127.583 212.242Z" fill="var(--fill-0, #FFA300)"/>
<path id="Vector_35" d="M132.318 210.582C119.87 214.948 116.426 233.065 126.473 250.4C136.522 267.735 153.987 273.807 163.998 265.237C172.674 257.809 172.624 241.644 164.877 228.279C157.131 214.915 143.107 206.798 132.318 210.582Z" fill="var(--fill-0, #FFA300)"/>
<path id="Vector_36" opacity="0.4" d="M132.318 210.582C119.87 214.948 116.426 233.065 126.473 250.4C136.522 267.735 153.987 273.807 163.998 265.237C172.674 257.809 172.624 241.644 164.877 228.279C157.131 214.915 143.107 206.798 132.318 210.582Z" fill="var(--fill-0, white)"/>
<path id="Vector_37" d="M136.647 217.279C136.109 217.495 135.595 217.76 135.119 218.008C135.104 218.07 135.035 218.041 134.993 218.058C127.491 222.627 126.16 235.076 132.885 246.68C139.64 258.333 151.125 263.401 158.842 259.202C158.877 259.174 158.886 259.102 158.949 259.119C159.402 258.832 159.887 258.52 160.344 258.163C167.118 252.881 167.296 240.6 161.328 230.302C155.382 220.045 144.621 214.067 136.647 217.279Z" fill="var(--fill-0, #FFA300)"/>
<path id="Vector_38" opacity="0.3" d="M135.119 218.008C135.104 218.07 135.035 218.041 134.993 218.058C127.491 222.627 126.16 235.077 132.885 246.68C139.64 258.333 151.125 263.401 158.842 259.202C158.877 259.174 158.886 259.102 158.949 259.119C164.589 253.085 164.449 241.552 158.779 231.77C153.133 222.029 143.181 216.15 135.119 218.008Z" fill="var(--fill-0, white)"/>
<path id="Vector_39" d="M232.073 198.503H165.633V209.183H232.073V198.503Z" fill="var(--fill-0, #FFA300)"/>
<path id="Vector_40" opacity="0.6" d="M232.073 198.503H165.633V209.183H232.073V198.503Z" fill="var(--fill-0, white)"/>
<path id="Vector_41" opacity="0.2" d="M169.984 198.503L232.073 209.183H165.633V198.503H169.984Z" fill="var(--fill-0, #FFA300)"/>
<path id="Vector_42" d="M167.056 198.503H165.633V209.183H167.056V198.503Z" fill="var(--fill-0, #FFA300)"/>
<path id="Vector_43" d="M172.966 198.503H171.545V209.183H172.966V198.503Z" fill="var(--fill-0, #FFA300)"/>
<path id="Vector_44" d="M178.877 198.503H177.456V209.183H178.877V198.503Z" fill="var(--fill-0, #FFA300)"/>
<path id="Vector_45" d="M184.787 198.503H183.366V209.183H184.787V198.503Z" fill="var(--fill-0, #FFA300)"/>
<path id="Vector_46" d="M190.698 198.503H189.277V209.183H190.698V198.503Z" fill="var(--fill-0, #FFA300)"/>
<path id="Vector_47" d="M196.609 198.503H195.188V209.183H196.609V198.503Z" fill="var(--fill-0, #FFA300)"/>
<path id="Vector_48" d="M202.52 198.503H201.099V209.183H202.52V198.503Z" fill="var(--fill-0, #FFA300)"/>
<path id="Vector_49" d="M208.43 198.503H207.009V209.183H208.43V198.503Z" fill="var(--fill-0, #FFA300)"/>
<path id="Vector_50" d="M214.341 198.503H212.92V209.183H214.341V198.503Z" fill="var(--fill-0, #FFA300)"/>
<path id="Vector_51" d="M220.251 198.503H218.83V209.183H220.251V198.503Z" fill="var(--fill-0, #FFA300)"/>
<path id="Vector_52" d="M226.162 198.503H224.741V209.183H226.162V198.503Z" fill="var(--fill-0, #FFA300)"/>
<path id="Vector_53" d="M232.073 198.503H230.652V209.183H232.073V198.503Z" fill="var(--fill-0, #FFA300)"/>
<path id="Vector_54" d="M232.073 207.76H165.633V209.183H232.073V207.76Z" fill="var(--fill-0, #FFA300)"/>
<path id="Vector_55" d="M227.809 209.183H161.37V219.863H227.809V209.183Z" fill="var(--fill-0, #FFA300)"/>
<path id="Vector_56" opacity="0.6" d="M227.809 209.183H161.37V219.863H227.809V209.183Z" fill="var(--fill-0, white)"/>
<path id="Vector_57" opacity="0.2" d="M165.721 209.183L227.809 219.863H161.37V209.183H165.721Z" fill="var(--fill-0, #FFA300)"/>
<path id="Vector_58" d="M162.791 209.183H161.37V219.863H162.791V209.183Z" fill="var(--fill-0, #FFA300)"/>
<path id="Vector_59" d="M168.703 209.183H167.282V219.863H168.703V209.183Z" fill="var(--fill-0, #FFA300)"/>
<path id="Vector_60" d="M174.614 209.183H173.192V219.863H174.614V209.183Z" fill="var(--fill-0, #FFA300)"/>
<path id="Vector_61" d="M180.524 209.183H179.103V219.863H180.524V209.183Z" fill="var(--fill-0, #FFA300)"/>
<path id="Vector_62" d="M186.435 209.183H185.014V219.863H186.435V209.183Z" fill="var(--fill-0, #FFA300)"/>
<path id="Vector_63" d="M192.346 209.183H190.925V219.863H192.346V209.183Z" fill="var(--fill-0, #FFA300)"/>
<path id="Vector_64" d="M198.256 209.183H196.835V219.863H198.256V209.183Z" fill="var(--fill-0, #FFA300)"/>
<path id="Vector_65" d="M204.167 209.183H202.746V219.863H204.167V209.183Z" fill="var(--fill-0, #FFA300)"/>
<path id="Vector_66" d="M210.078 209.183H208.657V219.863H210.078V209.183Z" fill="var(--fill-0, #FFA300)"/>
<path id="Vector_67" d="M215.988 209.183H214.567V219.863H215.988V209.183Z" fill="var(--fill-0, #FFA300)"/>
<path id="Vector_68" d="M221.899 209.183H220.478V219.863H221.899V209.183Z" fill="var(--fill-0, #FFA300)"/>
<path id="Vector_69" d="M227.809 209.183H226.388V219.863H227.809V209.183Z" fill="var(--fill-0, #FFA300)"/>
<path id="Vector_70" d="M227.809 218.44H161.37V219.863H227.809V218.44Z" fill="var(--fill-0, #FFA300)"/>
<path id="Vector_71" d="M219.283 219.863H152.844V230.543H219.283V219.863Z" fill="var(--fill-0, #FFA300)"/>
<path id="Vector_72" opacity="0.6" d="M219.283 219.863H152.844V230.543H219.283V219.863Z" fill="var(--fill-0, white)"/>
<path id="Vector_73" opacity="0.2" d="M157.194 219.863L219.283 230.543H152.844V219.863H157.194Z" fill="var(--fill-0, #FFA300)"/>
<path id="Vector_74" d="M154.265 219.863H152.844V230.543H154.265V219.863Z" fill="var(--fill-0, #FFA300)"/>
<path id="Vector_75" d="M160.176 219.863H158.755V230.543H160.176V219.863Z" fill="var(--fill-0, #FFA300)"/>
<path id="Vector_76" d="M166.087 219.863H164.666V230.543H166.087V219.863Z" fill="var(--fill-0, #FFA300)"/>
<path id="Vector_77" d="M171.998 219.863H170.577V230.543H171.998V219.863Z" fill="var(--fill-0, #FFA300)"/>
<path id="Vector_78" d="M177.908 219.863H176.487V230.543H177.908V219.863Z" fill="var(--fill-0, #FFA300)"/>
<path id="Vector_79" d="M183.819 219.863H182.398V230.543H183.819V219.863Z" fill="var(--fill-0, #FFA300)"/>
<path id="Vector_80" d="M189.73 219.863H188.309V230.543H189.73V219.863Z" fill="var(--fill-0, #FFA300)"/>
<path id="Vector_81" d="M195.639 219.863H194.218V230.543H195.639V219.863Z" fill="var(--fill-0, #FFA300)"/>
<path id="Vector_82" d="M201.55 219.863H200.129V230.543H201.55V219.863Z" fill="var(--fill-0, #FFA300)"/>
<path id="Vector_83" d="M207.462 219.863H206.041V230.543H207.462V219.863Z" fill="var(--fill-0, #FFA300)"/>
<path id="Vector_84" d="M213.372 219.863H211.951V230.543H213.372V219.863Z" fill="var(--fill-0, #FFA300)"/>
<path id="Vector_85" d="M219.283 219.863H217.862V230.543H219.283V219.863Z" fill="var(--fill-0, #FFA300)"/>
<path id="Vector_86" d="M219.283 229.12H152.844V230.543H219.283V229.12Z" fill="var(--fill-0, #FFA300)"/>
<path id="Vector_87" d="M227.809 230.543H161.37V241.223H227.809V230.543Z" fill="var(--fill-0, #FFA300)"/>
<path id="Vector_88" opacity="0.6" d="M227.809 230.543H161.37V241.223H227.809V230.543Z" fill="var(--fill-0, white)"/>
<path id="Vector_89" opacity="0.2" d="M165.721 230.543L227.809 241.223H161.37V230.543H165.721Z" fill="var(--fill-0, #FFA300)"/>
<path id="Vector_90" d="M162.791 230.543H161.37V241.223H162.791V230.543Z" fill="var(--fill-0, #FFA300)"/>
<path id="Vector_91" d="M168.703 230.543H167.282V241.223H168.703V230.543Z" fill="var(--fill-0, #FFA300)"/>
<path id="Vector_92" d="M174.614 230.543H173.192V241.223H174.614V230.543Z" fill="var(--fill-0, #FFA300)"/>
<path id="Vector_93" d="M180.524 230.543H179.103V241.223H180.524V230.543Z" fill="var(--fill-0, #FFA300)"/>
<path id="Vector_94" d="M186.435 230.543H185.014V241.223H186.435V230.543Z" fill="var(--fill-0, #FFA300)"/>
<path id="Vector_95" d="M192.346 230.543H190.925V241.223H192.346V230.543Z" fill="var(--fill-0, #FFA300)"/>
<path id="Vector_96" d="M198.256 230.543H196.835V241.223H198.256V230.543Z" fill="var(--fill-0, #FFA300)"/>
<path id="Vector_97" d="M204.167 230.543H202.746V241.223H204.167V230.543Z" fill="var(--fill-0, #FFA300)"/>
<path id="Vector_98" d="M210.078 230.543H208.657V241.223H210.078V230.543Z" fill="var(--fill-0, #FFA300)"/>
<path id="Vector_99" d="M215.988 230.543H214.567V241.223H215.988V230.543Z" fill="var(--fill-0, #FFA300)"/>
<path id="Vector_100" d="M221.899 230.543H220.478V241.223H221.899V230.543Z" fill="var(--fill-0, #FFA300)"/>
<path id="Vector_101" d="M227.809 230.543H226.388V241.223H227.809V230.543Z" fill="var(--fill-0, #FFA300)"/>
<path id="Vector_102" d="M227.809 239.799H161.37V241.223H227.809V239.799Z" fill="var(--fill-0, #FFA300)"/>
<path id="Vector_103" d="M222.125 241.223H155.686V251.903H222.125V241.223Z" fill="var(--fill-0, #FFA300)"/>
<path id="Vector_104" opacity="0.6" d="M222.125 241.223H155.686V251.903H222.125V241.223Z" fill="var(--fill-0, white)"/>
<path id="Vector_105" opacity="0.2" d="M160.037 241.223L222.125 251.903H155.686V241.223H160.037Z" fill="var(--fill-0, #FFA300)"/>
<path id="Vector_106" d="M157.107 241.223H155.686V251.903H157.107V241.223Z" fill="var(--fill-0, #FFA300)"/>
<path id="Vector_107" d="M163.019 241.223H161.598V251.903H163.019V241.223Z" fill="var(--fill-0, #FFA300)"/>
<path id="Vector_108" d="M168.929 241.223H167.508V251.903H168.929V241.223Z" fill="var(--fill-0, #FFA300)"/>
<path id="Vector_109" d="M174.84 241.223H173.419V251.903H174.84V241.223Z" fill="var(--fill-0, #FFA300)"/>
<path id="Vector_110" d="M180.75 241.223H179.329V251.903H180.75V241.223Z" fill="var(--fill-0, #FFA300)"/>
<path id="Vector_111" d="M186.661 241.223H185.24V251.903H186.661V241.223Z" fill="var(--fill-0, #FFA300)"/>
<path id="Vector_112" d="M192.572 241.223H191.151V251.903H192.572V241.223Z" fill="var(--fill-0, #FFA300)"/>
<path id="Vector_113" d="M198.483 241.223H197.062V251.903H198.483V241.223Z" fill="var(--fill-0, #FFA300)"/>
<path id="Vector_114" d="M204.393 241.223H202.972V251.903H204.393V241.223Z" fill="var(--fill-0, #FFA300)"/>
<path id="Vector_115" d="M210.304 241.223H208.883V251.903H210.304V241.223Z" fill="var(--fill-0, #FFA300)"/>
<path id="Vector_116" d="M216.214 241.223H214.793V251.903H216.214V241.223Z" fill="var(--fill-0, #FFA300)"/>
<path id="Vector_117" d="M222.125 241.223H220.704V251.903H222.125V241.223Z" fill="var(--fill-0, #FFA300)"/>
<path id="Vector_118" d="M222.125 250.479H155.686V251.903H222.125V250.479Z" fill="var(--fill-0, #FFA300)"/>
<path id="Vector_119" d="M223.546 251.903H157.107V262.584H223.546V251.903Z" fill="var(--fill-0, #FFA300)"/>
<path id="Vector_120" opacity="0.6" d="M223.546 251.903H157.107V262.584H223.546V251.903Z" fill="var(--fill-0, white)"/>
<path id="Vector_121" opacity="0.2" d="M161.457 251.903L223.546 262.584H157.107V251.903H161.457Z" fill="var(--fill-0, #FFA300)"/>
<path id="Vector_122" d="M158.528 251.903H157.107V262.584H158.528V251.903Z" fill="var(--fill-0, #FFA300)"/>
<path id="Vector_123" d="M164.44 251.903H163.019V262.584H164.44V251.903Z" fill="var(--fill-0, #FFA300)"/>
<path id="Vector_124" d="M170.35 251.903H168.929V262.584H170.35V251.903Z" fill="var(--fill-0, #FFA300)"/>
<path id="Vector_125" d="M176.261 251.903H174.84V262.584H176.261V251.903Z" fill="var(--fill-0, #FFA300)"/>
<path id="Vector_126" d="M182.172 251.903H180.75V262.584H182.172V251.903Z" fill="var(--fill-0, #FFA300)"/>
<path id="Vector_127" d="M188.082 251.903H186.661V262.584H188.082V251.903Z" fill="var(--fill-0, #FFA300)"/>
<path id="Vector_128" d="M193.993 251.903H192.572V262.584H193.993V251.903Z" fill="var(--fill-0, #FFA300)"/>
<path id="Vector_129" d="M199.904 251.903H198.483V262.584H199.904V251.903Z" fill="var(--fill-0, #FFA300)"/>
<path id="Vector_130" d="M205.814 251.903H204.393V262.584H205.814V251.903Z" fill="var(--fill-0, #FFA300)"/>
<path id="Vector_131" d="M211.725 251.903H210.304V262.584H211.725V251.903Z" fill="var(--fill-0, #FFA300)"/>
<path id="Vector_132" d="M217.636 251.903H216.214V262.584H217.636V251.903Z" fill="var(--fill-0, #FFA300)"/>
<path id="Vector_133" d="M223.547 251.903H222.125V262.584H223.547V251.903Z" fill="var(--fill-0, #FFA300)"/>
<path id="Vector_134" d="M223.546 261.159H157.107V262.584H223.546V261.159Z" fill="var(--fill-0, #FFA300)"/>
<path id="Vector_135" d="M227.809 262.584H161.37V273.264H227.809V262.584Z" fill="var(--fill-0, #FFA300)"/>
<path id="Vector_136" opacity="0.6" d="M227.809 262.584H161.37V273.264H227.809V262.584Z" fill="var(--fill-0, white)"/>
<path id="Vector_137" opacity="0.2" d="M165.721 262.584L227.809 273.263H161.37V262.584H165.721Z" fill="var(--fill-0, #FFA300)"/>
<path id="Vector_138" d="M162.791 262.584H161.37V273.264H162.791V262.584Z" fill="var(--fill-0, #FFA300)"/>
<path id="Vector_139" d="M168.703 262.584H167.282V273.264H168.703V262.584Z" fill="var(--fill-0, #FFA300)"/>
<path id="Vector_140" d="M174.614 262.584H173.192V273.264H174.614V262.584Z" fill="var(--fill-0, #FFA300)"/>
<path id="Vector_141" d="M180.524 262.584H179.103V273.264H180.524V262.584Z" fill="var(--fill-0, #FFA300)"/>
<path id="Vector_142" d="M186.435 262.584H185.014V273.264H186.435V262.584Z" fill="var(--fill-0, #FFA300)"/>
<path id="Vector_143" d="M192.346 262.584H190.925V273.264H192.346V262.584Z" fill="var(--fill-0, #FFA300)"/>
<path id="Vector_144" d="M198.256 262.584H196.835V273.264H198.256V262.584Z" fill="var(--fill-0, #FFA300)"/>
<path id="Vector_145" d="M204.167 262.584H202.746V273.264H204.167V262.584Z" fill="var(--fill-0, #FFA300)"/>
<path id="Vector_146" d="M210.078 262.584H208.657V273.264H210.078V262.584Z" fill="var(--fill-0, #FFA300)"/>
<path id="Vector_147" d="M215.988 262.584H214.567V273.264H215.988V262.584Z" fill="var(--fill-0, #FFA300)"/>
<path id="Vector_148" d="M221.899 262.584H220.478V273.264H221.899V262.584Z" fill="var(--fill-0, #FFA300)"/>
<path id="Vector_149" d="M227.809 262.584H226.388V273.264H227.809V262.584Z" fill="var(--fill-0, #FFA300)"/>
<path id="Vector_150" d="M227.809 271.839H161.37V273.264H227.809V271.839Z" fill="var(--fill-0, #FFA300)"/>
<path id="Vector_151" d="M66.4389 230.035H0V240.714H66.4389V230.035Z" fill="var(--fill-0, #FFA300)"/>
<path id="Vector_152" opacity="0.6" d="M66.4389 230.035H0V240.714H66.4389V230.035Z" fill="var(--fill-0, white)"/>
<path id="Vector_153" opacity="0.2" d="M4.35003 230.035L66.4389 240.714H0V230.035H4.35003Z" fill="var(--fill-0, #FFA300)"/>
<path id="Vector_154" d="M1.4211 230.035H0V240.714H1.4211V230.035Z" fill="var(--fill-0, #FFA300)"/>
<path id="Vector_155" d="M7.33243 230.035H5.91133V240.714H7.33243V230.035Z" fill="var(--fill-0, #FFA300)"/>
<path id="Vector_156" d="M13.2427 230.035H11.8217V240.714H13.2427V230.035Z" fill="var(--fill-0, #FFA300)"/>
<path id="Vector_157" d="M19.1536 230.035H17.7325V240.714H19.1536V230.035Z" fill="var(--fill-0, #FFA300)"/>
<path id="Vector_158" d="M25.0644 230.035H23.6433V240.714H25.0644V230.035Z" fill="var(--fill-0, #FFA300)"/>
<path id="Vector_159" d="M30.9746 230.035H29.5535V240.714H30.9746V230.035Z" fill="var(--fill-0, #FFA300)"/>
<path id="Vector_160" d="M36.8854 230.035H35.4644V240.714H36.8854V230.035Z" fill="var(--fill-0, #FFA300)"/>
<path id="Vector_161" d="M42.7958 230.035H41.3747V240.714H42.7958V230.035Z" fill="var(--fill-0, #FFA300)"/>
<path id="Vector_162" d="M48.7066 230.035H47.2854V240.714H48.7066V230.035Z" fill="var(--fill-0, #FFA300)"/>
<path id="Vector_163" d="M54.6179 230.035H53.1968V240.714H54.6179V230.035Z" fill="var(--fill-0, #FFA300)"/>
<path id="Vector_164" d="M60.5287 230.035H59.1077V240.714H60.5287V230.035Z" fill="var(--fill-0, #FFA300)"/>
<path id="Vector_165" d="M66.439 230.035H65.0179V240.714H66.439V230.035Z" fill="var(--fill-0, #FFA300)"/>
<path id="Vector_166" d="M66.4389 239.29H0V240.714H66.4389V239.29Z" fill="var(--fill-0, #FFA300)"/>
<path id="Vector_167" d="M70.7024 240.714H4.26344V251.394H70.7024V240.714Z" fill="var(--fill-0, #FFA300)"/>
<path id="Vector_168" opacity="0.6" d="M70.7024 240.714H4.26344V251.394H70.7024V240.714Z" fill="var(--fill-0, white)"/>
<path id="Vector_169" opacity="0.2" d="M8.61346 240.714L70.7024 251.394H4.26344V240.714H8.61346Z" fill="var(--fill-0, #FFA300)"/>
<path id="Vector_170" d="M5.68453 240.714H4.26344V251.394H5.68453V240.714Z" fill="var(--fill-0, #FFA300)"/>
<path id="Vector_171" d="M11.5959 240.714H10.1748V251.394H11.5959V240.714Z" fill="var(--fill-0, #FFA300)"/>
<path id="Vector_172" d="M17.5062 240.714H16.085V251.394H17.5062V240.714Z" fill="var(--fill-0, #FFA300)"/>
<path id="Vector_173" d="M23.4169 240.714H21.9959V251.394H23.4169V240.714Z" fill="var(--fill-0, #FFA300)"/>
<path id="Vector_174" d="M29.3273 240.714H27.9062V251.394H29.3273V240.714Z" fill="var(--fill-0, #FFA300)"/>
<path id="Vector_175" d="M35.2381 240.714H33.817V251.394H35.2381V240.714Z" fill="var(--fill-0, #FFA300)"/>
<path id="Vector_176" d="M41.1489 240.714H39.7278V251.394H41.1489V240.714Z" fill="var(--fill-0, #FFA300)"/>
<path id="Vector_177" d="M47.0592 240.714H45.6381V251.394H47.0592V240.714Z" fill="var(--fill-0, #FFA300)"/>
<path id="Vector_178" d="M52.97 240.714H51.5489V251.394H52.97V240.714Z" fill="var(--fill-0, #FFA300)"/>
<path id="Vector_179" d="M58.8813 240.714H57.4602V251.394H58.8813V240.714Z" fill="var(--fill-0, #FFA300)"/>
<path id="Vector_180" d="M64.7916 240.714H63.3706V251.394H64.7916V240.714Z" fill="var(--fill-0, #FFA300)"/>
<path id="Vector_181" d="M70.702 240.714H69.2808V251.394H70.702V240.714Z" fill="var(--fill-0, #FFA300)"/>
<path id="Vector_182" d="M70.7024 249.97H4.26344V251.394H70.7024V249.97Z" fill="var(--fill-0, #FFA300)"/>
<path id="Vector_183" d="M66.4389 251.394H0V262.074H66.4389V251.394Z" fill="var(--fill-0, #FFA300)"/>
<path id="Vector_184" opacity="0.6" d="M66.4389 251.394H0V262.074H66.4389V251.394Z" fill="var(--fill-0, white)"/>
<path id="Vector_185" opacity="0.2" d="M4.35003 251.394L66.4389 262.074H0V251.394H4.35003Z" fill="var(--fill-0, #FFA300)"/>
<path id="Vector_186" d="M1.4211 251.394H0V262.074H1.4211V251.394Z" fill="var(--fill-0, #FFA300)"/>
<path id="Vector_187" d="M7.33243 251.394H5.91133V262.074H7.33243V251.394Z" fill="var(--fill-0, #FFA300)"/>
<path id="Vector_188" d="M13.2427 251.394H11.8217V262.074H13.2427V251.394Z" fill="var(--fill-0, #FFA300)"/>
<path id="Vector_189" d="M19.1536 251.394H17.7325V262.074H19.1536V251.394Z" fill="var(--fill-0, #FFA300)"/>
<path id="Vector_190" d="M25.0644 251.394H23.6433V262.074H25.0644V251.394Z" fill="var(--fill-0, #FFA300)"/>
<path id="Vector_191" d="M30.9746 251.394H29.5535V262.074H30.9746V251.394Z" fill="var(--fill-0, #FFA300)"/>
<path id="Vector_192" d="M36.8854 251.394H35.4644V262.074H36.8854V251.394Z" fill="var(--fill-0, #FFA300)"/>
<path id="Vector_193" d="M42.7958 251.394H41.3747V262.074H42.7958V251.394Z" fill="var(--fill-0, #FFA300)"/>
<path id="Vector_194" d="M48.7066 251.394H47.2854V262.074H48.7066V251.394Z" fill="var(--fill-0, #FFA300)"/>
<path id="Vector_195" d="M54.6179 251.394H53.1968V262.074H54.6179V251.394Z" fill="var(--fill-0, #FFA300)"/>
<path id="Vector_196" d="M60.5287 251.394H59.1077V262.074H60.5287V251.394Z" fill="var(--fill-0, #FFA300)"/>
<path id="Vector_197" d="M66.439 251.394H65.0179V262.074H66.439V251.394Z" fill="var(--fill-0, #FFA300)"/>
<path id="Vector_198" d="M66.4389 260.65H0V262.074H66.4389V260.65Z" fill="var(--fill-0, #FFA300)"/>
<path id="Vector_199" d="M73.5446 262.074H7.10572V272.754H73.5446V262.074Z" fill="var(--fill-0, #FFA300)"/>
<path id="Vector_200" opacity="0.6" d="M73.5446 262.074H7.10572V272.754H73.5446V262.074Z" fill="var(--fill-0, white)"/>
<path id="Vector_201" opacity="0.2" d="M11.4557 262.074L73.5446 272.754H7.10572V262.074H11.4557Z" fill="var(--fill-0, #FFA300)"/>
<path id="Vector_202" d="M8.52682 262.074H7.10572V272.754H8.52682V262.074Z" fill="var(--fill-0, #FFA300)"/>
<path id="Vector_203" d="M14.4381 262.074H13.017V272.754H14.4381V262.074Z" fill="var(--fill-0, #FFA300)"/>
<path id="Vector_204" d="M20.3485 262.074H18.9274V272.754H20.3485V262.074Z" fill="var(--fill-0, #FFA300)"/>
<path id="Vector_205" d="M26.2593 262.074H24.8382V272.754H26.2593V262.074Z" fill="var(--fill-0, #FFA300)"/>
<path id="Vector_206" d="M32.1695 262.074H30.7484V272.754H32.1695V262.074Z" fill="var(--fill-0, #FFA300)"/>
<path id="Vector_207" d="M38.0803 262.074H36.6593V272.754H38.0803V262.074Z" fill="var(--fill-0, #FFA300)"/>
<path id="Vector_208" d="M43.9912 262.074H42.5701V272.754H43.9912V262.074Z" fill="var(--fill-0, #FFA300)"/>
<path id="Vector_209" d="M49.9015 262.074H48.4804V272.754H49.9015V262.074Z" fill="var(--fill-0, #FFA300)"/>
<path id="Vector_210" d="M55.8123 262.074H54.3913V272.754H55.8123V262.074Z" fill="var(--fill-0, #FFA300)"/>
<path id="Vector_211" d="M61.7232 262.074H60.302V272.754H61.7232V262.074Z" fill="var(--fill-0, #FFA300)"/>
<path id="Vector_212" d="M67.634 262.074H66.2128V272.754H67.634V262.074Z" fill="var(--fill-0, #FFA300)"/>
<path id="Vector_213" d="M73.5442 262.074H72.1231V272.754H73.5442V262.074Z" fill="var(--fill-0, #FFA300)"/>
<path id="Vector_214" d="M73.5446 271.33H7.10572V272.754H73.5446V271.33Z" fill="var(--fill-0, #FFA300)"/>
<path id="Vector_215" d="M147.723 198.503H81.2843V209.183H147.723V198.503Z" fill="var(--fill-0, #FFA300)"/>
<path id="Vector_216" opacity="0.6" d="M147.723 198.503H81.2843V209.183H147.723V198.503Z" fill="var(--fill-0, white)"/>
<path id="Vector_217" opacity="0.2" d="M85.6341 198.503L147.723 209.183H81.2843V198.503H85.6341Z" fill="var(--fill-0, #FFA300)"/>
<path id="Vector_218" d="M82.7053 198.503H81.2843V209.183H82.7053V198.503Z" fill="var(--fill-0, #FFA300)"/>
<path id="Vector_219" d="M88.6168 198.503H87.1956V209.183H88.6168V198.503Z" fill="var(--fill-0, #FFA300)"/>
<path id="Vector_220" d="M94.5276 198.503H93.1064V209.183H94.5276V198.503Z" fill="var(--fill-0, #FFA300)"/>
<path id="Vector_221" d="M100.438 198.503H99.0167V209.183H100.438V198.503Z" fill="var(--fill-0, #FFA300)"/>
<path id="Vector_222" d="M106.349 198.503H104.928V209.183H106.349V198.503Z" fill="var(--fill-0, #FFA300)"/>
<path id="Vector_223" d="M112.259 198.503H110.838V209.183H112.259V198.503Z" fill="var(--fill-0, #FFA300)"/>
<path id="Vector_224" d="M118.17 198.503H116.749V209.183H118.17V198.503Z" fill="var(--fill-0, #FFA300)"/>
<path id="Vector_225" d="M124.08 198.503H122.659V209.183H124.08V198.503Z" fill="var(--fill-0, #FFA300)"/>
<path id="Vector_226" d="M129.99 198.503H128.569V209.183H129.99V198.503Z" fill="var(--fill-0, #FFA300)"/>
<path id="Vector_227" d="M135.902 198.503H134.481V209.183H135.902V198.503Z" fill="var(--fill-0, #FFA300)"/>
<path id="Vector_228" d="M141.812 198.503H140.391V209.183H141.812V198.503Z" fill="var(--fill-0, #FFA300)"/>
<path id="Vector_229" d="M147.723 198.503H146.302V209.183H147.723V198.503Z" fill="var(--fill-0, #FFA300)"/>
<path id="Vector_230" d="M147.723 207.76H81.2843V209.183H147.723V207.76Z" fill="var(--fill-0, #FFA300)"/>
<path id="Vector_231" d="M143.46 209.183H77.0209V219.863H143.46V209.183Z" fill="var(--fill-0, #FFA300)"/>
<path id="Vector_232" opacity="0.6" d="M143.46 209.183H77.0209V219.863H143.46V209.183Z" fill="var(--fill-0, white)"/>
<path id="Vector_233" opacity="0.2" d="M81.3707 209.183L143.46 219.863H77.0209V209.183H81.3707Z" fill="var(--fill-0, #FFA300)"/>
<path id="Vector_234" d="M78.442 209.183H77.0209V219.863H78.442V209.183Z" fill="var(--fill-0, #FFA300)"/>
<path id="Vector_235" d="M84.3533 209.183H82.9322V219.863H84.3533V209.183Z" fill="var(--fill-0, #FFA300)"/>
<path id="Vector_236" d="M90.2641 209.183H88.843V219.863H90.2641V209.183Z" fill="var(--fill-0, #FFA300)"/>
<path id="Vector_237" d="M96.1744 209.183H94.7533V219.863H96.1744V209.183Z" fill="var(--fill-0, #FFA300)"/>
<path id="Vector_238" d="M102.085 209.183H100.664V219.863H102.085V209.183Z" fill="var(--fill-0, #FFA300)"/>
<path id="Vector_239" d="M107.996 209.183H106.574V219.863H107.996V209.183Z" fill="var(--fill-0, #FFA300)"/>
<path id="Vector_240" d="M113.907 209.183H112.486V219.863H113.907V209.183Z" fill="var(--fill-0, #FFA300)"/>
<path id="Vector_241" d="M119.818 209.183H118.396V219.863H119.818V209.183Z" fill="var(--fill-0, #FFA300)"/>
<path id="Vector_242" d="M125.727 209.183H124.306V219.863H125.727V209.183Z" fill="var(--fill-0, #FFA300)"/>
<path id="Vector_243" d="M131.638 209.183H130.217V219.863H131.638V209.183Z" fill="var(--fill-0, #FFA300)"/>
<path id="Vector_244" d="M137.549 209.183H136.128V219.863H137.549V209.183Z" fill="var(--fill-0, #FFA300)"/>
<path id="Vector_245" d="M143.46 209.183H142.039V219.863H143.46V209.183Z" fill="var(--fill-0, #FFA300)"/>
<path id="Vector_246" d="M143.46 218.44H77.0209V219.863H143.46V218.44Z" fill="var(--fill-0, #FFA300)"/>
<path id="Vector_247" d="M142.039 219.863H75.5997V230.543H142.039V219.863Z" fill="var(--fill-0, #FFA300)"/>
<path id="Vector_248" opacity="0.6" d="M142.039 219.863H75.5997V230.543H142.039V219.863Z" fill="var(--fill-0, white)"/>
<path id="Vector_249" opacity="0.2" d="M79.9496 219.863L142.039 230.543H75.5997V219.863H79.9496Z" fill="var(--fill-0, #FFA300)"/>
<path id="Vector_250" d="M77.0208 219.863H75.5997V230.543H77.0208V219.863Z" fill="var(--fill-0, #FFA300)"/>
<path id="Vector_251" d="M82.9322 219.863H81.5111V230.543H82.9322V219.863Z" fill="var(--fill-0, #FFA300)"/>
<path id="Vector_252" d="M88.843 219.863H87.4219V230.543H88.843V219.863Z" fill="var(--fill-0, #FFA300)"/>
<path id="Vector_253" d="M94.7532 219.863H93.3321V230.543H94.7532V219.863Z" fill="var(--fill-0, #FFA300)"/>
<path id="Vector_254" d="M100.664 219.863H99.243V230.543H100.664V219.863Z" fill="var(--fill-0, #FFA300)"/>
<path id="Vector_255" d="M106.574 219.863H105.153V230.543H106.574V219.863Z" fill="var(--fill-0, #FFA300)"/>
<path id="Vector_256" d="M112.486 219.863H111.064V230.543H112.486V219.863Z" fill="var(--fill-0, #FFA300)"/>
<path id="Vector_257" d="M118.396 219.863H116.975V230.543H118.396V219.863Z" fill="var(--fill-0, #FFA300)"/>
<path id="Vector_258" d="M124.306 219.863H122.885V230.543H124.306V219.863Z" fill="var(--fill-0, #FFA300)"/>
<path id="Vector_259" d="M130.217 219.863H128.796V230.543H130.217V219.863Z" fill="var(--fill-0, #FFA300)"/>
<path id="Vector_260" d="M136.128 219.863H134.707V230.543H136.128V219.863Z" fill="var(--fill-0, #FFA300)"/>
<path id="Vector_261" d="M142.039 219.863H140.618V230.543H142.039V219.863Z" fill="var(--fill-0, #FFA300)"/>
<path id="Vector_262" d="M142.039 229.12H75.5997V230.543H142.039V229.12Z" fill="var(--fill-0, #FFA300)"/>
<path id="Vector_263" d="M143.46 230.543H77.0209V241.223H143.46V230.543Z" fill="var(--fill-0, #FFA300)"/>
<path id="Vector_264" opacity="0.6" d="M143.46 230.543H77.0209V241.223H143.46V230.543Z" fill="var(--fill-0, white)"/>
<path id="Vector_265" opacity="0.2" d="M81.3707 230.543L143.46 241.223H77.0209V230.543H81.3707Z" fill="var(--fill-0, #FFA300)"/>
<path id="Vector_266" d="M78.442 230.543H77.0209V241.223H78.442V230.543Z" fill="var(--fill-0, #FFA300)"/>
<path id="Vector_267" d="M84.3533 230.543H82.9322V241.223H84.3533V230.543Z" fill="var(--fill-0, #FFA300)"/>
<path id="Vector_268" d="M90.2641 230.543H88.843V241.223H90.2641V230.543Z" fill="var(--fill-0, #FFA300)"/>
<path id="Vector_269" d="M96.1744 230.543H94.7533V241.223H96.1744V230.543Z" fill="var(--fill-0, #FFA300)"/>
<path id="Vector_270" d="M102.085 230.543H100.664V241.223H102.085V230.543Z" fill="var(--fill-0, #FFA300)"/>
<path id="Vector_271" d="M107.996 230.543H106.574V241.223H107.996V230.543Z" fill="var(--fill-0, #FFA300)"/>
<path id="Vector_272" d="M113.907 230.543H112.486V241.223H113.907V230.543Z" fill="var(--fill-0, #FFA300)"/>
<path id="Vector_273" d="M119.818 230.543H118.396V241.223H119.818V230.543Z" fill="var(--fill-0, #FFA300)"/>
<path id="Vector_274" d="M125.727 230.543H124.306V241.223H125.727V230.543Z" fill="var(--fill-0, #FFA300)"/>
<path id="Vector_275" d="M131.638 230.543H130.217V241.223H131.638V230.543Z" fill="var(--fill-0, #FFA300)"/>
<path id="Vector_276" d="M137.549 230.543H136.128V241.223H137.549V230.543Z" fill="var(--fill-0, #FFA300)"/>
<path id="Vector_277" d="M143.46 230.543H142.039V241.223H143.46V230.543Z" fill="var(--fill-0, #FFA300)"/>
<path id="Vector_278" d="M143.46 239.799H77.0209V241.223H143.46V239.799Z" fill="var(--fill-0, #FFA300)"/>
<path id="Vector_279" d="M142.039 241.223H75.5997V251.903H142.039V241.223Z" fill="var(--fill-0, #FFA300)"/>
<path id="Vector_280" opacity="0.6" d="M142.039 241.223H75.5997V251.903H142.039V241.223Z" fill="var(--fill-0, white)"/>
<path id="Vector_281" opacity="0.2" d="M79.9496 241.223L142.039 251.903H75.5997V241.223H79.9496Z" fill="var(--fill-0, #FFA300)"/>
<path id="Vector_282" d="M77.0208 241.223H75.5997V251.903H77.0208V241.223Z" fill="var(--fill-0, #FFA300)"/>
<path id="Vector_283" d="M82.9322 241.223H81.5111V251.903H82.9322V241.223Z" fill="var(--fill-0, #FFA300)"/>
<path id="Vector_284" d="M88.843 241.223H87.4219V251.903H88.843V241.223Z" fill="var(--fill-0, #FFA300)"/>
<path id="Vector_285" d="M94.7532 241.223H93.3321V251.903H94.7532V241.223Z" fill="var(--fill-0, #FFA300)"/>
<path id="Vector_286" d="M100.664 241.223H99.243V251.903H100.664V241.223Z" fill="var(--fill-0, #FFA300)"/>
<path id="Vector_287" d="M106.574 241.223H105.153V251.903H106.574V241.223Z" fill="var(--fill-0, #FFA300)"/>
<path id="Vector_288" d="M112.486 241.223H111.064V251.903H112.486V241.223Z" fill="var(--fill-0, #FFA300)"/>
<path id="Vector_289" d="M118.396 241.223H116.975V251.903H118.396V241.223Z" fill="var(--fill-0, #FFA300)"/>
<path id="Vector_290" d="M124.306 241.223H122.885V251.903H124.306V241.223Z" fill="var(--fill-0, #FFA300)"/>
<path id="Vector_291" d="M130.217 241.223H128.796V251.903H130.217V241.223Z" fill="var(--fill-0, #FFA300)"/>
<path id="Vector_292" d="M136.128 241.223H134.707V251.903H136.128V241.223Z" fill="var(--fill-0, #FFA300)"/>
<path id="Vector_293" d="M142.039 241.223H140.618V251.903H142.039V241.223Z" fill="var(--fill-0, #FFA300)"/>
<path id="Vector_294" d="M142.039 250.479H75.5997V251.903H142.039V250.479Z" fill="var(--fill-0, #FFA300)"/>
<path id="Vector_295" d="M144.881 251.903H78.442V262.584H144.881V251.903Z" fill="var(--fill-0, #FFA300)"/>
<path id="Vector_296" opacity="0.6" d="M144.881 251.903H78.442V262.584H144.881V251.903Z" fill="var(--fill-0, white)"/>
<path id="Vector_297" opacity="0.2" d="M82.7918 251.903L144.881 262.584H78.442V251.903H82.7918Z" fill="var(--fill-0, #FFA300)"/>
<path id="Vector_298" d="M79.8631 251.903H78.442V262.584H79.8631V251.903Z" fill="var(--fill-0, #FFA300)"/>
<path id="Vector_299" d="M85.7744 251.903H84.3533V262.584H85.7744V251.903Z" fill="var(--fill-0, #FFA300)"/>
<path id="Vector_300" d="M91.6852 251.903H90.2642V262.584H91.6852V251.903Z" fill="var(--fill-0, #FFA300)"/>
<path id="Vector_301" d="M97.5956 251.903H96.1745V262.584H97.5956V251.903Z" fill="var(--fill-0, #FFA300)"/>
<path id="Vector_302" d="M103.506 251.903H102.085V262.584H103.506V251.903Z" fill="var(--fill-0, #FFA300)"/>
<path id="Vector_303" d="M109.417 251.903H107.996V262.584H109.417V251.903Z" fill="var(--fill-0, #FFA300)"/>
<path id="Vector_304" d="M115.328 251.903H113.907V262.584H115.328V251.903Z" fill="var(--fill-0, #FFA300)"/>
<path id="Vector_305" d="M121.239 251.903H119.818V262.584H121.239V251.903Z" fill="var(--fill-0, #FFA300)"/>
<path id="Vector_306" d="M127.148 251.903H125.727V262.584H127.148V251.903Z" fill="var(--fill-0, #FFA300)"/>
<path id="Vector_307" d="M133.06 251.903H131.638V262.584H133.06V251.903Z" fill="var(--fill-0, #FFA300)"/>
<path id="Vector_308" d="M138.97 251.903H137.549V262.584H138.97V251.903Z" fill="var(--fill-0, #FFA300)"/>
<path id="Vector_309" d="M144.881 251.903H143.46V262.584H144.881V251.903Z" fill="var(--fill-0, #FFA300)"/>
<path id="Vector_310" d="M144.881 261.159H78.442V262.584H144.881V261.159Z" fill="var(--fill-0, #FFA300)"/>
<path id="Vector_311" d="M143.46 262.584H77.0209V273.264H143.46V262.584Z" fill="var(--fill-0, #FFA300)"/>
<path id="Vector_312" opacity="0.6" d="M143.46 262.584H77.0209V273.264H143.46V262.584Z" fill="var(--fill-0, white)"/>
<path id="Vector_313" opacity="0.2" d="M81.3707 262.584L143.46 273.263H77.0209V262.584H81.3707Z" fill="var(--fill-0, #FFA300)"/>
<path id="Vector_314" d="M78.442 262.584H77.0209V273.264H78.442V262.584Z" fill="var(--fill-0, #FFA300)"/>
<path id="Vector_315" d="M84.3533 262.584H82.9322V273.264H84.3533V262.584Z" fill="var(--fill-0, #FFA300)"/>
<path id="Vector_316" d="M90.2641 262.584H88.843V273.264H90.2641V262.584Z" fill="var(--fill-0, #FFA300)"/>
<path id="Vector_317" d="M96.1744 262.584H94.7533V273.264H96.1744V262.584Z" fill="var(--fill-0, #FFA300)"/>
<path id="Vector_318" d="M102.085 262.584H100.664V273.264H102.085V262.584Z" fill="var(--fill-0, #FFA300)"/>
<path id="Vector_319" d="M107.996 262.584H106.574V273.264H107.996V262.584Z" fill="var(--fill-0, #FFA300)"/>
<path id="Vector_320" d="M113.907 262.584H112.486V273.264H113.907V262.584Z" fill="var(--fill-0, #FFA300)"/>
<path id="Vector_321" d="M119.818 262.584H118.396V273.264H119.818V262.584Z" fill="var(--fill-0, #FFA300)"/>
<path id="Vector_322" d="M125.727 262.584H124.306V273.264H125.727V262.584Z" fill="var(--fill-0, #FFA300)"/>
<path id="Vector_323" d="M131.638 262.584H130.217V273.264H131.638V262.584Z" fill="var(--fill-0, #FFA300)"/>
<path id="Vector_324" d="M137.549 262.584H136.128V273.264H137.549V262.584Z" fill="var(--fill-0, #FFA300)"/>
<path id="Vector_325" d="M143.46 262.584H142.039V273.264H143.46V262.584Z" fill="var(--fill-0, #FFA300)"/>
<path id="Vector_326" d="M143.46 271.839H77.0209V273.264H143.46V271.839Z" fill="var(--fill-0, #FFA300)"/>
<path id="Vector_327" d="M242.442 268.696C258.728 261.492 266.104 242.423 258.914 226.104C251.726 209.785 232.695 202.394 216.409 209.597C200.123 216.801 192.748 235.87 199.937 252.19C207.125 268.509 226.156 275.899 242.442 268.696Z" fill="var(--fill-0, #FFA300)"/>
<path id="Vector_328" d="M244.004 272.242C260.29 265.038 267.666 245.969 260.476 229.65C253.288 213.33 234.257 205.94 217.971 213.143C201.685 220.347 194.309 239.416 201.499 255.735C208.688 272.056 227.718 279.445 244.004 272.242Z" fill="var(--fill-0, #FFA300)"/>
<path id="Vector_329" opacity="0.4" d="M244.004 272.242C260.29 265.038 267.666 245.969 260.476 229.65C253.288 213.33 234.257 205.94 217.971 213.143C201.685 220.347 194.309 239.416 201.499 255.735C208.688 272.056 227.718 279.445 244.004 272.242Z" fill="var(--fill-0, white)"/>
<path id="Vector_330" d="M208.926 252.459C209.285 253.286 209.698 254.086 210.165 254.859C216.252 265.374 229.362 269.845 240.736 264.794C252.909 259.413 258.445 245.145 253.047 232.92C252.249 231.125 251.257 229.442 250.1 227.952C243.518 219.314 231.621 216.003 221.237 220.583C209.064 225.965 203.528 240.233 208.926 252.459Z" fill="var(--fill-0, #FFA300)"/>
<path id="Vector_331" opacity="0.3" d="M208.926 252.459C209.285 253.286 209.698 254.086 210.165 254.859C216.804 263.387 228.59 266.671 238.918 262.09C251.12 256.708 256.629 242.441 251.257 230.215C250.9 229.442 250.541 228.67 250.1 227.952C243.518 219.314 231.621 216.003 221.237 220.583C209.064 225.965 203.529 240.233 208.926 252.459Z" fill="var(--fill-0, white)"/>
<g id="Group_3" opacity="0.4">
<path id="Vector_332" d="M229.835 245.051L223.447 248.06C224.556 249.987 226.072 251.731 227.914 253.028L224.001 256.484C222.041 255.013 220.195 252.822 218.771 250.279L214.739 252.175L213.12 248.5L217.11 246.613C214.835 240.248 216.625 235.359 221.879 234.056C226.662 232.871 229.776 236.26 232.388 239.403L238.515 236.498C237.12 234.031 235.048 231.812 232.648 230.246L236.464 226.57C238.791 228.072 241.336 230.865 243.228 234.269L247.221 232.384L248.84 236.059L244.848 237.946C247 244.221 245.217 249.025 239.962 250.327C235.417 251.453 232.392 248.168 229.835 245.051ZM223.673 240.218C222.186 240.626 221.482 242.106 221.97 244.308L227.19 241.832C226.014 240.656 224.899 239.914 223.673 240.218ZM240.031 240.241L235.054 242.574C236.134 243.733 237.219 244.401 238.365 244.119C239.867 243.747 240.47 242.332 240.031 240.241Z" fill="var(--fill-0, white)"/>
</g>
<path id="Vector_333" d="M57.1753 274.436C57.4537 274.402 57.7629 274.305 58.072 274.208C63.8804 272.275 72.7068 263.188 80.2231 250.824C87.7389 238.427 91.7228 226.383 90.7516 220.303V220.271C90.551 219.062 90.168 218.134 89.5706 217.457C89.5391 217.395 89.5075 217.365 89.4764 217.334C89.2562 217.088 89.0364 216.873 88.7557 216.721C88.4434 216.539 88.1317 216.417 87.8206 216.328C86.9494 216.12 85.9272 216.194 84.7839 216.581C83.7021 216.905 82.4997 217.51 81.2372 218.333C80.406 218.87 79.5452 219.502 78.6544 220.227C78.1627 220.638 77.6407 221.078 77.1192 221.552C72.4536 225.74 67.2257 232.235 62.4784 240.03C57.7619 247.793 54.4393 255.385 52.867 261.496C52.689 262.181 52.542 262.867 52.3947 263.522C52.1299 264.767 51.9571 265.889 51.8763 266.947C51.7386 268.44 51.7854 269.745 52.0151 270.83C52.2469 272.07 52.6922 273.028 53.3821 273.642C53.5391 273.828 53.7269 273.981 53.9456 274.103C54.1333 274.223 54.3512 274.314 54.5693 274.374C55.3168 274.645 56.1853 274.666 57.1753 274.436Z" fill="var(--fill-0, #FFA300)"/>
<path id="Vector_334" d="M57.1753 274.436L57.6623 273.654L73.9112 246.857C74.3368 246.137 74.7628 245.449 75.1579 244.76L90.3421 219.748V219.717C90.2072 218.817 89.9502 218.074 89.5708 217.457C89.444 217.21 89.2556 216.995 89.0668 216.779L87.4111 215.774L82.4439 212.755L80.1918 216.449L79.796 217.106L78.2447 219.673L77.119 221.552L52.867 261.496L51.9845 262.967L50.2809 265.784L49.8851 266.441L47.6334 270.135L53.3819 273.642L54.5693 274.374C55.3168 274.645 56.1853 274.666 57.1753 274.436Z" fill="var(--fill-0, #FFA300)"/>
<path id="Vector_335" d="M82.4347 212.761C87.3345 215.744 83.5191 231.01 73.9105 246.858C64.3025 262.706 52.5418 273.134 47.6413 270.151C42.7415 267.169 46.5576 251.903 56.1655 236.056C65.7737 220.208 77.5346 209.778 82.4347 212.761Z" fill="var(--fill-0, #FFA300)"/>
<path id="Vector_336" opacity="0.4" d="M82.4347 212.761C87.3345 215.744 83.5191 231.01 73.9105 246.858C64.3025 262.706 52.5418 273.134 47.6413 270.151C42.7415 267.169 46.5576 251.903 56.1655 236.056C65.7737 220.208 77.5346 209.778 82.4347 212.761Z" fill="var(--fill-0, white)"/>
<path id="Vector_337" d="M79.8815 216.203C80.1685 216.377 80.4484 216.688 80.5737 216.999C76.498 217.004 67.9527 226.06 60.3516 238.598C52.7286 251.17 48.647 262.943 50.5428 266.536C50.2092 266.566 49.8042 266.46 49.5172 266.287C46.1989 264.267 50.245 251.393 58.6362 237.553C67.0053 223.749 76.5632 214.182 79.8815 216.203Z" fill="var(--fill-0, #FFA300)"/>
<path id="Vector_338" d="M79.8815 216.203C80.1685 216.377 80.4484 216.688 80.5737 216.999C76.498 217.004 67.9527 226.06 60.3516 238.598C52.7286 251.17 48.647 262.943 50.5428 266.536C50.2092 266.566 49.8042 266.46 49.5172 266.287C46.1989 264.267 50.245 251.393 58.6362 237.553C67.0053 223.749 76.5632 214.182 79.8815 216.203Z" fill="var(--fill-0, #FFA300)"/>
<g id="Group_4" opacity="0.3">
<path id="Vector_339" opacity="0.4" d="M80.5734 216.999C82.4471 220.625 78.365 232.399 70.7637 244.936C63.1414 257.509 54.5963 266.565 50.5424 266.536C48.6466 262.943 52.7283 251.17 60.3513 238.596C67.9524 226.059 76.4978 217.003 80.5734 216.999Z" fill="var(--fill-0, white)"/>
</g>
<path id="Vector_340" d="M190.1 199.789C186.621 200.179 182.397 200.114 178.603 199.187C176.017 198.555 174.077 196.743 173.464 194.605L169.756 181.668C171.236 178.166 187.75 174.934 198.327 181.664C198.327 181.664 197.22 190.208 196.307 193.728C195.292 197.646 193.803 199.375 190.1 199.789Z" fill="var(--fill-0, #007681)"/>
<path id="Vector_341" opacity="0.2" d="M190.1 199.789C186.621 200.179 182.397 200.114 178.603 199.187C176.017 198.555 174.077 196.743 173.464 194.605L169.756 181.668C171.236 178.166 187.75 174.934 198.327 181.664C198.327 181.664 197.22 190.208 196.307 193.728C195.292 197.646 193.803 199.375 190.1 199.789Z" fill="var(--fill-0, black)"/>
<path id="Vector_342" d="M119.318 197.623C116.453 197.749 113.044 197.369 110.095 196.168C108.085 195.35 106.748 193.411 106.527 191.248L104.879 175.138C107.564 172.818 124.2 172.725 128.033 180.697C128.033 180.697 127.039 184.337 125.118 192.083C123.8 197.389 122.365 197.489 119.318 197.623Z" fill="var(--fill-0, #007681)"/>
<path id="Vector_343" opacity="0.2" d="M119.318 197.623C116.453 197.749 113.044 197.369 110.095 196.168C108.085 195.35 106.748 193.411 106.527 191.248L104.879 175.138C107.564 172.818 124.2 172.725 128.033 180.697C128.033 180.697 127.039 184.337 125.118 192.083C123.8 197.389 122.365 197.489 119.318 197.623Z" fill="var(--fill-0, black)"/>
<path id="Vector_344" d="M115.02 73.1357C109.074 74.5975 103.853 77.6714 100.619 82.7293C98.7557 78.5133 97.4081 74.1016 96.6163 69.6284C96.2436 67.5233 96.0473 65.1799 97.2931 63.5431C98.8216 61.5348 102.03 61.4528 104.433 62.6484C106.836 63.844 108.62 65.9998 110.319 68.086C111.622 69.6865 113.356 71.9083 115.02 73.1357Z" fill="var(--fill-0, #007681)"/>
<path id="Vector_345" opacity="0.4" d="M115.02 73.1357C109.074 74.5975 103.853 77.6714 100.619 82.7293C98.7557 78.5133 97.4081 74.1016 96.6163 69.6284C96.2436 67.5233 96.0473 65.1799 97.2931 63.5431C98.8216 61.5348 102.03 61.4528 104.433 62.6484C106.836 63.844 108.62 65.9998 110.319 68.086C111.622 69.6865 113.356 71.9083 115.02 73.1357Z" fill="var(--fill-0, white)"/>
<path id="Vector_346" d="M98.4966 62.5107C98.4966 62.5107 104.301 62.0979 109.808 70.0679C109.808 70.0679 111.76 67.0521 114.115 66.3327C114.115 66.3327 104.123 58.4372 98.4966 62.5107Z" fill="var(--fill-0, #007681)"/>
<path id="Vector_347" opacity="0.3" d="M98.4966 62.5107C98.4966 62.5107 104.301 62.0979 109.808 70.0679C109.808 70.0679 111.76 67.0521 114.115 66.3327C114.115 66.3327 104.123 58.4372 98.4966 62.5107Z" fill="var(--fill-0, white)"/>
<path id="Vector_348" d="M138.995 59.9726C155.148 59.9726 165.011 59.9726 181.164 59.9726C216.557 59.9726 245.246 88.7221 245.246 124.186C245.246 159.65 216.557 188.4 181.164 188.4C165.011 188.4 155.148 188.4 138.995 188.4C103.603 188.4 74.9116 159.65 74.9116 124.186C74.9116 88.7219 103.603 59.9726 138.995 59.9726Z" fill="var(--fill-0, #007681)"/>
<path id="Vector_349" opacity="0.2" d="M95.8831 119.286C99.6559 119.286 101.96 119.286 105.732 119.286C113.999 119.286 120.7 126.002 120.7 134.285C120.7 142.568 113.999 149.282 105.732 149.282C101.96 149.282 99.6559 149.282 95.8831 149.282C87.6167 149.282 80.9154 142.568 80.9154 134.285C80.9154 126.002 87.6167 119.286 95.8831 119.286Z" fill="var(--fill-0, black)"/>
<path id="Vector_350" opacity="0.3" d="M99.8224 134.285C99.8224 137.429 101.413 139.977 103.374 139.977C105.336 139.977 106.926 137.429 106.926 134.285C106.926 131.14 105.336 128.591 103.374 128.591C101.413 128.591 99.8224 131.14 99.8224 134.285Z" fill="var(--fill-0, black)"/>
<path id="Vector_351" opacity="0.3" d="M86.1334 134.285C86.1334 137.429 87.7235 139.977 89.6852 139.977C91.6467 139.977 93.2368 137.429 93.2368 134.285C93.2368 131.14 91.6467 128.591 89.6852 128.591C87.7235 128.591 86.1334 131.14 86.1334 134.285Z" fill="var(--fill-0, black)"/>
<path id="Vector_352" opacity="0.4" d="M119.951 102.275C119.394 104.901 120.05 107.266 122.67 107.824C125.292 108.382 126.851 106.489 127.407 103.863C127.965 101.237 127.309 98.8726 124.688 98.3144C122.067 97.7561 120.508 99.649 119.951 102.275Z" fill="var(--fill-0, black)"/>
<path id="Vector_353" opacity="0.4" d="M85.514 103.863C86.071 106.489 87.6303 108.382 90.2508 107.824C92.8716 107.266 93.5276 104.901 92.9705 102.275C92.4134 99.649 90.8541 97.7561 88.2337 98.3144C85.6132 98.8726 84.9569 101.237 85.514 103.863Z" fill="var(--fill-0, black)"/>
<path id="Vector_354" opacity="0.4" d="M107.06 154.475C107.882 154.57 118.144 153.216 122.242 150.088C126.341 146.959 122.939 153.876 113.31 155.053C109.392 155.532 107.06 154.475 107.06 154.475Z" fill="var(--fill-0, black)"/>
<path id="Vector_355" d="M148.356 56.312C148.356 56.312 155.278 56.9304 157.686 65.3282C160.095 73.7258 149.795 85.5523 149.795 85.5523C149.795 85.5523 157.616 74.6219 148.356 56.312Z" fill="var(--fill-0, #007681)"/>
<path id="Vector_356" opacity="0.3" d="M148.356 56.312C148.356 56.312 155.278 56.9304 157.686 65.3282C160.095 73.7258 149.795 85.5523 149.795 85.5523C149.795 85.5523 157.616 74.6219 148.356 56.312Z" fill="var(--fill-0, white)"/>
<path id="Vector_357" d="M149.42 83.0587C148.162 75.3976 143.128 68.5774 136.813 65.9761C138.44 62.0527 140.679 56.6228 144.36 55.7642C147.266 55.086 150.406 56.9945 152.216 59.8677C154.026 62.7407 154.669 66.3963 154.645 69.8948C154.607 75.6257 152.868 81.239 149.795 85.5525C149.955 85.2534 149.26 83.3577 149.42 83.0587Z" fill="var(--fill-0, #007681)"/>
<path id="Vector_358" opacity="0.5" d="M149.42 83.0587C148.162 75.3976 143.128 68.5774 136.813 65.9761C138.44 62.0527 140.679 56.6228 144.36 55.7642C147.266 55.086 150.406 56.9945 152.216 59.8677C154.026 62.7407 154.669 66.3963 154.645 69.8948C154.607 75.6257 152.868 81.239 149.795 85.5525C149.955 85.2534 149.26 83.3577 149.42 83.0587Z" fill="var(--fill-0, white)"/>
<path id="Vector_359" opacity="0.3" d="M202.903 65.7783C206.173 66.8357 209.229 68.4328 212.042 70.4111C199.461 66.6196 180.234 63.2233 165.58 66.3808C165.098 66.4847 164.628 66.3686 164.22 66.0598C164.197 66.0425 164.175 66.0256 164.151 66.0084C162.805 64.9969 162.848 62.6415 163.781 61.2978C176.205 60.7136 189.762 61.5293 202.903 65.7783Z" fill="var(--fill-0, black)"/>
<path id="Vector_360" opacity="0.1" d="M132.491 180.896C149.464 180.896 159.829 180.896 176.801 180.896C213.991 180.896 244.138 150.686 244.138 113.421C244.138 112.993 244.113 112.572 244.106 112.146C244.845 116.048 245.246 120.069 245.246 124.187C245.246 159.65 216.557 188.4 181.164 188.4C165.011 188.4 155.148 188.4 138.995 188.4C119.632 188.4 102.289 179.783 90.5385 166.181C102.048 175.382 116.622 180.896 132.491 180.896Z" fill="var(--fill-0, black)"/>
<path id="Vector_361" d="M220.88 198.879C216.61 199.775 211.362 200.205 206.542 199.523C203.258 199.057 200.632 197.066 199.614 194.514L193.548 153.03C196.851 149.532 207.891 146.444 217.585 148.126C222.979 149.062 230.882 151.291 230.525 155.622C230.178 159.832 229.551 170.693 227.847 190.685C227.273 197.419 225.423 197.924 220.88 198.879Z" fill="var(--fill-0, #007681)"/>
<path id="Vector_362" d="M147.767 199.48C143.891 199.983 139.16 200.057 134.868 199.254C131.942 198.708 129.681 196.96 128.889 194.844L123.679 165.391C126.812 162.734 136.871 160.811 145.489 162.676C150.286 163.714 157.272 165.928 156.744 169.413C156.229 172.8 154.595 189.6 154.414 193.216C154.141 198.677 151.89 198.944 147.766 199.48H147.767Z" fill="var(--fill-0, #007681)"/>
<path id="Vector_363" d="M167.786 32.8753C162.979 20.4419 169.139 6.45629 181.547 1.63791C193.955 -3.18046 207.912 2.99258 212.721 15.426C217.529 27.8594 211.369 41.8448 198.961 46.6633C186.553 51.4814 172.595 45.3087 167.786 32.8753Z" fill="var(--fill-0, #FFA300)"/>
<path id="Vector_364" d="M165.091 33.9221C160.282 21.4889 166.443 7.5034 178.852 2.68502C191.259 -2.13356 205.216 4.03991 210.025 16.4731C214.834 28.9065 208.673 42.8918 196.264 47.7104C183.856 52.5288 169.9 46.3557 165.091 33.9221Z" fill="var(--fill-0, #FFA300)"/>
<path id="Vector_365" opacity="0.4" d="M165.091 33.9221C160.282 21.4889 166.443 7.5034 178.852 2.68502C191.259 -2.13356 205.216 4.03991 210.025 16.4731C214.834 28.9065 208.673 42.8918 196.264 47.7104C183.856 52.5288 169.9 46.3557 165.091 33.9221Z" fill="var(--fill-0, white)"/>
<path id="Vector_366" d="M194.068 42.0441C193.442 42.2919 192.801 42.4963 192.146 42.6568C183.382 44.9908 174.094 40.4102 170.746 31.7165C167.151 22.4246 171.751 11.9511 181.053 8.34811C182.421 7.82293 183.834 7.45852 185.231 7.28339C193.267 6.20387 201.302 10.7548 204.374 18.6759C207.97 27.9675 203.369 38.4411 194.068 42.0441Z" fill="var(--fill-0, #FFA300)"/>
<path id="Vector_367" opacity="0.3" d="M194.068 42.0441C193.441 42.2919 192.801 42.4963 192.146 42.6568C184.139 43.6485 176.177 39.1414 173.133 31.2499C169.523 21.9432 174.138 11.4843 183.426 7.86715C184.023 7.64802 184.619 7.42911 185.231 7.28339C193.267 6.20387 201.302 10.7548 204.374 18.6759C207.97 27.9675 203.369 38.4411 194.068 42.0441Z" fill="var(--fill-0, white)"/>
<g id="Group_5" opacity="0.4">
<path id="Vector_368" d="M178.787 24.4801C176.697 21.0087 178.288 17.5248 182.736 15.3477L181.621 12.2366L184.416 11.1512L185.531 14.2624C188.327 13.4657 191.145 13.3365 193.169 13.7761L193.246 17.7398C191.151 17.2969 188.886 17.3716 186.847 17.9375L188.554 22.7176C191.593 22.4395 195.025 22.2976 196.928 25.4577C199.019 28.9289 197.386 32.4606 192.825 34.6205L193.939 37.7306L191.144 38.8159L190.014 35.6781C187.92 36.2675 185.789 36.4491 183.976 36.1877L183.731 32.2887C185.389 32.5785 187.11 32.4591 188.713 32.0288L186.924 27.055C183.928 27.3482 180.596 27.4826 178.787 24.4801ZM190.019 26.7549L191.473 30.8283C192.892 29.9224 193.299 28.7671 192.729 27.7635C192.242 26.954 191.261 26.7562 190.019 26.7549ZM182.906 22.0442C183.362 22.8008 184.289 23.0217 185.471 22.981L184.071 19.1123C182.736 19.9854 182.308 21.0514 182.906 22.0442Z" fill="var(--fill-0, white)"/>
</g>
</g>
</svg>
