<svg preserveAspectRatio="none" width="100%" height="100%" overflow="visible" style="display: block;" viewBox="0 0 72 72.0483" fill="none" xmlns="http://www.w3.org/2000/svg">
<g id="SVG">
<path id="Vector" d="M68.4 11.5973V22.7597H3.6V11.5973C3.6 9.92881 4.53938 8.47911 5.91946 7.75138C6.52542 7.42955 7.21546 7.24834 7.94899 7.24834H64.051C65.7195 7.24834 67.1692 8.18772 67.897 9.56782C68.2188 10.1738 68.4 10.8638 68.4 11.5973Z" fill="var(--fill-0, #FF7500)"/>
<path id="Vector_2" d="M5.91946 7.75107V22.7595H3.6V11.597C3.6 9.92845 4.53938 8.4788 5.91946 7.75107Z" fill="var(--fill-0, #FF7500)"/>
<path id="Vector_3" d="M15.4878 31.4319H22.9463C23.3466 31.4319 23.6712 31.7564 23.6712 32.1567V39.6152C23.6712 40.0154 23.3466 40.3401 22.9463 40.3401H15.4878C15.0876 40.3401 14.763 40.0154 14.763 39.6152V32.1567C14.763 31.7564 15.0876 31.4319 15.4878 31.4319Z" fill="var(--fill-0, #E6E6E6)"/>
<path id="Vector_4" d="M15.4878 42.5145H22.9463C23.3466 42.5145 23.6712 42.839 23.6712 43.2392V50.6993C23.6712 51.0995 23.3466 51.4241 22.9463 51.4241H15.4878C15.0876 51.4241 14.763 51.0995 14.763 50.6993V43.2392C14.763 42.839 15.0876 42.5145 15.4878 42.5145Z" fill="var(--fill-0, #E6E6E6)"/>
<path id="Vector_5" d="M15.4878 53.5983H22.9463C23.3466 53.5983 23.6712 53.9229 23.6712 54.3232V61.7817C23.6712 62.1819 23.3466 62.5065 22.9463 62.5065H15.4878C15.0876 62.5065 14.763 62.1819 14.763 61.7817V54.3232C14.763 53.9229 15.0876 53.5983 15.4878 53.5983Z" fill="var(--fill-0, #E6E6E6)"/>
<path id="Vector_6" d="M26.57 31.4319H34.1879C34.5882 31.4319 34.9128 31.7564 34.9128 32.1567V39.6152C34.9128 40.0154 34.5882 40.3401 34.1879 40.3401H26.57C26.1697 40.3401 25.8451 40.0154 25.8451 39.6152V32.1567C25.8451 31.7564 26.1697 31.4319 26.57 31.4319Z" fill="var(--fill-0, #E6E6E6)"/>
<path id="Vector_7" d="M26.57 42.5145H34.1879C34.5882 42.5145 34.9128 42.839 34.9128 43.2392V50.6993C34.9128 51.0995 34.5882 51.4241 34.1879 51.4241H26.57C26.1697 51.4241 25.8451 51.0995 25.8451 50.6993V43.2392C25.8451 42.839 26.1697 42.5145 26.57 42.5145Z" fill="var(--fill-0, #E6E6E6)"/>
<path id="Vector_8" d="M26.57 53.5983H34.1879C34.5882 53.5983 34.9128 53.9229 34.9128 54.3232V61.7817C34.9128 62.1819 34.5882 62.5065 34.1879 62.5065H26.57C26.1697 62.5065 25.8451 62.1819 25.8451 61.7817V54.3232C25.8451 53.9229 26.1697 53.5983 26.57 53.5983Z" fill="var(--fill-0, #E6E6E6)"/>
<path id="Vector_9" d="M37.8121 31.4319H45.43C45.8302 31.4319 46.1549 31.7564 46.1549 32.1567V39.6152C46.1549 40.0154 45.8302 40.3401 45.43 40.3401H37.8121C37.4118 40.3401 37.0872 40.0154 37.0872 39.6152V32.1567C37.0872 31.7564 37.4118 31.4319 37.8121 31.4319Z" fill="var(--fill-0, #E6E6E6)"/>
<path id="Vector_10" d="M37.8121 42.5145H45.43C45.8302 42.5145 46.1549 42.839 46.1549 43.2392V50.6993C46.1549 51.0995 45.8302 51.4241 45.43 51.4241H37.8121C37.4118 51.4241 37.0872 51.0995 37.0872 50.6993V43.2392C37.0872 42.839 37.4118 42.5145 37.8121 42.5145Z" fill="var(--fill-0, #E6E6E6)"/>
<path id="Vector_11" d="M37.8121 53.5983H45.43C45.8302 53.5983 46.1549 53.9229 46.1549 54.3232V61.7817C46.1549 62.1819 45.8302 62.5065 45.43 62.5065H37.8121C37.4118 62.5065 37.0872 62.1819 37.0872 61.7817V54.3232C37.0872 53.9229 37.4118 53.5983 37.8121 53.5983Z" fill="var(--fill-0, #E6E6E6)"/>
<path id="Vector_12" d="M57.2375 32.1567V39.6152C57.2375 40.0154 56.9129 40.3401 56.5126 40.3401H49.0541C48.6539 40.3401 48.3293 40.0154 48.3293 39.6152V32.1567C48.3293 31.7564 48.6539 31.4319 49.0541 31.4319H56.5126C56.9129 31.4319 57.2375 31.7564 57.2375 32.1567Z" fill="var(--fill-0, #E6E6E6)"/>
<path id="Vector_13" d="M49.0541 42.5145H56.5126C56.9129 42.5145 57.2375 42.839 57.2375 43.2392V50.6993C57.2375 51.0995 56.9129 51.4241 56.5126 51.4241H49.0541C48.6539 51.4241 48.3293 51.0995 48.3293 50.6993V43.2392C48.3293 42.839 48.6539 42.5145 49.0541 42.5145Z" fill="var(--fill-0, #E6E6E6)"/>
<path id="Vector_14" d="M49.0541 53.5983H56.5126C56.9129 53.5983 57.2375 53.9229 57.2375 54.3232V61.7817C57.2375 62.1819 56.9129 62.5065 56.5126 62.5065H49.0541C48.6539 62.5065 48.3293 62.1819 48.3293 61.7817V54.3232C48.3293 53.9229 48.6539 53.5983 49.0541 53.5983Z" fill="var(--fill-0, #E6E6E6)"/>
<path id="Vector_15" d="M3.6 21.745V67.6994C3.6 70.1015 5.5469 72.0483 7.94899 72.0483H64.051C66.4531 72.0483 68.4 70.1015 68.4 67.6994V21.745H3.6Z" fill="var(--fill-0, #F6F6F6)"/>
<path id="Vector_16" d="M20.9953 1.44967V13.0469C20.9953 13.8472 20.3459 14.4967 19.5457 14.4967H15.1967C14.3964 14.4967 13.747 13.8472 13.747 13.0469V1.44967C13.747 0.64945 14.3964 0 15.1967 0H19.5457C20.3459 0 20.9953 0.64945 20.9953 1.44967Z" fill="var(--fill-0, #005F86)"/>
<path id="Vector_17" d="M14.7621 31.4314H23.6703V40.3396H14.7621V31.4314Z" fill="var(--fill-0, #FFA455)"/>
<path id="Vector_18" d="M48.3284 31.4314H57.2366V40.3396H48.3284V31.4314Z" fill="var(--fill-0, #FFA455)"/>
<path id="Vector_19" d="M25.8442 31.4314H34.9119V40.3396H25.8442V31.4314Z" fill="var(--fill-0, #FFA455)"/>
<path id="Vector_20" d="M14.7621 42.5145H23.6703V51.4241H14.7621V42.5145Z" fill="var(--fill-0, #FFA455)"/>
<path id="Vector_21" d="M48.3284 42.5145H57.2366V51.4241H48.3284V42.5145Z" fill="var(--fill-0, #E5E5E6)"/>
<path id="Vector_22" d="M25.8442 42.5145H34.9119V51.4241H25.8442V42.5145Z" fill="var(--fill-0, #FFA455)"/>
<path id="Vector_23" d="M14.7621 53.5988H23.6703V62.507H14.7621V53.5988Z" fill="var(--fill-0, #E5E5E6)"/>
<path id="Vector_24" d="M48.3284 53.5988H57.2366V62.507H48.3284V53.5988Z" fill="var(--fill-0, #E5E5E6)"/>
<path id="Vector_25" d="M25.8442 53.5988H34.9119V62.507H25.8442V53.5988Z" fill="var(--fill-0, #E5E5E6)"/>
<path id="Vector_26" d="M37.0863 31.4314H46.154V40.3396H37.0863V31.4314Z" fill="var(--fill-0, #FFA455)"/>
<path id="Vector_27" d="M37.0863 42.5145H46.154V51.4241H37.0863V42.5145Z" fill="var(--fill-0, #FFA455)"/>
<path id="Vector_28" d="M37.0863 53.5988H46.154V62.507H37.0863V53.5988Z" fill="var(--fill-0, #E5E5E6)"/>
<path id="Vector_29" d="M58.2521 1.44967V13.0469C58.2521 13.8472 57.6027 14.4967 56.8025 14.4967H52.4534C51.6532 14.4967 51.0038 13.8472 51.0038 13.0469V1.44967C51.0038 0.64945 51.6532 0 52.4534 0H56.8025C57.6027 0 58.2521 0.64945 58.2521 1.44967Z" fill="var(--fill-0, #005F86)"/>
<path id="Vector_30" d="M3.6 21.745V67.6994C3.6 70.1015 5.5469 72.0483 7.94899 72.0483H9.55522C7.52714 71.6801 5.99195 69.9058 5.99195 67.7719V24.8212C6.15576 24.379 6.58051 24.0645 7.07919 24.0645H68.4V21.8175V21.745H3.6Z" fill="var(--fill-0, #E5E5E6)"/>
<path id="Vector_31" d="M17.5161 14.4967H15.1967C14.3964 14.4967 13.747 13.8472 13.747 13.0469V1.44967C13.747 0.64945 14.3964 0 15.1967 0H16.0664V13.0469C16.0664 13.8472 16.7159 14.4967 17.5161 14.4967Z" fill="var(--fill-0, #005F86)"/>
<path id="Vector_32" d="M54.7729 14.4967H52.4534C51.6532 14.4967 51.0038 13.8472 51.0038 13.0469V1.44967C51.0038 0.64945 51.6532 0 52.4534 0H53.3233V13.0469C53.3233 13.8472 53.9727 14.4967 54.7729 14.4967Z" fill="var(--fill-0, #005F86)"/>
</g>
</svg>
