<svg preserveAspectRatio="none" width="100%" height="100%" overflow="visible" style="display: block;" viewBox="0 0 71.1111 52.5634" fill="none" xmlns="http://www.w3.org/2000/svg">
<g id="Group">
<path id="Vector" d="M68.9277 36.3893H10.1225C8.92173 36.3893 7.93924 35.4068 7.93924 34.206V2.18338C7.93924 0.982489 8.92173 0 10.1225 0H68.9277C70.1286 0 71.1111 0.982489 71.1111 2.18338V34.206C71.1111 35.4068 70.1286 36.3893 68.9277 36.3893Z" fill="var(--fill-0, #317F46)"/>
<path id="Vector_2" d="M64.6513 10.9109C62.7852 10.2651 61.3105 8.64853 60.7229 6.60302C60.3855 5.43458 59.4002 4.6376 58.2834 4.6376H44.1096H40.6247H20.7669C19.6502 4.6376 18.6649 5.43458 18.3274 6.60302C17.7398 8.64844 16.2651 10.265 14.399 10.9109C13.3328 11.279 12.6059 12.3591 12.6059 13.585V18.1809V18.2088V22.8048C12.6059 24.0307 13.333 25.1108 14.399 25.4788C16.2651 26.1247 17.7398 27.7412 18.3274 29.7868C18.6647 30.9552 19.6501 31.7522 20.7669 31.7522H40.6245H44.1094H58.2834C59.4 31.7522 60.3854 30.9552 60.7229 29.7868C61.3105 27.7413 62.7852 26.1248 64.6513 25.4788C65.7175 25.1108 66.4444 24.0307 66.4444 22.8048V18.2088V18.1809V13.585C66.4445 12.3591 65.7175 11.279 64.6513 10.9109Z" fill="var(--fill-0, #4CBA68)"/>
<path id="Vector_3" d="M65.1439 44.3963H6.33872C5.13788 44.3963 4.15538 43.4138 4.15538 42.2129V10.1903C4.15538 8.98942 5.13788 8.00694 6.33872 8.00694H65.1439C66.3447 8.00694 67.3271 8.98942 67.3271 10.1903V42.2129C67.3271 43.4138 66.3447 44.3963 65.1439 44.3963Z" fill="var(--fill-0, #368B4C)"/>
<path id="Vector_4" d="M60.8675 18.9174C59.0014 18.2716 57.5266 16.6551 56.939 14.6095C56.6016 13.4411 55.6164 12.6441 54.4995 12.6441H40.3256H36.8407H16.9831C15.8664 12.6441 14.8811 13.4411 14.5436 14.6095C13.956 16.6549 12.4812 18.2715 10.6151 18.9174C9.54902 19.2855 8.82208 20.3656 8.82208 21.5915V26.1875V26.2154V30.8113C8.82208 32.0372 9.54911 33.1173 10.6151 33.4853C12.4812 34.1312 13.9558 35.7477 14.5436 37.7932C14.8809 38.9618 15.8662 39.7587 16.9831 39.7587H36.8407H40.3256H54.4997C55.6164 39.7587 56.6016 38.9618 56.9391 37.7932C57.5269 35.7478 59.0015 34.1313 60.8676 33.4853C61.9337 33.1173 62.6607 32.0372 62.6607 30.8113V26.2154V26.1875V21.5915C62.6607 20.3656 61.9336 19.2855 60.8675 18.9174Z" fill="var(--fill-0, #64C37D)"/>
<path id="Vector_5" d="M60.8675 18.9174C59.0014 18.2716 57.5266 16.6551 56.939 14.6095C56.6016 13.4411 55.6164 12.6441 54.4995 12.6441H40.3256H36.8407H16.9831C15.8664 12.6441 14.8811 13.4411 14.5436 14.6095C13.956 16.6549 12.4812 18.2715 10.6151 18.9174C9.54902 19.2855 8.82208 20.3656 8.82208 21.5915V26.1875V26.2154V30.8113C8.82208 32.0372 9.54911 33.1173 10.6151 33.4853C12.4812 34.1312 13.9558 35.7477 14.5436 37.7932C14.8809 38.9618 15.8662 39.7587 16.9831 39.7587H36.8407H40.3256H54.4997C55.6164 39.7587 56.6016 38.9618 56.9391 37.7932C57.5269 35.7478 59.0015 34.1313 60.8676 33.4853C61.9337 33.1173 62.6607 32.0372 62.6607 30.8113V26.2154V26.1875V21.5915C62.6607 20.3656 61.9336 19.2855 60.8675 18.9174Z" fill="var(--fill-0, #64C37D)"/>
<path id="Vector_6" d="M63.1718 18.3574V50.38C63.1718 51.5809 62.1893 52.5634 60.9885 52.5634H2.18334C0.982501 52.5634 0 51.5809 0 50.38V18.3574C0 17.1565 0.982501 16.174 2.18334 16.174H60.9885C62.1893 16.174 63.1718 17.1565 63.1718 18.3574Z" fill="var(--fill-0, #368B4C)"/>
<path id="Vector_7" d="M63.1716 18.3574V49.5067H5.23975C4.03893 49.5067 3.05642 48.5242 3.05642 47.3234V16.174H60.9882C62.1891 16.174 63.1716 17.1565 63.1716 18.3574Z" fill="var(--fill-0, #3FA45A)"/>
<path id="Vector_8" d="M56.7121 27.085C54.846 26.4391 53.3712 24.8226 52.7836 22.7771C52.4463 21.6086 51.461 20.8116 50.3441 20.8116H36.1703H32.6853H12.8277C11.711 20.8116 10.7257 21.6086 10.3882 22.7771C9.80057 24.8225 8.32583 26.439 6.45972 27.085C5.39361 27.4531 4.66667 28.5332 4.66667 29.759V34.3549V34.3828V38.9788C4.66667 40.2047 5.39375 41.2848 6.45972 41.6529C8.32583 42.2988 9.80039 43.9153 10.3882 45.9608C10.7256 47.1292 11.7108 47.9262 12.8277 47.9262H32.6853H36.1703H50.3443C51.4609 47.9262 52.4463 47.1292 52.7838 45.9608C53.3715 43.9154 54.8461 42.2988 56.7122 41.6529C57.7783 41.2848 58.5053 40.2047 58.5053 38.9788V34.3828V34.3549V29.759C58.5053 28.5332 57.7782 27.4531 56.7121 27.085Z" fill="var(--fill-0, #95D6A6)"/>
<path id="Vector_9" d="M31.5859 42.7833C36.2333 42.7833 40.0007 39.0158 40.0007 34.3684C40.0007 29.7211 36.2333 25.9536 31.5859 25.9536C26.9384 25.9536 23.171 29.7211 23.171 34.3684C23.171 39.0158 26.9384 42.7833 31.5859 42.7833Z" fill="var(--fill-0, #368B4C)"/>
<path id="Vector_10" d="M31.5856 41.2158C32.1886 41.2158 32.6773 40.7271 32.6773 40.1242V39.414C33.8805 38.9726 34.7412 37.8158 34.7412 36.4615C34.7412 34.7363 33.344 33.3311 31.6216 33.318L31.5999 33.3172C31.5932 33.317 31.5862 33.3168 31.5794 33.3167C31.0688 33.3061 30.6375 32.8447 30.6375 32.3098C30.6375 31.7869 31.0626 31.3562 31.5754 31.3498L31.5816 31.3496C32.1064 31.3539 32.5335 31.7847 32.5335 32.3098C32.5335 32.9126 33.0222 33.4014 33.6251 33.4014C34.228 33.4014 34.7168 32.9126 34.7168 32.3098C34.7168 30.9724 33.8686 29.8252 32.677 29.3735V28.613C32.677 28.01 32.1883 27.5212 31.5854 27.5212C30.9824 27.5212 30.4937 28.01 30.4937 28.613V29.3714C29.3056 29.8221 28.4538 30.972 28.4538 32.3095C28.4538 34.0289 29.8293 35.4572 31.5219 35.4992L31.554 35.5004C31.5686 35.501 31.5831 35.5012 31.5973 35.5012C32.1268 35.5012 32.5576 35.932 32.5576 36.4614C32.5576 36.9908 32.1269 37.4215 31.5942 37.4215H31.5732C31.0437 37.4215 30.613 36.9908 30.613 36.4612C30.613 35.8584 30.1243 35.3696 29.5214 35.3696C28.9184 35.3696 28.4297 35.8584 28.4297 36.4612C28.4297 37.8148 29.2898 38.9714 30.4936 39.4132V40.1239C30.4938 40.7273 30.9826 41.2158 31.5856 41.2158Z" fill="var(--fill-0, #2C733F)"/>
</g>
</svg>
