<svg preserveAspectRatio="none" width="100%" height="100%" overflow="visible" style="display: block;" viewBox="0 0 64.9932 71.1113" fill="none" xmlns="http://www.w3.org/2000/svg">
<g id="Group">
<path id="Vector" d="M48.8091 30.2656V39.8998L28.7852 38.6228L24.3564 38.3409L24.2479 38.3338C23.1837 38.2661 22.2394 37.7911 21.56 37.0681C20.9285 36.3957 20.5267 35.5077 20.4732 34.5308C20.469 34.4562 20.4661 34.3801 20.4661 34.3039C20.4661 32.1234 22.1929 30.346 24.3564 30.2699C24.4058 30.267 24.4551 30.2656 24.5044 30.2656H48.8091Z" fill="var(--fill-0, #FFB09E)"/>
<path id="Vector_2" d="M48.8093 23.26V33.7892L28.7854 32.5122L24.3567 32.2303L21.9661 32.078C20.8046 32.0047 19.77 31.4846 19.0286 30.6939C18.2858 29.9017 17.8333 28.8375 17.8333 27.6732C17.8333 25.2362 19.8095 23.26 22.2466 23.26H48.8093Z" fill="var(--fill-0, #FFB09E)"/>
<path id="Vector_3" d="M40.6469 27.6905H3.6094C1.61589 27.6905 0 26.0745 0 24.0811V3.6094C0 1.61604 1.61589 0 3.6094 0H40.6471C42.6406 0 44.2565 1.61604 44.2565 3.6094V24.081C44.2565 26.0745 42.6404 27.6905 40.6469 27.6905Z" fill="var(--fill-0, #FF7500)"/>
<path id="Vector_4" d="M44.2568 3.60982V24.0805C44.2568 26.075 42.64 27.6903 40.6469 27.6903H37.171C39.1641 27.6903 40.7794 26.075 40.7794 24.0805V3.60982C40.7794 1.61533 39.1641 0 37.171 0H40.6469C42.64 0 44.2568 1.61533 44.2568 3.60982Z" fill="var(--fill-0, #FF7500)"/>
<path id="Vector_5" d="M11.0106 15.0586H5.90078C5.49536 15.0586 5.16665 14.73 5.16665 14.3245V10.0523C5.16665 9.64684 5.49536 9.31813 5.90078 9.31813H11.0105C11.4158 9.31813 11.7445 9.64684 11.7445 10.0523V14.3245C11.7445 14.73 11.416 15.0586 11.0106 15.0586Z" fill="var(--fill-0, #EAF6FF)"/>
<path id="Vector_6" d="M38.356 9.31804H33.2462C32.8409 9.31804 32.5122 8.98933 32.5122 8.58393V5.82349C32.5122 5.41812 32.8409 5.08941 33.2462 5.08941H38.356C38.7613 5.08941 39.09 5.41812 39.09 5.82349V8.58393C39.0899 8.98942 38.7613 9.31804 38.356 9.31804Z" fill="var(--fill-0, #EAF6FF)"/>
<path id="Vector_7" d="M38.3556 22.6229H5.90078C5.49536 22.6229 5.16665 22.2942 5.16665 21.8889V19.8331C5.16665 19.4276 5.49536 19.0989 5.90078 19.0989H38.3554C38.7609 19.0989 39.0896 19.4276 39.0896 19.8331V21.8889C39.0896 22.2942 38.761 22.6229 38.3556 22.6229Z" fill="var(--fill-0, #7A6D79)"/>
<path id="Vector_8" d="M44.2562 8.34158V24.0812C46.2843 26.0554 46.131 29.3583 43.9287 31.1362L38.9364 35.1663L35.2584 19.1781C34.7922 17.1522 32.9889 15.7164 30.9099 15.7164C28.4457 15.7164 26.4479 17.7141 26.4479 20.1785V37.7157C26.4479 40.3965 27.1725 43.0273 28.5451 45.33L32.9254 52.6781C33.6504 53.8943 34.033 55.2838 34.033 56.6996V70.054H59.9167V29.081C59.9167 25.829 58.6248 22.7102 56.3254 20.4108L44.2562 8.34158Z" fill="var(--fill-0, #FFCEBF)"/>
<path id="Vector_9" d="M46.0679 41.202C45.9453 41.6798 45.5154 41.9984 45.0432 41.9984C44.9572 41.9984 44.8684 41.9871 44.7811 41.9645L41.6871 41.1724C39.4882 40.61 37.7545 38.9002 37.1639 36.7098L31.8795 20.9258C31.4778 20.1153 31.1283 19.2809 30.7772 18.4478C30.3784 17.4992 29.668 16.7296 28.7856 16.2532C29.4171 15.9107 30.1416 15.7162 30.9098 15.7162C32.9889 15.7162 34.7931 17.1524 35.2582 19.178L38.937 35.1663L39.2049 36.1587C39.5981 37.6147 40.7498 38.7508 42.21 39.1244L45.3053 39.9164C45.8706 40.0617 46.2117 40.6367 46.0679 41.202Z" fill="var(--fill-0, #FFB09E)"/>
<path id="Vector_10" d="M59.916 29.0801V70.0539H55.6705V29.0801C55.6705 25.8283 54.3794 22.7104 52.079 20.41L44.2561 12.5871V8.34158L56.3259 20.41C58.6249 22.7104 59.916 25.8283 59.916 29.0801Z" fill="var(--fill-0, #FFB09E)"/>
<path id="Vector_11" d="M63.936 71.1113H30.0138C29.4299 71.1113 28.9566 70.638 28.9566 70.0541C28.9566 69.4701 29.4299 68.997 30.0138 68.997H63.9361C64.5199 68.997 64.9932 69.4701 64.9932 70.0541C64.9932 70.638 64.5199 71.1113 63.936 71.1113Z" fill="var(--fill-0, #FFB09E)"/>
</g>
</svg>
