<svg width="88" height="55" overflow="visible" style="display: block;" viewBox="0 0 88.25 55" fill="none" xmlns="http://www.w3.org/2000/svg"><g data-unflip transform="matrix(1,0,0,-1,0,55)">
<g id="Component 5">
<path id="Vector" d="M59.6206 54.0332C60.2651 54.0332 60.856 53.9079 61.3931 53.6572C61.9302 53.4066 62.3957 53.0843 62.7896 52.6904L70.2017 45.2246V18.584C70.0584 18.7988 69.8973 18.9868 69.7183 19.1479C69.5392 19.3091 69.3781 19.4971 69.2349 19.7119L49.2007 35.8789L52.7456 39.209C53.2469 39.6029 53.4976 40.1042 53.4976 40.7129C53.4976 41.3216 53.3006 41.8229 52.9067 42.2168C52.4771 42.7181 51.9578 42.9687 51.3491 42.9687C50.7404 42.9687 50.2033 42.7718 49.7378 42.3779L38.8882 32.334C38.8166 32.334 38.7718 32.334 38.7539 32.334C38.736 32.334 38.7271 32.334 38.7271 32.334C37.5812 31.2956 36.2384 30.8659 34.6987 31.0449C33.159 31.224 31.9416 31.7969 31.0464 32.7637C30.0796 33.7663 29.6141 35.0195 29.6499 36.5234C29.6857 38.0273 30.2407 39.3343 31.3149 40.4443L44.9575 52.7979C45.3514 53.2275 45.79 53.5409 46.2734 53.7378C46.7568 53.9347 47.2671 54.0332 47.8042 54.0332H59.6206ZM74.7671 45.1172H87.9263V9.93652H79.1177C77.9002 9.93652 76.8708 10.3752 76.0293 11.2524C75.1878 12.1297 74.7671 13.1592 74.7671 14.3408V45.1172ZM81.3198 14.3408C81.8927 14.3408 82.403 14.5646 82.8506 15.0122C83.2982 15.4598 83.522 15.9701 83.522 16.543C83.522 17.1517 83.2982 17.6709 82.8506 18.1006C82.403 18.5303 81.8927 18.7451 81.3198 18.7451C80.7111 18.7451 80.1919 18.5303 79.7622 18.1006C79.3325 17.6709 79.1177 17.1517 79.1177 16.543C79.1177 15.9701 79.3325 15.4598 79.7622 15.0122C80.1919 14.5646 80.7111 14.3408 81.3198 14.3408ZM0.00146484 10.0977V45.1172H13.2144V14.4482C13.2144 13.2308 12.7668 12.2013 11.8716 11.3599C10.9764 10.5184 9.95589 10.0977 8.81006 10.0977H0.00146484ZM6.60791 18.7451C5.99919 18.7451 5.47998 18.5303 5.05029 18.1006C4.62061 17.6709 4.40576 17.1517 4.40576 16.543C4.40576 15.9701 4.62061 15.4598 5.05029 15.0122C5.47998 14.5646 5.99919 14.3408 6.60791 14.3408C7.14502 14.3408 7.64632 14.5646 8.11182 15.0122C8.57731 15.4598 8.81006 15.9701 8.81006 16.543C8.81006 17.1517 8.57731 17.6709 8.11182 18.1006C7.64632 18.5303 7.14502 18.7451 6.60791 18.7451ZM66.3882 16.2744C67.3192 15.5225 67.8473 14.5378 67.9727 13.3203C68.098 12.1029 67.7847 11.0286 67.0327 10.0977L65.7974 8.43262C64.9738 7.46582 63.9622 6.91976 62.7627 6.79443C61.5632 6.66911 60.5158 6.98242 59.6206 7.73437L58.8149 8.43262L54.5718 3.06152C53.6766 1.9515 52.5129 1.33382 51.0806 1.2085C49.6483 1.08317 48.3771 1.4681 47.2671 2.36328L44.9575 4.45801H44.7964C43.2925 2.59603 41.332 1.53076 38.915 1.26221C36.498 0.993652 34.3407 1.64714 32.4429 3.22266L20.0356 14.4482H17.5649V45.2246L25.0308 52.6904C25.4246 53.0843 25.8901 53.4066 26.4272 53.6572C26.9644 53.9079 27.5373 54.0332 28.146 54.0332H39.6938L28.4683 43.7207C26.4631 41.8587 25.3978 39.5581 25.2725 36.8188C25.1471 34.0796 25.9797 31.7074 27.77 29.7021C29.632 27.7327 31.9147 26.6675 34.6182 26.5063C37.3216 26.3452 39.7118 27.2314 41.7886 29.165L45.8706 32.8711L66.3882 16.2744Z" fill="var(--fill-0, #FF7500)"/>
</g>
</g></svg>