<svg preserveAspectRatio="none" width="100%" height="100%" overflow="visible" style="display: block;" viewBox="0 0 41.25 55" fill="none" xmlns="http://www.w3.org/2000/svg">
<g id="Component 5">
<path id="Vector" d="M23.6328 39.7998C23.6328 39.0479 23.8745 38.4391 24.3579 37.9736C24.8413 37.5081 25.4411 37.2754 26.1572 37.2754H40.498V2.63184C40.498 1.91569 40.2474 1.31592 39.7461 0.83252C39.2448 0.349121 38.654 0.107422 37.9736 0.107422H2.52441C1.80827 0.107422 1.2085 0.349121 0.725098 0.83252C0.241699 1.31592 0 1.91569 0 2.63184V51.6162C0 52.2965 0.241699 52.8874 0.725098 53.3887C1.2085 53.89 1.80827 54.1406 2.52441 54.1406H23.6328V39.7998ZM6.76758 46.5674V44.8486C6.76758 44.598 6.83919 44.3921 6.98242 44.231C7.12565 44.0698 7.32259 43.9893 7.57324 43.9893H16.0596C16.2386 43.9893 16.4176 44.0698 16.5967 44.231C16.7757 44.3921 16.8652 44.598 16.8652 44.8486V46.5674C16.8652 46.7464 16.7757 46.9255 16.5967 47.1045C16.4176 47.2835 16.2386 47.373 16.0596 47.373H7.57324C7.32259 47.373 7.12565 47.2835 6.98242 47.1045C6.83919 46.9255 6.76758 46.7464 6.76758 46.5674ZM6.76758 39.7998V38.0811C6.76758 37.8304 6.83919 37.6335 6.98242 37.4902C7.12565 37.347 7.32259 37.2754 7.57324 37.2754H16.0596C16.2386 37.2754 16.4176 37.347 16.5967 37.4902C16.7757 37.6335 16.8652 37.8304 16.8652 38.0811V39.7998C16.8652 40.0146 16.7757 40.2116 16.5967 40.3906C16.4176 40.5697 16.2386 40.6592 16.0596 40.6592H7.57324C7.32259 40.6592 7.12565 40.5697 6.98242 40.3906C6.83919 40.2116 6.76758 40.0146 6.76758 39.7998ZM27.0166 13.6426C26.8018 13.6426 26.5959 13.6963 26.3989 13.8037C26.202 13.9111 26.0498 14.0544 25.9424 14.2334C25.3337 15.5225 24.2863 16.3102 22.8003 16.5967C21.3143 16.8831 20.0521 16.5967 19.0137 15.7373L17.5098 20.1416C17.3665 20.6787 17.0801 21.0994 16.6504 21.4038C16.2207 21.7082 15.7373 21.8604 15.2002 21.8604C14.6273 21.8604 14.117 21.7082 13.6694 21.4038C13.2218 21.0994 12.9264 20.6966 12.7832 20.1953L10.8496 14.3408C10.7422 14.1618 10.59 14.0007 10.3931 13.8574C10.1961 13.7142 9.97233 13.6426 9.72168 13.6426H8.43262C7.96712 13.6426 7.57324 13.4635 7.25098 13.1055C6.92871 12.7474 6.76758 12.3535 6.76758 11.9238C6.76758 11.4583 6.92871 11.0645 7.25098 10.7422C7.57324 10.4199 7.96712 10.2588 8.43262 10.2588H9.72168C10.7243 10.2588 11.6105 10.5273 12.3804 11.0645C13.1502 11.6016 13.6963 12.3535 14.0186 13.3203L15.2002 16.7041L16.8652 11.2793C16.9727 10.9928 17.1696 10.7511 17.4561 10.5542C17.7425 10.3573 18.0469 10.2588 18.3691 10.2588C18.4049 10.2588 18.4318 10.2588 18.4497 10.2588C18.4676 10.2588 18.5124 10.2588 18.584 10.2588C18.584 10.2588 18.5661 10.2409 18.5303 10.2051C18.4945 10.1693 18.5124 10.1514 18.584 10.1514C18.9062 10.1514 19.1927 10.2409 19.4434 10.4199C19.694 10.599 19.891 10.8317 20.0342 11.1182L20.7861 12.7832C20.9294 13.0339 21.1174 13.2039 21.3501 13.2935C21.5828 13.383 21.7887 13.4277 21.9678 13.4277C22.0752 13.4277 22.2363 13.383 22.4512 13.2935C22.666 13.2039 22.8451 12.998 22.9883 12.6758C23.3822 11.9238 23.9372 11.333 24.6533 10.9033C25.3695 10.4736 26.1572 10.2588 27.0166 10.2588H32.0654C32.4951 10.2588 32.889 10.4199 33.2471 10.7422C33.6051 11.0645 33.7842 11.4583 33.7842 11.9238C33.7842 12.3535 33.6051 12.7474 33.2471 13.1055C32.889 13.4635 32.4951 13.6426 32.0654 13.6426H27.0166ZM39.7998 43.0762C39.9788 42.7897 40.14 42.4943 40.2832 42.1899C40.4264 41.8856 40.498 41.5723 40.498 41.25V40.6592H27.0166V54.1406H27.6611C27.9476 54.1406 28.252 54.069 28.5742 53.9258C28.8965 53.7826 29.1829 53.6035 29.4336 53.3887L39.7998 43.0762Z" fill="var(--fill-0, #FF7500)"/>
</g>
</svg>
