<svg width="71" height="55" overflow="visible" style="display: block;" viewBox="0 0 70.75 55" fill="none" xmlns="http://www.w3.org/2000/svg"><g data-unflip transform="matrix(1,0,0,-1,0,55)">
<g id="Component 5">
<path id="Vector" d="M34.8647 40.5518C35.008 40.6592 35.1602 40.7487 35.3213 40.8203C35.4824 40.8919 35.6525 40.9277 35.8315 40.9277C35.9748 40.9277 36.127 40.8919 36.2881 40.8203C36.4492 40.7487 36.5835 40.6592 36.6909 40.5518L58.981 22.3438V2.57812C58.981 2.04102 58.784 1.58447 58.3901 1.2085C57.9963 0.83252 57.5666 0.644531 57.1011 0.644531H43.4585C42.9572 0.644531 42.5096 0.83252 42.1157 1.2085C41.7218 1.58447 41.5249 2.04102 41.5249 2.57812V14.126C41.5249 14.6273 41.3369 15.0749 40.9609 15.4688C40.585 15.8626 40.1284 16.0596 39.5913 16.0596H31.8569C31.3914 16.0596 30.9528 15.8626 30.541 15.4688C30.1292 15.0749 29.9233 14.6273 29.9233 14.126V2.57812C29.9233 2.04102 29.7443 1.58447 29.3862 1.2085C29.0282 0.83252 28.6164 0.644531 28.1509 0.644531H14.6157C14.0786 0.644531 13.6221 0.83252 13.2461 1.2085C12.8701 1.58447 12.6821 2.04102 12.6821 2.57812V22.2363L34.8647 40.5518ZM69.9917 28.1445C70.1707 28.0013 70.314 27.8223 70.4214 27.6074C70.5288 27.3926 70.5825 27.1956 70.5825 27.0166C70.5825 26.8376 70.5557 26.6675 70.502 26.5063C70.4482 26.3452 70.3498 26.193 70.2065 26.0498L67.0913 22.3438C66.9481 22.1647 66.7869 22.0394 66.6079 21.9678C66.4289 21.8962 66.2319 21.8604 66.0171 21.8604C65.8381 21.8604 65.659 21.8872 65.48 21.9409C65.3009 21.9946 65.1577 22.0931 65.0503 22.2363L36.6909 45.4932C36.5835 45.6006 36.4492 45.6901 36.2881 45.7617C36.127 45.8333 35.9748 45.8691 35.8315 45.8691C35.6525 45.8691 35.4824 45.8333 35.3213 45.7617C35.1602 45.6901 35.008 45.6006 34.8647 45.4932L6.55908 22.2363C6.45166 22.0931 6.30843 21.9946 6.12939 21.9409C5.95036 21.8872 5.77132 21.8604 5.59229 21.8604C5.34163 21.8604 5.12679 21.8962 4.94775 21.9678C4.76872 22.0394 4.62549 22.1647 4.51807 22.3438L1.34912 26.0498C1.31331 26.193 1.25065 26.3452 1.16113 26.5063C1.07161 26.6675 1.02686 26.8376 1.02686 27.0166C1.02686 27.1956 1.08057 27.3926 1.18799 27.6074C1.29541 27.8223 1.43864 28.0013 1.61768 28.1445L32.1255 53.335C32.591 53.693 33.146 53.9795 33.7905 54.1943C34.4351 54.4092 35.1154 54.5166 35.8315 54.5166C36.5119 54.5166 37.1654 54.4092 37.792 54.1943C38.4186 53.9795 38.9826 53.693 39.4839 53.335L50.3335 44.4189V53.0664C50.3335 53.4961 50.4678 53.8452 50.7363 54.1138C51.0049 54.3823 51.354 54.5166 51.7837 54.5166H58.4976C58.8914 54.5166 59.2316 54.3823 59.5181 54.1138C59.8045 53.8452 59.9478 53.4961 59.9478 53.0664V36.416L69.9917 28.1445Z" fill="var(--fill-0, #FF7500)"/>
</g>
</g></svg>