<svg preserveAspectRatio="none" width="100%" height="100%" overflow="visible" style="display: block;" viewBox="0 0 20 20" fill="none" xmlns="http://www.w3.org/2000/svg">
<g id="Component 5">
<path id="Vector" d="M10 0.78125C8.69792 0.78125 7.46745 1.02865 6.30859 1.52344C5.16276 2.01823 4.16016 2.69531 3.30078 3.55469C2.44141 4.41406 1.76432 5.41667 1.26953 6.5625C0.77474 7.72135 0.527344 8.95182 0.527344 10.2539V10.4492C0.553385 11.7513 0.826823 12.9688 1.34766 14.1016C1.85547 15.2344 2.54232 16.2207 3.4082 17.0605C4.27409 17.9004 5.28646 18.5612 6.44531 19.043C7.59115 19.5117 8.8151 19.7396 10.1172 19.7266C11.4193 19.7135 12.6432 19.4531 13.7891 18.9453C14.9219 18.4375 15.9115 17.7507 16.7578 16.8848C17.6042 16.0189 18.2682 15.013 18.75 13.8672C19.2448 12.7214 19.4857 11.4974 19.4727 10.1953C19.4596 8.89323 19.2057 7.66927 18.7109 6.52344C18.2161 5.3776 17.5391 4.38151 16.6797 3.53516C15.8203 2.6888 14.8177 2.01823 13.6719 1.52344C12.526 1.02865 11.3021 0.78125 10 0.78125ZM10 17.832C8.95833 17.832 7.97526 17.6367 7.05078 17.2461C6.1263 16.8424 5.32227 16.2988 4.63867 15.6152C3.95508 14.9316 3.41797 14.1276 3.02734 13.2031C2.6237 12.2786 2.42187 11.2956 2.42187 10.2539C2.42187 9.21224 2.6237 8.22917 3.02734 7.30469C3.41797 6.38021 3.95508 5.57617 4.63867 4.89258C5.32227 4.20898 6.1263 3.66536 7.05078 3.26172C7.97526 2.87109 8.95833 2.67578 10 2.67578C11.0417 2.67578 12.0247 2.87109 12.9492 3.26172C13.8737 3.66536 14.6777 4.20898 15.3613 4.89258C16.0449 5.57617 16.5885 6.38021 16.9922 7.30469C17.3828 8.22917 17.5781 9.21224 17.5781 10.2539C17.5781 11.2956 17.3828 12.2786 16.9922 13.2031C16.5885 14.1276 16.0449 14.9316 15.3613 15.6152C14.6777 16.2988 13.8737 16.8359 12.9492 17.2266C12.0247 17.6302 11.0417 17.832 10 17.832ZM8.63281 5.50781L7.28516 6.85547L10.6445 10.2148L7.28516 13.5547L8.63281 14.9023L13.3203 10.2148L8.63281 5.50781Z" fill="var(--fill-0, #FF7500)"/>
</g>
</svg>
