<svg width="62" height="55" overflow="visible" style="display: block;" viewBox="0 0 61.88 55" fill="none" xmlns="http://www.w3.org/2000/svg"><g data-unflip transform="matrix(1,0,0,-1,0,55)">
<g id="Component 5">
<path id="Vector" d="M59.9439 18.584C60.6242 17.653 60.8659 16.6056 60.669 15.4419C60.4721 14.2782 59.8723 13.3561 58.8697 12.6758L44.5289 2.25586C43.6337 1.53971 42.6311 1.0026 41.5211 0.644531C40.411 0.286458 39.2652 0.107422 38.0836 0.107422H1.56012C1.16624 0.107422 0.808164 0.268555 0.485898 0.59082C0.163633 0.913086 0.0025 1.32487 0.0025 1.82617V11.9238C0.0025 12.3535 0.163633 12.7474 0.485898 13.1055C0.808164 13.4635 1.16624 13.6426 1.56012 13.6426L7.3609 13.5352L12.2486 17.5098C13.3586 18.4049 14.6119 19.0853 16.0084 19.5508C17.4048 20.0163 18.7834 20.249 20.1441 20.249H37.0093C38.0836 20.249 38.9608 19.8641 39.6412 19.0942C40.3215 18.3244 40.5722 17.4202 40.3931 16.3818C40.2499 15.5225 39.8381 14.8332 39.1578 14.314C38.4774 13.7948 37.7434 13.5352 36.9556 13.5352H28.5767C28.2186 13.5352 27.8695 13.374 27.5294 13.0518C27.1892 12.7295 27.0191 12.3177 27.0191 11.8164C27.0191 11.4225 27.1802 11.0465 27.5025 10.6885C27.8248 10.3304 28.1828 10.1514 28.5767 10.1514H41.3599L54.0357 19.5508C54.9667 20.2311 56.0141 20.4818 57.1778 20.3027C58.3415 20.1237 59.2636 19.5508 59.9439 18.584ZM29.4361 35.6641C30.3313 35.5208 31.1011 35.5208 31.7457 35.6641C32.3902 35.8073 32.7483 36.0579 32.8199 36.416C32.8557 36.6667 32.7572 36.8905 32.5245 37.0874C32.2917 37.2843 31.3339 37.6156 29.6509 38.0811L28.899 38.2959C27.968 38.6182 26.6163 39.2716 24.8438 40.2563C23.0713 41.241 22.3821 43.0225 22.7759 45.6006C23.0624 46.8538 23.6353 47.8923 24.4947 48.7158C25.3541 49.5394 26.482 50.1123 27.8785 50.4346V51.6162C27.8785 52.2965 28.1112 52.8874 28.5767 53.3887C29.0422 53.89 29.6509 54.1406 30.4029 54.1406C31.0832 54.1406 31.674 53.89 32.1754 53.3887C32.6767 52.8874 32.9273 52.2965 32.9273 51.6162V50.3271C33.178 50.2913 33.4823 50.2197 33.8404 50.1123C34.1985 50.0049 34.5565 49.8975 34.9146 49.79C35.5949 49.5394 36.0873 49.1097 36.3917 48.501C36.696 47.8923 36.7408 47.2477 36.5259 46.5674C36.3111 45.8512 35.8814 45.3499 35.2369 45.0635C34.5923 44.777 33.9657 44.7412 33.357 44.9561C32.8557 45.1351 32.4439 45.2694 32.1216 45.3589C31.7994 45.4484 31.495 45.529 31.2086 45.6006C30.3134 45.708 29.5435 45.6812 28.899 45.52C28.2545 45.3589 27.9143 45.0993 27.8785 44.7412C27.8069 44.5264 27.8606 44.3205 28.0396 44.1235C28.2186 43.9266 29.0064 43.6133 30.4029 43.1836L30.94 43.0762C32.3007 42.6465 33.8851 41.9482 35.6934 40.9814C37.5017 40.0146 38.191 38.2064 37.7613 35.5566C37.5464 34.3034 37.0183 33.265 36.1768 32.4414C35.3353 31.6178 34.2522 31.0449 32.9273 30.7227V29.6484C32.9273 28.9323 32.6767 28.3325 32.1754 27.8491C31.674 27.3657 31.0832 27.124 30.4029 27.124C29.6509 27.124 29.0422 27.3657 28.5767 27.8491C28.1112 28.3325 27.8785 28.9323 27.8785 29.6484V30.9375C27.3414 31.0449 26.8311 31.1702 26.3477 31.3135C25.8643 31.4567 25.3899 31.6178 24.9244 31.7969L24.3873 31.958C23.7427 32.1729 23.2772 32.6115 22.9908 33.2739C22.7043 33.9364 22.6685 34.554 22.8834 35.127C23.0982 35.7715 23.5279 36.2459 24.1724 36.5503C24.817 36.8547 25.4794 36.8815 26.1597 36.6309L26.5894 36.416C27.0549 36.2728 27.5383 36.1296 28.0396 35.9863C28.5409 35.8431 29.0064 35.7357 29.4361 35.6641Z" fill="var(--fill-0, #FF7500)"/>
</g>
</g></svg>