<svg preserveAspectRatio="none" width="100%" height="100%" overflow="visible" style="display: block;" viewBox="0 0 63.97 57.75" fill="none" xmlns="http://www.w3.org/2000/svg">
<g id="Component 5">
<path id="Vector" d="M0.00819336 49.7417C0.00819336 51.6968 0.694351 53.3699 2.06667 54.761C3.43898 56.1521 5.12147 56.8477 7.11415 56.8477H24.8226V42.6921C24.8226 41.677 25.161 40.8311 25.8378 40.1543C26.5145 39.4775 27.3605 39.1392 28.3756 39.1392H42.5311V33.8943L32.267 29.7209C31.0263 29.2698 30.0675 28.5084 29.3908 27.4369C28.714 26.3654 28.3756 25.2092 28.3756 23.9685C28.3756 22.3894 28.526 20.6223 28.8268 18.6672C29.1276 16.7122 29.6633 14.6913 30.4341 12.6046C31.2048 10.5179 32.267 8.45947 33.6205 6.4292C34.974 4.39893 36.7035 2.55664 38.809 0.902344C38.2826 0.63916 37.728 0.441772 37.1453 0.310181C36.5625 0.178589 36.0079 0.112793 35.4816 0.112793H7.11415C5.12147 0.112793 3.43898 0.79895 2.06667 2.17126C0.694351 3.54358 0.00819336 5.22607 0.00819336 7.21875V49.7417ZM28.3756 42.6921V56.8477L42.5311 42.6921H28.3756ZM46.8737 31.8076C47.1369 31.9204 47.447 31.9768 47.8042 31.9768C48.1614 31.9768 48.4716 31.9204 48.7348 31.8076L62.0443 26.5063C62.6083 26.2808 63.0407 25.9424 63.3414 25.4912C63.6422 25.04 63.7926 24.5701 63.7926 24.0813C63.7926 22.2766 63.5858 20.2651 63.1723 18.0469C62.7587 15.8286 61.9879 13.6104 60.86 11.3921C59.7321 9.17383 58.2094 7.08716 56.2919 5.13208C54.3744 3.1394 51.893 1.50391 48.8475 0.225586C48.5092 0.112793 48.1614 0.0563965 47.8042 0.0563965C47.447 0.0563965 47.0993 0.112793 46.7609 0.225586C43.7531 1.50391 41.2716 3.1394 39.3165 5.13208C37.3991 7.08716 35.8952 9.17383 34.8048 11.3921C33.7145 13.6104 32.9625 15.8286 32.549 18.0469C32.1354 20.2651 31.9286 22.2766 31.9286 24.0813C31.9286 24.5701 32.0602 25.04 32.3234 25.4912C32.5866 25.9424 33.0001 26.2808 33.5641 26.5063L46.8737 31.8076ZM47.8888 26.5063V5.69604C49.7687 6.59839 51.3478 7.70752 52.6261 9.02344C53.9044 10.3394 54.9572 11.7399 55.7843 13.225C56.6115 14.7101 57.213 16.2422 57.589 17.8213C58.0026 19.4004 58.2658 20.8855 58.3786 22.2766L47.8888 26.5063Z" fill="var(--fill-0, #FF7500)"/>
</g>
</svg>
