<svg width="54" height="55" overflow="visible" style="display: block;" viewBox="0 0 54.05 55" fill="none" xmlns="http://www.w3.org/2000/svg"><g data-unflip transform="matrix(1,0,0,-1,0,55)">
<g id="Component 5">
<path id="Vector" d="M33.7926 43.9893H20.2574L15.2086 51.5088C14.8505 52.0459 14.8326 52.6188 15.1549 53.2275C15.4771 53.8363 15.9426 54.1406 16.5514 54.1406H37.3375C37.982 54.1406 38.4654 53.8363 38.7877 53.2275C39.11 52.6188 39.0921 52.0459 38.734 51.5088L33.7926 43.9893ZM20.2574 40.6592H33.7926C33.9358 40.4801 34.1238 40.3101 34.3565 40.1489C34.5893 39.9878 34.8131 39.8356 35.0279 39.6924C36.5318 38.7256 38.3759 37.4723 40.5602 35.9326C42.7086 34.3929 44.7854 32.4414 46.7906 30.0781C48.7958 27.7148 50.4967 24.904 51.8932 21.6455C53.3255 18.387 54.0416 14.5915 54.0416 10.2588C54.0416 7.46582 53.0479 5.07568 51.0606 3.08838C49.0733 1.10107 46.6832 0.107422 43.8902 0.107422H10.1598C7.29518 0.107422 4.88714 1.10107 2.93564 3.08838C0.984147 5.07568 0.00839844 7.46582 0.00839844 10.2588C0.00839844 14.5915 0.706641 18.387 2.10313 21.6455C3.49961 24.904 5.1915 27.7148 7.17881 30.0781C9.16611 32.4414 11.234 34.3929 13.3824 35.9326C15.5667 37.4723 17.4107 38.7256 18.9146 39.6924C19.1295 39.8356 19.3533 39.9878 19.586 40.1489C19.8188 40.3101 20.0426 40.4801 20.2574 40.6592ZM29.1197 30.5078C29.1197 31.0807 28.9138 31.5731 28.5021 31.9849C28.0903 32.3966 27.5621 32.6025 26.9176 32.6025C26.3447 32.6025 25.8523 32.3966 25.4405 31.9849C25.0287 31.5731 24.8229 31.0807 24.8229 30.5078V29.8633C24.5364 29.7559 24.2499 29.6663 23.9635 29.5947C23.677 29.5231 23.4264 29.3978 23.2115 29.2188C22.4238 28.9323 21.7166 28.4489 21.0899 27.7686C20.4633 27.0882 20.0426 26.2826 19.8277 25.3516C19.7919 24.8145 19.8009 24.2863 19.8546 23.7671C19.9083 23.2479 20.0426 22.7555 20.2574 22.29C20.4723 21.8245 20.7498 21.4217 21.0899 21.0815C21.4301 20.7414 21.7613 20.446 22.0836 20.1953C22.6923 19.7656 23.3637 19.4255 24.0978 19.1748C24.8318 18.9242 25.5211 18.6914 26.1656 18.4766H26.3805C27.1324 18.2259 27.7501 18.0021 28.2335 17.8052C28.7169 17.6082 29.1197 17.4202 29.442 17.2412C29.5852 17.1338 29.6926 17.0443 29.7643 16.9727C29.8359 16.901 29.8717 16.8473 29.8717 16.8115C29.8717 16.7399 29.8806 16.6504 29.8985 16.543C29.9164 16.4355 29.9075 16.2744 29.8717 16.0596C29.8717 15.8805 29.809 15.7194 29.6837 15.5762C29.5584 15.4329 29.3346 15.2718 29.0123 15.0928C28.69 14.9854 28.2693 14.9137 27.7501 14.8779C27.2309 14.8421 26.6311 14.8779 25.9508 14.9854C25.6285 15.057 25.2257 15.1644 24.7423 15.3076C24.2589 15.4508 23.7486 15.5941 23.2115 15.7373C23.1041 15.7731 22.9967 15.8179 22.8893 15.8716C22.7818 15.9253 22.6744 15.988 22.567 16.0596C21.9941 16.2028 21.457 16.1401 20.9557 15.8716C20.4544 15.603 20.1142 15.2002 19.9352 14.6631C19.7203 14.0902 19.7472 13.5531 20.0157 13.0518C20.2843 12.5505 20.6871 12.2103 21.2242 12.0312C21.26 11.9954 21.3316 11.9686 21.4391 11.9507C21.5465 11.9328 21.6539 11.888 21.7613 11.8164C22.1194 11.6732 22.5938 11.512 23.1847 11.333C23.7755 11.154 24.3215 11.0107 24.8229 10.9033V10.2588C24.8229 9.61426 25.0287 9.0861 25.4405 8.67432C25.8523 8.26253 26.3447 8.05664 26.9176 8.05664C27.5621 8.05664 28.0903 8.26253 28.5021 8.67432C28.9138 9.0861 29.1197 9.61426 29.1197 10.2588V10.7959C29.4062 10.8317 29.6747 10.9033 29.9254 11.0107C30.176 11.1182 30.4446 11.2077 30.7311 11.2793C31.5546 11.6016 32.2708 12.1029 32.8795 12.7832C33.4882 13.4635 33.8821 14.305 34.0611 15.3076C34.1327 15.8805 34.1507 16.4355 34.1148 16.9727C34.079 17.5098 33.9716 18.0111 33.7926 18.4766C33.5777 18.9421 33.3002 19.3449 32.9601 19.6851C32.6199 20.0252 32.2887 20.3206 31.9664 20.5713C31.3577 21.0726 30.6415 21.4665 29.818 21.7529C28.9944 22.0394 28.2783 22.29 27.6695 22.5049H27.5621C26.8102 22.7197 26.1925 22.9077 25.7091 23.0688C25.2257 23.23 24.8229 23.418 24.5006 23.6328C24.3215 23.7402 24.2052 23.8298 24.1515 23.9014C24.0978 23.973 24.0709 24.0267 24.0709 24.0625C24.0709 24.0625 24.053 24.0983 24.0172 24.1699C23.9814 24.2415 23.9993 24.3848 24.0709 24.5996C24.0709 24.707 24.1336 24.8324 24.2589 24.9756C24.3842 25.1188 24.608 25.2799 24.9303 25.459C25.2167 25.6022 25.6196 25.7007 26.1388 25.7544C26.658 25.8081 27.2757 25.8171 27.9918 25.7812C28.1708 25.7096 28.5379 25.6112 29.0929 25.4858C29.6479 25.3605 30.0149 25.2799 30.1939 25.2441C30.7669 25.0651 31.304 25.1367 31.8053 25.459C32.3066 25.7812 32.6467 26.193 32.8258 26.6943C32.969 27.2673 32.8884 27.8133 32.5841 28.3325C32.2797 28.8517 31.859 29.1829 31.3219 29.3262C31.0712 29.3978 30.7221 29.4784 30.2745 29.5679C29.8269 29.6574 29.442 29.7201 29.1197 29.7559V30.5078Z" fill="var(--fill-0, #FF7500)"/>
</g>
</g></svg>