<svg preserveAspectRatio="none" width="100%" height="100%" overflow="visible" style="display: block;" viewBox="0 0 64.97 57.75" fill="none" xmlns="http://www.w3.org/2000/svg">
<g id="Component 5">
<path id="Vector" d="M62.9391 19.5132C63.6535 18.5356 63.9072 17.4359 63.7005 16.214C63.4937 14.9921 62.8639 14.0239 61.8112 13.3096L46.7533 2.36865C45.8134 1.6167 44.7606 1.05273 43.5951 0.676758C42.4296 0.300781 41.2265 0.112793 39.9857 0.112793H1.63612C1.22255 0.112793 0.846572 0.281982 0.508193 0.620361C0.169814 0.95874 0.000625 1.39111 0.000625 1.91748V12.52C0.000625 12.9712 0.169814 13.3848 0.508193 13.7607C0.846572 14.1367 1.22255 14.3247 1.63612 14.3247L7.72694 14.2119L12.859 18.3853C14.0246 19.3252 15.3405 20.0396 16.8068 20.5283C18.2731 21.0171 19.7206 21.2615 21.1493 21.2615H38.8578C39.9857 21.2615 40.9069 20.8573 41.6212 20.049C42.3356 19.2406 42.5988 18.2913 42.4108 17.2009C42.2604 16.2986 41.828 15.5748 41.1137 15.0297C40.3993 14.4845 39.6286 14.2119 38.8014 14.2119H30.0036C29.6276 14.2119 29.261 14.0427 28.9038 13.7043C28.5466 13.366 28.3681 12.9336 28.3681 12.4072C28.3681 11.9937 28.5372 11.5989 28.8756 11.2229C29.214 10.8469 29.59 10.6589 30.0036 10.6589H43.4259L56.7355 20.5283C57.713 21.2427 58.8128 21.5059 60.0347 21.3179C61.2566 21.1299 62.2247 20.5283 62.9391 19.5132ZM30.9059 37.4473C31.8458 37.2969 32.6542 37.2969 33.3309 37.4473C34.0077 37.5977 34.3837 37.8608 34.4589 38.2368C34.4965 38.5 34.3931 38.735 34.1487 38.9418C33.9043 39.1486 32.8986 39.4963 31.1315 39.9851L30.3419 40.2107C29.3644 40.5491 27.9451 41.2352 26.084 42.2692C24.2229 43.3031 23.4992 45.1736 23.9127 47.8806C24.2135 49.1965 24.8151 50.2869 25.7174 51.1516C26.6198 52.0164 27.8041 52.6179 29.2704 52.9563V54.197C29.2704 54.9114 29.5148 55.5317 30.0036 56.0581C30.4923 56.5845 31.1315 56.8477 31.921 56.8477C32.6354 56.8477 33.2558 56.5845 33.7821 56.0581C34.3085 55.5317 34.5717 54.9114 34.5717 54.197V52.8435C34.8349 52.8059 35.1544 52.7307 35.5304 52.6179C35.9064 52.5051 36.2824 52.3923 36.6583 52.2795C37.3727 52.0164 37.8897 51.5652 38.2092 50.926C38.5288 50.2869 38.5758 49.6101 38.3502 48.8958C38.1246 48.1438 37.6735 47.6174 36.9967 47.3167C36.32 47.0159 35.662 46.9783 35.0228 47.2039C34.4965 47.3918 34.0641 47.5328 33.7257 47.6268C33.3873 47.7208 33.0678 47.8054 32.767 47.8806C31.827 47.9934 31.0187 47.9652 30.3419 47.796C29.6652 47.6268 29.308 47.3542 29.2704 46.9783C29.1952 46.7527 29.2516 46.5365 29.4396 46.3297C29.6276 46.1229 30.4547 45.7939 31.921 45.3428L32.485 45.23C33.9137 44.7788 35.5774 44.0457 37.4761 43.0305C39.3748 42.0154 40.0985 40.1167 39.6474 37.3345C39.4218 36.0186 38.8672 34.9282 37.9837 34.0635C37.1001 33.1987 35.9628 32.5972 34.5717 32.2588V31.1309C34.5717 30.3789 34.3085 29.7491 33.7821 29.2416C33.2558 28.734 32.6354 28.4802 31.921 28.4802C31.1315 28.4802 30.4923 28.734 30.0036 29.2416C29.5148 29.7491 29.2704 30.3789 29.2704 31.1309V32.4844C28.7064 32.5972 28.1707 32.7288 27.6631 32.8792C27.1555 33.0295 26.6574 33.1987 26.1686 33.3867L25.6046 33.5559C24.9279 33.7815 24.4391 34.2421 24.1383 34.9376C23.8375 35.6332 23.7999 36.2817 24.0255 36.8833C24.2511 37.5601 24.7023 38.0582 25.379 38.3778C26.0558 38.6974 26.7514 38.7256 27.4657 38.4624L27.9169 38.2368C28.4057 38.0864 28.9132 37.936 29.4396 37.7856C29.966 37.6353 30.4547 37.5225 30.9059 37.4473Z" fill="var(--fill-0, #FF7500)"/>
</g>
</svg>
