<svg preserveAspectRatio="none" width="100%" height="100%" overflow="visible" style="display: block;" viewBox="0 0 56.75 57.75" fill="none" xmlns="http://www.w3.org/2000/svg">
<g id="Component 5">
<path id="Vector" d="M35.481 46.1887H21.269L15.9678 54.0842C15.5918 54.6482 15.573 55.2498 15.9114 55.8889C16.2498 56.5281 16.7385 56.8477 17.3777 56.8477H39.2031C39.8799 56.8477 40.3875 56.5281 40.7258 55.8889C41.0642 55.2498 41.0454 54.6482 40.6694 54.0842L35.481 46.1887ZM21.269 42.6921H35.481C35.6313 42.5042 35.8287 42.3256 36.0731 42.1564C36.3175 41.9872 36.5525 41.8274 36.7781 41.677C38.3572 40.6619 40.2935 39.3459 42.5869 37.7292C44.8428 36.1125 47.0234 34.0635 49.1289 31.582C51.2344 29.1006 53.0203 26.1492 54.4866 22.7278C55.9905 19.3064 56.7424 15.321 56.7424 10.7717C56.7424 7.83911 55.6991 5.32947 53.6124 3.2428C51.5258 1.15613 49.0161 0.112793 46.0835 0.112793H10.6665C7.65869 0.112793 5.13025 1.15613 3.08118 3.2428C1.0321 5.32947 0.00756836 7.83911 0.00756836 10.7717C0.00756836 15.321 0.740723 19.3064 2.20703 22.7278C3.67334 26.1492 5.44983 29.1006 7.5365 31.582C9.62317 34.0635 11.7944 36.1125 14.0503 37.7292C16.3438 39.3459 18.28 40.6619 19.8591 41.677C20.0847 41.8274 20.3197 41.9872 20.5641 42.1564C20.8085 42.3256 21.0435 42.5042 21.269 42.6921ZM30.5745 32.0332C30.5745 32.6348 30.3583 33.1517 29.9259 33.5841C29.4935 34.0165 28.939 34.2327 28.2622 34.2327C27.6606 34.2327 27.1437 34.0165 26.7113 33.5841C26.2789 33.1517 26.0627 32.6348 26.0627 32.0332V31.3564C25.762 31.2437 25.4612 31.1497 25.1604 31.0745C24.8596 30.9993 24.5964 30.8677 24.3708 30.6797C23.5437 30.3789 22.8011 29.8713 22.1432 29.157C21.4852 28.4426 21.0435 27.5967 20.8179 26.6191C20.7803 26.0552 20.7897 25.5006 20.8461 24.9554C20.9025 24.4103 21.0435 23.8933 21.269 23.4045C21.4946 22.9158 21.786 22.4928 22.1432 22.1356C22.5004 21.7784 22.8481 21.4683 23.1865 21.2051C23.8257 20.7539 24.5306 20.3967 25.3014 20.1335C26.0721 19.8704 26.7959 19.626 27.4727 19.4004H27.6982C28.4878 19.1372 29.1364 18.9022 29.6439 18.6954C30.1515 18.4886 30.5745 18.2913 30.9128 18.1033C31.0632 17.9905 31.176 17.8965 31.2512 17.8213C31.3264 17.7461 31.364 17.6897 31.364 17.6521C31.364 17.5769 31.3734 17.4829 31.3922 17.3701C31.411 17.2573 31.4016 17.0881 31.364 16.8625C31.364 16.6746 31.2982 16.5054 31.1666 16.355C31.035 16.2046 30.8 16.0354 30.4617 15.8474C30.1233 15.7346 29.6815 15.6594 29.1364 15.6218C28.5912 15.5842 27.9614 15.6218 27.2471 15.7346C26.9087 15.8098 26.4857 15.9226 25.9781 16.073C25.4706 16.2234 24.9348 16.3738 24.3708 16.5242C24.2581 16.5618 24.1453 16.6088 24.0325 16.6652C23.9197 16.7216 23.8069 16.7874 23.6941 16.8625C23.0925 17.0129 22.5286 16.9471 22.0022 16.6652C21.4758 16.3832 21.1187 15.9602 20.9307 15.3962C20.7051 14.7947 20.7333 14.2307 21.0153 13.7043C21.2972 13.178 21.7202 12.8208 22.2842 12.6328C22.3218 12.5952 22.397 12.567 22.5098 12.5482C22.6226 12.5294 22.7354 12.4824 22.8481 12.4072C23.2241 12.2568 23.7223 12.0876 24.3427 11.8997C24.963 11.7117 25.5364 11.5613 26.0627 11.4485V10.7717C26.0627 10.095 26.2789 9.54041 26.7113 9.10803C27.1437 8.67566 27.6606 8.45947 28.2622 8.45947C28.939 8.45947 29.4935 8.67566 29.9259 9.10803C30.3583 9.54041 30.5745 10.095 30.5745 10.7717V11.3357C30.8752 11.3733 31.1572 11.4485 31.4204 11.5613C31.6836 11.6741 31.9656 11.7681 32.2664 11.8433C33.1311 12.1816 33.8831 12.708 34.5222 13.4224C35.1614 14.1367 35.575 15.0203 35.7629 16.073C35.8381 16.6746 35.8569 17.2573 35.8193 17.8213C35.7817 18.3853 35.6689 18.9116 35.481 19.4004C35.2554 19.8892 34.964 20.3121 34.6068 20.6693C34.2496 21.0265 33.9019 21.3367 33.5635 21.5999C32.9243 22.1262 32.1724 22.5398 31.3076 22.8406C30.4429 23.1414 29.6909 23.4045 29.0518 23.6301H28.939C28.1494 23.8557 27.5009 24.0531 26.9933 24.2223C26.4857 24.3915 26.0627 24.5889 25.7244 24.8145C25.5364 24.9272 25.4142 25.0212 25.3578 25.0964C25.3014 25.1716 25.2732 25.228 25.2732 25.2656C25.2732 25.2656 25.2544 25.3032 25.2168 25.3784C25.1792 25.4536 25.198 25.604 25.2732 25.8296C25.2732 25.9424 25.339 26.074 25.4706 26.2244C25.6022 26.3748 25.8372 26.5439 26.1755 26.7319C26.4763 26.8823 26.8993 26.9857 27.4445 27.0421C27.9896 27.0985 28.6382 27.1079 29.3901 27.0703C29.5781 26.9951 29.9635 26.8917 30.5463 26.7601C31.129 26.6285 31.5144 26.5439 31.7024 26.5063C32.304 26.3184 32.8679 26.3936 33.3943 26.7319C33.9207 27.0703 34.2778 27.5027 34.4658 28.0291C34.6162 28.6306 34.5316 29.204 34.212 29.7491C33.8925 30.2943 33.4507 30.6421 32.8867 30.7925C32.6235 30.8677 32.257 30.9523 31.787 31.0463C31.317 31.1403 30.9128 31.2061 30.5745 31.2437V32.0332Z" fill="var(--fill-0, #FF7500)"/>
</g>
</svg>
