<svg width="70" height="55" overflow="visible" style="display: block;" viewBox="0 0 69.61 55" fill="none" xmlns="http://www.w3.org/2000/svg"><g data-unflip transform="matrix(1,0,0,-1,0,55)">
<g id="Component 5">
<path id="Vector" d="M61.7142 54.624C63.8268 54.624 65.644 53.8721 67.1658 52.3682C68.6876 50.8643 69.4486 49.056 69.4486 46.9434V43.0762H0.0003125V46.9434C0.0003125 49.056 0.743314 50.8643 2.22932 52.3682C3.71532 53.8721 5.55044 54.624 7.73469 54.624H61.7142ZM69.4486 8.3252C69.4486 6.17676 68.6876 4.35954 67.1658 2.87354C65.644 1.38753 63.8268 0.644531 61.7142 0.644531H7.73469C5.55044 0.644531 3.71532 1.38753 2.22932 2.87354C0.743314 4.35954 0.0003125 6.17676 0.0003125 8.3252V31.4746H69.4486V8.3252ZM13.4818 16.0596C12.9446 16.0596 12.4971 15.8626 12.139 15.4688C11.7809 15.0749 11.6019 14.6273 11.6019 14.126C11.6019 13.5889 11.7809 13.1323 12.139 12.7563C12.4971 12.3804 12.9446 12.1924 13.4818 12.1924H21.2161C21.7174 12.1924 22.165 12.3804 22.5589 12.7563C22.9528 13.1323 23.1497 13.5889 23.1497 14.126C23.1497 14.6273 22.9528 15.0749 22.5589 15.4688C22.165 15.8626 21.7174 16.0596 21.2161 16.0596H13.4818ZM28.9505 12.1924H44.3655C44.8668 12.1924 45.3144 12.3804 45.7083 12.7563C46.1022 13.1323 46.2991 13.5889 46.2991 14.126C46.2991 14.6273 46.1022 15.0749 45.7083 15.4688C45.3144 15.8626 44.8668 16.0596 44.3655 16.0596H28.9505C28.4134 16.0596 27.9569 15.8626 27.5809 15.4688C27.2049 15.0749 27.0169 14.6273 27.0169 14.126C27.0169 13.5889 27.2049 13.1323 27.5809 12.7563C27.9569 12.3804 28.4134 12.1924 28.9505 12.1924Z" fill="var(--fill-0, #FF7500)"/>
</g>
</g></svg>