<svg preserveAspectRatio="none" width="100%" height="100%" overflow="visible" style="display: block;" viewBox="0 0 73.09 57.75" fill="none" xmlns="http://www.w3.org/2000/svg">
<g id="Component 5">
<path id="Vector" d="M64.7996 57.3552C67.0179 57.3552 68.926 56.5657 70.5239 54.9866C72.1218 53.4075 72.9207 51.5088 72.9207 49.2905V45.23H7.8125e-05V49.2905C7.8125e-05 51.5088 0.78023 53.4075 2.34053 54.9866C3.90083 56.5657 5.82771 57.3552 8.12117 57.3552H64.7996ZM72.9207 8.74146C72.9207 6.4856 72.1218 4.57751 70.5239 3.01721C68.926 1.45691 67.0179 0.676758 64.7996 0.676758H8.12117C5.82771 0.676758 3.90083 1.45691 2.34053 3.01721C0.78023 4.57751 7.8125e-05 6.4856 7.8125e-05 8.74146V33.0483H72.9207V8.74146ZM14.1556 16.8625C13.5916 16.8625 13.1217 16.6558 12.7457 16.2422C12.3697 15.8286 12.1817 15.3586 12.1817 14.8323C12.1817 14.2683 12.3697 13.7889 12.7457 13.3942C13.1217 12.9994 13.5916 12.802 14.1556 12.802H22.2767C22.8031 12.802 23.273 12.9994 23.6866 13.3942C24.1002 13.7889 24.307 14.2683 24.307 14.8323C24.307 15.3586 24.1002 15.8286 23.6866 16.2422C23.273 16.6558 22.8031 16.8625 22.2767 16.8625H14.1556ZM30.3978 12.802H46.5836C47.1099 12.802 47.5799 12.9994 47.9935 13.3942C48.4071 13.7889 48.6138 14.2683 48.6138 14.8323C48.6138 15.3586 48.4071 15.8286 47.9935 16.2422C47.5799 16.6558 47.1099 16.8625 46.5836 16.8625H30.3978C29.8338 16.8625 29.3544 16.6558 28.9597 16.2422C28.5649 15.8286 28.3675 15.3586 28.3675 14.8323C28.3675 14.2683 28.5649 13.7889 28.9597 13.3942C29.3544 12.9994 29.8338 12.802 30.3978 12.802Z" fill="var(--fill-0, #FF7500)"/>
</g>
</svg>
