<svg width="61" height="55" overflow="visible" style="display: block;" viewBox="0 0 60.92 55" fill="none" xmlns="http://www.w3.org/2000/svg"><g data-unflip="1" transform="matrix(1,0,0,-1,0,55)">
<g id="Component 5">
<path id="Vector" d="M0.00589844 47.373C0.00589844 49.235 0.659381 50.8285 1.96635 52.1533C3.27331 53.4782 4.87569 54.1406 6.77348 54.1406H23.6387V40.6592C23.6387 39.6924 23.961 38.8867 24.6055 38.2422C25.25 37.5977 26.0557 37.2754 27.0225 37.2754H40.5039V32.2803L30.7286 28.3057C29.5469 27.876 28.6338 27.1509 27.9893 26.1304C27.3448 25.1099 27.0225 24.0088 27.0225 22.8271C27.0225 21.3232 27.1657 19.6403 27.4522 17.7783C27.7386 15.9163 28.2489 13.9917 28.9829 12.0044C29.717 10.0171 30.7286 8.05664 32.0176 6.12305C33.3067 4.18945 34.9538 2.4349 36.959 0.859375C36.4577 0.608724 35.9296 0.420736 35.3746 0.29541C34.8195 0.170085 34.2914 0.107422 33.7901 0.107422H6.77348C4.87569 0.107422 3.27331 0.760905 1.96635 2.06787C0.659381 3.37484 0.00589844 4.97721 0.00589844 6.875V47.373ZM27.0225 40.6592V54.1406L40.5039 40.6592H27.0225ZM44.6397 30.293C44.8903 30.4004 45.1857 30.4541 45.5259 30.4541C45.8661 30.4541 46.1615 30.4004 46.4121 30.293L59.0879 25.2441C59.625 25.0293 60.0368 24.707 60.3233 24.2773C60.6097 23.8477 60.753 23.4001 60.753 22.9346C60.753 21.2158 60.556 19.3001 60.1621 17.1875C59.7683 15.0749 59.0342 12.9622 57.96 10.8496C56.8858 8.73698 55.4356 6.74967 53.6094 4.8877C51.7832 2.98991 49.42 1.43229 46.5196 0.214844C46.1973 0.107422 45.8661 0.0537109 45.5259 0.0537109C45.1857 0.0537109 44.8545 0.107422 44.5323 0.214844C41.6677 1.43229 39.3044 2.98991 37.4424 4.8877C35.6162 6.74967 34.184 8.73698 33.1455 10.8496C32.1071 12.9622 31.391 15.0749 30.9971 17.1875C30.6032 19.3001 30.4063 21.2158 30.4063 22.9346C30.4063 23.4001 30.5316 23.8477 30.7823 24.2773C31.0329 24.707 31.4268 25.0293 31.9639 25.2441L44.6397 30.293ZM45.6065 25.2441V5.4248C47.3968 6.28418 48.9008 7.34049 50.1182 8.59375C51.3357 9.84701 52.3383 11.1808 53.126 12.5952C53.9138 14.0096 54.4867 15.4688 54.8448 16.9727C55.2386 18.4766 55.4893 19.891 55.5967 21.2158L45.6065 25.2441Z" fill="var(--fill-0, #FF7500)"/>
</g>
</g></svg>