<svg preserveAspectRatio="none" width="100%" height="100%" overflow="visible" style="display: block;" viewBox="0 0 71.989 72" fill="none" xmlns="http://www.w3.org/2000/svg">
<g id="Group">
<path id="Vector" d="M59.1874 35.9867V69.8898C59.1874 71.0714 58.2591 72 57.0773 72H14.8742C13.6924 72 12.7641 71.0714 12.7641 69.8898V39.2784C12.7641 38.5187 13.186 37.8437 13.8191 37.4637L19.5164 34.172C19.8541 33.9608 20.234 33.8766 20.5715 33.8766H29.6453L35.9758 39.2784L42.3062 33.8766H57.0773C58.2591 33.8766 59.1874 34.8049 59.1874 35.9867Z" fill="var(--fill-0, #FF7500)"/>
<path id="Vector_2" d="M59.1867 35.9867V69.8898C59.1867 71.0714 58.2584 72 57.0766 72H35.975V39.2784L42.3054 33.8766H57.0766C58.2584 33.8766 59.1867 34.8049 59.1867 35.9867Z" fill="var(--fill-0, #FF7500)"/>
<path id="Vector_3" d="M37.4098 4.2219C37.0298 3.5465 36.5234 2.9136 35.9747 2.44909C34.9618 1.39401 33.6959 0.676696 32.303 0.297009C30.1083 -0.293834 27.8295 0.00158739 25.888 1.14093C23.187 2.70273 21.5834 5.61446 21.6678 8.7376C21.7099 9.15968 21.921 15.4338 21.921 15.4338C21.4567 15.1806 16.6456 12.1841 16.6456 12.1841C16.097 11.9309 12.2988 9.06104 7.61423 11.8041C5.67275 12.9438 4.28005 14.7583 3.68906 16.9108C3.09837 19.1055 3.39393 21.3843 4.53313 23.3258C6.85429 27.3772 12.0454 28.7277 16.0547 26.4065L21.4877 23.2697L13.919 22.7651C13.2826 23.1283 12.5652 23.3195 11.8394 23.3195C10.331 23.3195 8.93391 22.5179 8.19407 21.2258C7.60481 20.2222 7.46455 19.1218 7.76335 18.0091C8.05807 16.9395 8.76479 16.0226 9.74983 15.4455C10.4382 15.0416 11.0934 14.8458 11.7509 14.8458C12.843 14.8458 13.7476 15.3795 14.232 15.666L14.4998 15.8185C15.1613 16.2306 19.4517 18.893 19.8967 19.1362L20.0554 19.2227L20.0195 19.2434L20.0779 19.2459L25.1423 22.2002L26.127 15.729L26.1514 15.6523L26.1387 15.289C26.1387 15.289 25.91 8.74704 25.8647 8.306C25.842 7.04078 26.6539 5.57352 27.9996 4.79459C28.657 4.40928 29.3494 4.21965 30.0788 4.21965C30.4538 4.21965 30.833 4.27114 31.208 4.37214C31.8859 4.55755 32.4733 4.8956 32.9307 5.37362L33.2481 5.67242C33.3677 5.77131 33.5634 5.9919 33.7282 6.28647C34.738 7.99274 34.4269 10.2566 33.0379 11.6002C32.8092 11.8083 32.5083 12.0351 32.2342 12.1917L32.0245 12.3128L31.4608 17.5112L34.3284 15.8556C34.9192 15.518 35.468 15.0959 35.9743 14.6318C38.6757 12.0154 39.4354 7.64034 37.4098 4.2219Z" fill="var(--fill-0, #005F86)"/>
<path id="Vector_4" d="M29.6454 33.8766V57.229C29.6454 58.073 30.1518 58.8326 30.9536 59.1702C31.7133 59.5079 32.6419 59.3391 33.2325 58.7059L35.9758 56.0049L38.7191 58.7059C39.3098 59.3391 40.2384 59.5078 40.9979 59.1702C41.7998 58.8326 42.3062 58.0731 42.3062 57.229V33.8766H29.6454Z" fill="var(--fill-0, #005F86)"/>
<path id="Vector_5" d="M69.8789 25.4359H67.7687V23.3258C67.7687 22.1594 66.825 21.2156 65.6586 21.2156C64.4922 21.2156 63.5485 22.1594 63.5485 23.3258V25.4359H61.4383C60.2719 25.4359 59.3282 26.3798 59.3282 27.5461C59.3282 28.7124 60.2719 29.6562 61.4383 29.6562H63.5485V31.7664C63.5485 32.9327 64.4922 33.8766 65.6586 33.8766C66.825 33.8766 67.7687 32.9327 67.7687 31.7664V29.6562H69.8789C71.0453 29.6562 71.989 28.7124 71.989 27.5461C71.989 26.3798 71.0453 25.4359 69.8789 25.4359Z" fill="var(--fill-0, #FFA300)"/>
<path id="Vector_6" d="M61.2977 16.9953C62.463 16.9953 63.4078 16.0506 63.4078 14.8851C63.4078 13.7198 62.463 12.775 61.2977 12.775C60.1322 12.775 59.1875 13.7198 59.1875 14.8851C59.1875 16.0506 60.1322 16.9953 61.2977 16.9953Z" fill="var(--fill-0, #FFA300)"/>
<path id="Vector_7" d="M52.857 29.6562C54.0225 29.6562 54.9672 28.7115 54.9672 27.5461C54.9672 26.3807 54.0225 25.4359 52.857 25.4359C51.6916 25.4359 50.7469 26.3807 50.7469 27.5461C50.7469 28.7115 51.6916 29.6562 52.857 29.6562Z" fill="var(--fill-0, #FFA300)"/>
<path id="Vector_8" d="M35.975 33.8766H42.3054V57.229C42.3054 58.073 41.799 58.8326 40.9972 59.1702C40.2375 59.5079 39.3089 59.3391 38.7183 58.7059L35.975 56.0049V33.8766Z" fill="var(--fill-0, #005F86)"/>
<path id="Vector_9" d="M35.975 14.632V2.44922C36.5237 2.91359 37.0301 3.5465 37.4101 4.22189C39.4357 7.64034 38.676 12.0155 35.975 14.632Z" fill="var(--fill-0, #005F86)"/>
<path id="Vector_10" d="M54.2494 16.5732L47.9189 5.60038C47.3281 4.58751 46.0198 4.24989 45.0069 4.84074L35.9754 10.0739L34.7663 10.7714L10.7698 24.617L1.15786 30.1627C0.144987 30.7114 -0.333315 32.0197 0.257528 33.0326L6.72867 44.0054C7.31951 45.0183 8.58559 45.3558 9.59847 44.7649L35.9754 29.5297L53.4475 19.443C54.4604 18.8524 54.7982 17.5863 54.2494 16.5732Z" fill="var(--fill-0, #FF7500)"/>
<path id="Vector_11" d="M53.4471 19.443L35.975 29.5295V10.0739L45.0065 4.84074C46.0194 4.24989 47.3276 4.58751 47.9185 5.60038L54.249 16.573C54.7978 17.5863 54.46 18.8523 53.4471 19.443Z" fill="var(--fill-0, #FF7500)"/>
</g>
</svg>
