<svg preserveAspectRatio="none" width="100%" height="100%" overflow="visible" style="display: block;" viewBox="0 0 72 72" fill="none" xmlns="http://www.w3.org/2000/svg">
<g id="SVG">
<path id="Vector" d="M69.2748 53.5049C68.4906 49.6143 66.2344 46.2598 62.9214 44.0579C59.6099 41.856 55.6434 41.0763 51.7528 41.8604C47.8623 42.6431 44.5078 44.8995 42.3073 48.2123C40.1054 51.5251 39.3241 55.4917 40.1082 59.3809C41.5288 66.4351 47.7517 71.3208 54.6857 71.3208C55.6575 71.3208 56.6425 71.2247 57.6301 71.0254C61.5192 70.2414 64.8737 67.9864 67.0756 64.6735C69.2778 61.3606 70.0575 57.394 69.2748 53.5049ZM52.7062 56.842C52.6002 56.3145 52.7062 55.774 53.0058 55.3224C53.1564 55.0959 53.3456 54.9067 53.5635 54.7605C53.7813 54.6142 54.028 54.511 54.2918 54.4566C54.4251 54.4307 54.5598 54.4165 54.6931 54.4165C55.0873 54.4165 55.4744 54.5327 55.8113 54.7577C56.2627 55.0574 56.5696 55.5145 56.677 56.0421C56.8978 57.1374 56.1853 58.2067 55.0915 58.4275C54.5624 58.5352 54.0234 58.4275 53.5719 58.1279C53.1205 57.8268 52.8123 57.3711 52.7062 56.842Z" fill="var(--fill-0, #FF8E2B)"/>
<path id="Vector_2" d="M59.2113 1.07198C56.2612 -0.889041 52.2644 -0.0834007 50.3034 2.86677L10.9933 62.0169C9.03223 64.9671 9.83788 68.9637 12.788 70.9248C13.8546 71.633 15.0788 71.9998 16.3316 71.9998C16.7574 71.9998 17.1861 71.9582 17.6131 71.8723C19.2962 71.5326 20.7454 70.5592 21.6958 69.13L61.0061 9.97985C62.9671 7.02969 62.1615 3.03313 59.2113 1.07198Z" fill="var(--fill-0, #FF8E2B)"/>
<path id="Vector_3" d="M20.247 30.1367C28.2876 28.5169 33.5114 20.6567 31.8915 12.6161C30.2715 4.57403 22.41 -0.649764 14.3694 0.97164C6.3287 2.5915 1.10504 10.4514 2.7249 18.4921C3.50903 22.3827 5.76535 25.7371 9.07834 27.939C11.5512 29.5818 14.3881 30.4349 17.2867 30.4349C18.27 30.4334 19.2606 30.336 20.247 30.1367ZM16.9082 13.5694C17.0415 13.5421 17.1762 13.5294 17.3095 13.5294C17.7037 13.5294 18.0908 13.6455 18.4277 13.869C18.8792 14.1702 19.1874 14.6259 19.2935 15.155C19.3995 15.6824 19.2935 16.2229 18.9938 16.6746C18.6928 17.1261 18.237 17.433 17.7079 17.5404C17.1805 17.6464 16.64 17.5404 16.1884 17.2393C15.7368 16.9396 15.43 16.4825 15.3225 15.9548C15.1019 14.8596 15.8144 13.7902 16.9082 13.5694Z" fill="var(--fill-0, #FF8E2B)"/>
<path id="Vector_4" d="M59.2111 1.07198C56.261 -0.889041 52.2642 -0.0834007 50.3033 2.86677L36 24.3889V47.6063L61.006 9.97985C62.967 7.02969 62.1613 3.03313 59.2111 1.07198Z" fill="var(--fill-0, #FF8E2B)"/>
</g>
</svg>
