<svg preserveAspectRatio="none" width="100%" height="100%" overflow="visible" style="display: block;" viewBox="0 0 69.7522 71.9999" fill="none" xmlns="http://www.w3.org/2000/svg">
<g id="Group">
<path id="Vector" d="M31.2343 13.2478C30.9006 13.2478 30.5714 13.0946 30.3584 12.805C29.3704 11.4626 27.6122 9.92268 24.8458 10.2181C21.5887 10.565 19.17 9.5285 17.7142 8.59796C17.2087 8.2748 17.0609 7.60303 17.3839 7.09749C17.7069 6.5918 18.3789 6.44414 18.8843 6.76716C20.0472 7.51022 21.9855 8.3381 24.6157 8.0574C28.6077 7.63355 31.0235 10.0428 32.1085 11.5172C32.4641 12.0004 32.3606 12.6806 31.8773 13.0362C31.6834 13.1788 31.4579 13.2478 31.2343 13.2478Z" fill="var(--fill-0, #FFD064)"/>
<path id="Vector_2" d="M19.8598 19.0169C19.6659 19.0169 19.4699 18.9652 19.2924 18.8562C18.781 18.5423 18.6211 17.8734 18.935 17.3619C20.3276 15.0933 22.8796 13.534 26.3154 12.8528C28.8205 12.3563 30.9224 12.4922 31.0105 12.4985C31.6091 12.5395 32.061 13.058 32.02 13.6566C31.9789 14.2548 31.4592 14.7034 30.8631 14.6663C30.7877 14.6613 23.4105 14.2239 20.7867 18.4986C20.5816 18.8329 20.225 19.0169 19.8598 19.0169Z" fill="var(--fill-0, #FFD064)"/>
<path id="Vector_3" d="M36.2353 60.6483C54.078 60.6483 63.944 34.4766 35.7677 14.2628C35.0668 13.7599 34.6505 12.9503 34.66 12.0877C34.6677 11.3748 34.8935 10.6829 35.3023 10.0989C36.6213 8.21518 38.5201 4.99289 39.6587 2.39752C39.9314 1.77595 39.5411 1.10742 38.8118 1.10742C37.1193 1.10756 37.1193 0 35.4269 0C33.7345 0 33.7345 1.10756 32.0419 1.10756C30.5997 1.10756 30.0079 -0.133313 29.3068 0.769219C27.2618 3.40116 34.266 12.6567 34.266 12.6567C3.3322 32.9925 13.3063 60.6485 31.5702 60.6485L36.2353 60.6483Z" fill="var(--fill-0, #FF7500)"/>
<path id="Vector_4" d="M43.2496 12.6565C43.2496 12.6565 50.3578 3.43097 48.3137 0.784547C47.6171 -0.117422 47.0231 1.10756 45.5824 1.10756C43.8897 1.10742 43.8897 0 42.1969 0C40.5045 0 40.5045 1.10742 38.8119 1.10742C38.7285 1.10742 38.6524 1.10278 38.5769 1.09758C37.8968 4.01273 34.8322 8.55418 33.0784 10.9859C33.7691 11.9994 34.2663 12.6564 34.2663 12.6564C33.8537 12.9276 33.4499 13.2005 33.0517 13.4743C62.607 33.7888 52.7177 60.6482 34.6422 60.6482H46.0551C64.3741 60.6483 74.2865 33.0599 43.2496 12.6565Z" fill="var(--fill-0, #FF7500)"/>
<path id="Vector_5" d="M44.5714 15.9379C40.4411 16.9811 36.3606 16.9811 32.2296 15.9379C30.7918 15.5748 29.9768 13.958 30.4941 12.4884C30.4999 12.4719 30.5056 12.4554 30.5114 12.439C30.9453 11.2068 32.1755 10.5154 33.3814 10.8181C36.7635 11.6672 40.0364 11.6676 43.4194 10.8181C44.6253 10.5154 45.8556 11.2068 46.2894 12.439C46.2952 12.4554 46.301 12.4719 46.3067 12.4884C46.8242 13.958 46.0091 15.5748 44.5714 15.9379Z" fill="var(--fill-0, #FFE07D)"/>
<path id="Vector_6" d="M5.73492 65.3932L21.4647 71.248C22.8006 71.7453 24.2146 71.9999 25.6401 71.9999H41.8508C44.1194 71.9999 46.3413 71.3553 48.2575 70.141L68.5549 57.2794C69.8941 56.0903 70.1423 54.092 69.1349 52.6114C68.0325 50.9914 66.209 50.7098 64.2025 51.6587L44.441 60.3597L44.4643 57.1536C44.2026 54.5219 42.1763 52.4099 39.5579 52.0394L27.5238 50.6539C24.7477 50.2611 23.3606 49.3308 20.9404 47.9151C17.6364 45.9823 13.8775 44.9637 10.0497 44.9637H5.73492V65.3932Z" fill="var(--fill-0, #FFDDCE)"/>
<path id="Vector_7" d="M20.5094 68.1284C21.9138 68.6511 23.4004 68.9188 24.8989 68.9188H41.9406C43.755 68.9188 45.5404 68.5256 47.1779 67.776L59.0944 60.2249C60.2015 59.5234 60.9044 58.3022 60.8684 56.992C60.8493 56.2971 60.6369 55.6016 60.2208 54.9902C60.2208 54.9902 59.858 54.3685 59.4851 53.7357L44.441 60.3597L44.4643 57.1536C44.2026 54.5219 42.1763 52.4099 39.5579 52.0394L27.5238 50.6539C24.7477 50.2611 23.3606 49.3308 20.9404 47.9151C17.6364 45.9823 13.8775 44.9637 10.0497 44.9637H5.73492V62.6291L20.5094 68.1284Z" fill="var(--fill-0, #FFDDCE)"/>
<path id="Vector_8" d="M69.1347 52.6114C68.0324 50.9914 66.2089 50.7099 64.2023 51.6587L58.7667 54.052C59.03 54.4687 59.2393 54.8013 59.2393 54.8013C60.2468 56.2819 59.9986 58.2802 58.6594 59.4693L46.8324 66.9635C45.2747 67.6766 43.5764 68.0507 41.8505 68.0507H25.6401C24.2146 68.0507 22.8006 67.7959 21.4647 67.2987L5.73492 61.4438V65.3931L21.4647 71.2481C22.8006 71.7453 24.2146 71.9999 25.6401 71.9999H38.8845H41.8509C44.1195 71.9999 46.3413 71.3553 48.2577 70.1411L68.5551 57.2795C69.8939 56.0903 70.1423 54.0919 69.1347 52.6114Z" fill="var(--fill-0, #FFCBBE)"/>
<path id="Vector_9" d="M42.9882 53.8505L42.9876 53.9278L43.0387 53.9053C43.0221 53.8868 43.0049 53.8689 42.9882 53.8505Z" fill="var(--fill-0, #F5DBCC)"/>
<path id="Vector_10" d="M44.4409 60.3578H32.1533C31.5532 60.3578 31.0668 59.8715 31.0668 59.2713C31.0668 58.6711 31.5531 58.1848 32.1533 58.1848H44.4568L44.4409 60.3578Z" fill="var(--fill-0, #FFCBBE)"/>
<path id="Vector_11" d="M9.1204 68.5262C9.1204 69.6675 8.19524 70.5927 7.05389 70.5927H2.06648C0.925175 70.5927 0 69.6675 0 68.5262V43.2228C0 42.0814 0.925175 41.1563 2.06648 41.1563H7.05389C8.19524 41.1563 9.1204 42.0814 9.1204 43.2228V68.5262Z" fill="var(--fill-0, #005F86)"/>
<path id="Vector_12" d="M41.1505 33.6694C40.653 33.4935 40.1952 33.3253 39.7727 33.1629V26.2357C41.0578 26.4487 41.8293 27.1135 41.8858 27.1637C42.3272 27.565 43.0101 27.5355 43.4151 27.0963C43.8219 26.6552 43.7942 25.9681 43.3531 25.5612C43.2767 25.4904 41.9461 24.2917 39.7726 24.0414V22.4966C39.7726 21.8966 39.2863 21.4102 38.6862 21.4102C38.0859 21.4102 37.5996 21.8964 37.5996 22.4966V24.1294C37.3377 24.1796 37.0694 24.2435 36.7936 24.3264C34.9505 24.8815 33.573 26.4618 33.1982 28.4504C32.8582 30.2549 33.4302 31.9903 34.6914 32.9795C35.4153 33.5474 36.3269 34.0673 37.5996 34.623V43.2155C36.3424 43.1628 35.5701 42.9259 34.2206 42.0432C33.7184 41.7149 33.0453 41.8555 32.7167 42.3577C32.3882 42.8597 32.529 43.533 33.0312 43.8615C34.8047 45.0218 35.9903 45.3244 37.5996 45.387V47.1116C37.5996 47.7117 38.0859 48.1981 38.6862 48.1981C39.2863 48.1981 39.7726 47.7118 39.7726 47.1116V45.3107C42.8224 44.8158 44.6022 42.3471 44.9892 40.0442C45.4733 37.1669 43.9662 34.6648 41.1505 33.6694ZM36.0324 31.2697C35.4121 30.7832 35.1445 29.8571 35.3338 28.8527C35.5091 27.9214 36.1495 26.7898 37.4205 26.407C37.4809 26.3887 37.5405 26.3729 37.6 26.357V32.2258C36.9492 31.901 36.4391 31.5886 36.0324 31.2697ZM42.8467 39.6837C42.6069 41.1094 41.5604 42.6316 39.7727 43.0898V35.4828C39.9841 35.5601 40.2001 35.6382 40.4262 35.718C43.1301 36.6737 42.9624 38.995 42.8467 39.6837Z" fill="var(--fill-0, white)"/>
</g>
</svg>
