<svg width="240" height="240" overflow="visible" style="display: block;" viewBox="0 0 240 240" fill="none" xmlns="http://www.w3.org/2000/svg">
<g id="avanz-fav-icon.svg" clip-path="url(#clip0_0_324)">
<path id="Vector" d="M231.87 92.7943C231.339 91.1663 230.626 89.5589 229.656 88.0006C229.656 88.0006 207.381 38.1045 66.56 3.02226C64.4514 2.49346 23.5394 -5.97446 16.026 8.00417C16.026 8.00417 6.32 19.9371 52.1757 55.3255C52.3363 55.3117 52.4341 55.2977 52.4341 55.2977C183.975 48.3885 225.473 85.9823 231.87 92.7943Z" fill="var(--fill-0, #FF7500)"/>
<path id="Vector_2" d="M110.991 140.034C109.546 146.372 106.69 154.158 101.349 163.211C101.349 163.211 75.8612 204.951 104.945 202.467C104.945 202.467 122.213 200.38 129.175 195.454C137.742 154.993 112.633 140.91 110.991 140.034Z" fill="var(--fill-0, #FF7500)"/>
<path id="Vector_3" d="M232.797 93.8463C232.797 93.8463 232.497 93.4709 231.861 92.796C245.107 133.43 129.159 195.454 129.159 195.454C129.159 195.454 116.094 235.692 137.706 237.265C137.706 237.265 151.937 243.569 201.486 181.594C201.486 181.594 251.978 113.767 232.797 93.8463Z" fill="var(--fill-0, #FFA300)"/>
<path id="Vector_4" d="M111.227 120.753C108.986 99.2943 53.6964 56.5163 53.6964 56.5163C53.1657 56.1127 52.6839 55.73 52.1741 55.3265C46.4064 55.9527 -59.6194 68.2269 48.1032 109.119C48.1032 109.119 88.8337 125.178 110.899 139.998C110.899 139.998 110.927 140.013 110.983 140.04C113.818 127.627 111.227 120.753 111.227 120.753Z" fill="var(--fill-0, #FFA300)"/>
<path id="Vector_5" d="M231.87 92.7937C225.474 85.9817 183.975 48.3876 52.4347 55.2969C52.4347 55.2969 52.3369 55.3108 52.1763 55.3247C52.6931 55.7213 53.1749 56.104 53.7056 56.5075C53.7056 56.5075 108.995 99.2851 111.237 120.744C111.237 120.744 113.827 127.611 110.999 140.031C112.64 140.908 137.743 154.991 129.182 195.452C129.182 195.452 245.123 133.421 231.884 92.7869" fill="var(--fill-0, #E01837)"/>
</g>
<defs>
<clipPath id="clip0_0_324">
<rect width="240" height="240" fill="white"/>
</clipPath>
</defs>
</svg>
