<svg width="100" height="100" overflow="visible" style="display: block;" viewBox="0 0 100 100" fill="none" xmlns="http://www.w3.org/2000/svg">
<g id="SVG">
<path id="Vector" d="M40 62.5H39.9969C39.9969 59.9719 40.2062 61.1359 26.7078 34.1391C23.95 28.625 16.0531 28.6141 13.2906 34.1391C-0.321876 61.3672 0.003125 60.0516 0.003125 62.5H0C0 69.4031 8.95469 75 20 75C31.0453 75 40 69.4031 40 62.5ZM20 37.5L31.25 60H8.75L20 37.5ZM99.9969 62.5C99.9969 59.9719 100.206 61.1359 86.7078 34.1391C83.95 28.625 76.0531 28.6141 73.2906 34.1391C59.6781 61.3672 60.0031 60.0516 60.0031 62.5H60C60 69.4031 68.9547 75 80 75C91.0453 75 100 69.4031 100 62.5H99.9969ZM68.75 60L80 37.5L91.25 60H68.75ZM82.5 80H55V33.9453C58.6734 32.3375 61.4313 29.0266 62.2484 25H82.5C83.8813 25 85 23.8813 85 22.5V17.5C85 16.1187 83.8813 15 82.5 15H59.9438C57.6625 11.9813 54.0766 10 50 10C45.9234 10 42.3375 11.9813 40.0562 15H17.5C16.1187 15 15 16.1187 15 17.5V22.5C15 23.8813 16.1187 25 17.5 25H37.7516C38.5688 29.025 41.325 32.3375 45 33.9453V80H17.5C16.1187 80 15 81.1187 15 82.5V87.5C15 88.8813 16.1187 90 17.5 90H82.5C83.8813 90 85 88.8813 85 87.5V82.5C85 81.1187 83.8813 80 82.5 80Z" fill="var(--fill-0, #FF7500)"/>
</g>
</svg>
