<svg width="455" height="140" overflow="visible" style="display: block;" viewBox="0 0 454.8 140.251" fill="none" xmlns="http://www.w3.org/2000/svg">
<g id="fogade.svg" clip-path="url(#clip0_0_332)">
<path id="Vector" d="M454.8 2.80498H454.197V3.44738H454.8V2.80498ZM454.8 133.998H454.197V134.639H454.8V133.998Z" fill="var(--fill-0, #D7F2FC)"/>
<path id="Vector_2" d="M165.72 87.8355C165.72 85.4103 165.72 84.9748 165.688 84.4757C165.654 83.9481 165.534 83.7003 165.021 83.5911L164.491 83.5411L164.366 83.4501L164.616 83.325C164.972 83.325 165.393 83.325 165.735 83.3398L166.375 83.3705C166.682 83.3853 169.841 83.3705 170.198 83.3569C170.493 83.3376 170.741 83.3376 170.88 83.2932L171.098 83.2L171.191 83.3364C171.191 83.4467 171.115 83.632 171.068 84.0675L170.991 85.0954L170.868 85.2659L170.759 85.0806C170.759 84.9578 170.711 84.694 170.62 84.4893C170.526 84.2869 170.169 84.0084 169.563 83.9913L167.166 83.9458L167.03 84.1141V88.4086L167.138 88.5496L169.125 88.5348C169.389 88.5348 169.609 88.5348 169.825 88.5154C170.2 88.4882 170.401 88.4393 170.541 88.2369L170.714 88.0823L170.79 88.2051C170.79 88.2983 170.714 88.5632 170.665 89.0783C170.633 89.3853 170.602 90.0106 170.602 90.1198L170.498 90.412L170.386 90.271L170.293 89.7138C170.217 89.4955 169.966 89.2136 169.486 89.1567C169.095 89.1044 167.403 89.1044 167.138 89.1044L167.029 89.2465V90.5689C167.029 92.0629 167.029 93.2886 167.105 93.9435C167.154 94.3937 167.246 94.7394 167.712 94.7962C167.928 94.8303 168.273 94.861 168.414 94.861L168.536 94.9543L168.289 95.0759C167.433 95.0759 166.455 95.0305 166.378 95.0305C166.299 95.0305 165.319 95.0759 164.851 95.0759L164.603 94.9543L164.729 94.861L165.191 94.7974C165.504 94.7383 165.582 94.3937 165.644 93.9446C165.723 93.2886 165.723 92.0629 165.723 90.5677V87.8321L165.72 87.8355ZM178.751 94.7075C179.977 94.7075 182.451 94.0526 182.451 90.23C182.451 87.0578 180.521 85.3955 178.36 85.3955C176.072 85.3955 174.426 86.8236 174.426 89.7048C174.426 92.7815 176.277 94.7075 178.751 94.7075ZM178.437 84.8975C181.514 84.8975 183.849 86.7781 183.849 89.8548C183.849 92.811 181.655 95.2556 178.358 95.2556C174.613 95.2556 173.01 92.4381 173.01 90.0572C173.01 87.9288 174.659 84.8975 178.437 84.8975ZM187.287 93.2795C187.317 94.3642 187.441 94.6939 187.814 94.7826C188.064 94.8474 188.376 94.8622 188.499 94.8622L188.608 94.9759L188.358 95.0805C187.581 95.0805 187.039 95.035 186.914 95.035C186.789 95.035 186.212 95.0805 185.593 95.0805L185.373 94.9747L185.482 94.8645C185.593 94.8645 185.842 94.8485 186.043 94.7849C186.384 94.6939 186.432 94.3358 186.432 93.1419V85.5661C186.432 85.0385 186.508 84.8987 186.619 84.8987L187.148 85.3023C187.364 85.5183 189.354 87.6331 191.469 89.8116C192.819 91.2101 194.284 92.7815 194.704 93.2169L194.566 86.5905C194.549 85.7378 194.471 85.4387 194.051 85.3626C193.801 85.3171 193.491 85.3012 193.38 85.3012L193.275 85.1784L193.539 85.084C194.159 85.084 194.812 85.1158 194.969 85.1158C195.124 85.1158 195.574 85.084 196.136 85.084L196.384 85.1784L196.229 85.3012L195.902 85.333C195.451 85.4239 195.42 85.6911 195.42 86.4814L195.389 94.23C195.389 95.0964 195.372 95.1771 195.279 95.1771C195.14 95.1771 194.998 95.0668 194.237 94.3653C194.098 94.2448 192.122 92.2982 190.678 90.7894C189.091 89.126 187.552 87.5092 187.133 87.0419L187.287 93.2795ZM200.596 90.3392C200.596 91.7377 200.596 92.9657 200.613 93.2158C200.632 93.5433 200.659 94.0231 200.769 94.1663C200.94 94.4131 201.424 94.6928 203.039 94.6928C204.301 94.6928 205.418 94.2744 206.243 93.4944C206.959 92.8235 207.315 91.566 207.315 90.3563C207.315 88.6712 206.585 87.6002 206.026 87.0419C204.734 85.7343 203.225 85.5638 201.594 85.5638C201.329 85.5638 200.894 85.6138 200.769 85.6548L200.599 85.922V90.3381L200.596 90.3392ZM199.354 88.9111C199.354 86.8577 199.354 86.4814 199.32 86.0607C199.289 85.6172 199.211 85.3955 198.762 85.333L198.294 85.3012L198.187 85.1931L198.403 85.0851C199.026 85.0851 199.912 85.117 199.989 85.117C200.146 85.117 201.017 85.0851 201.827 85.0851C203.194 85.0851 205.698 84.96 207.313 86.5916C208 87.2761 208.654 88.379 208.654 89.9515C208.654 91.6149 207.938 92.8906 207.176 93.6661C206.583 94.2744 205.357 95.1931 203.024 95.1931C202.433 95.1931 201.702 95.1442 201.111 95.1135C200.52 95.0646 200.054 95.0339 199.991 95.0339C199.963 95.0339 199.714 95.0509 199.434 95.0509C199.154 95.0657 198.827 95.0805 198.609 95.0805L198.393 94.9736L198.503 94.8633L198.92 94.8019C199.185 94.7394 199.218 94.4881 199.28 94.1015C199.357 93.5558 199.357 92.5166 199.357 91.2397V88.9089L199.354 88.9111ZM216.114 94.7075C217.34 94.7075 219.814 94.0526 219.814 90.23C219.814 87.0578 217.884 85.3955 215.723 85.3955C213.438 85.3955 211.789 86.8236 211.789 89.7048C211.789 92.7815 213.64 94.7075 216.114 94.7075ZM215.801 84.8975C218.878 84.8975 221.211 86.7781 221.211 89.8548C221.211 92.811 219.017 95.2556 215.722 95.2556C211.975 95.2556 210.373 92.4381 210.373 90.0572C210.373 87.9288 212.023 84.8975 215.801 84.8975ZM230.791 90.3392C230.791 91.7377 230.791 92.9657 230.808 93.2158C230.825 93.5433 230.853 94.0231 230.962 94.1663C231.133 94.4131 231.617 94.6928 233.232 94.6928C234.489 94.6928 235.61 94.2744 236.436 93.4944C237.15 92.8235 237.508 91.566 237.508 90.3563C237.508 88.6712 236.778 87.6002 236.217 87.0419C234.926 85.7343 233.417 85.5638 231.783 85.5638C231.522 85.5638 231.085 85.6138 230.962 85.6548L230.792 85.922V90.3381L230.791 90.3392ZM229.548 88.9111C229.548 86.8577 229.548 86.4814 229.514 86.0607C229.483 85.6172 229.406 85.3955 228.957 85.333L228.488 85.3012L228.379 85.1931L228.598 85.0851C229.218 85.0851 230.105 85.117 230.181 85.117C230.337 85.117 231.209 85.0851 232.02 85.0851C233.384 85.0851 235.889 84.96 237.508 86.5916C238.19 87.2761 238.846 88.379 238.846 89.9515C238.846 91.6149 238.13 92.8906 237.368 93.6661C236.777 94.2744 235.549 95.1931 233.218 95.1931C232.627 95.1931 231.895 95.1442 231.304 95.1135C230.713 95.0646 230.247 95.0339 230.182 95.0339C230.155 95.0339 229.906 95.0509 229.625 95.0509C229.344 95.0657 229.02 95.0805 228.801 95.0805L228.582 94.9736L228.693 94.8633L229.111 94.8019C229.375 94.7394 229.407 94.4881 229.468 94.1015C229.546 93.5558 229.546 92.5166 229.546 91.2397V88.9089L229.548 88.9111ZM241.988 88.91C241.988 86.8588 241.988 86.4814 241.958 86.0629C241.924 85.6138 241.849 85.3955 241.396 85.3319L240.93 85.2977L240.821 85.1909L241.039 85.0828C241.66 85.0828 242.548 85.117 242.627 85.117C242.718 85.117 245.578 85.1306 245.89 85.117C246.151 85.0999 246.404 85.0544 246.512 85.0374L246.697 84.976L246.761 85.101C246.761 85.192 246.681 85.3512 246.649 85.7218L246.572 86.5928L246.447 86.7326L246.336 86.5666L246.259 86.0948C246.165 85.8787 246.027 85.7855 245.279 85.6923C245.047 85.6604 243.46 85.6445 243.304 85.6445L243.228 85.7855V89.3762L243.305 89.5172C243.476 89.5172 245.282 89.5172 245.593 89.4853C245.921 89.4535 246.121 89.4398 246.261 89.2977L246.465 89.1272L246.54 89.234C246.54 89.3136 246.464 89.5297 246.431 89.9663C246.399 90.2323 246.366 90.7315 246.366 90.8236L246.245 91.0714L246.149 90.9486L246.09 90.5132C246.045 90.3256 245.919 90.1721 245.391 90.1095C245.016 90.0595 243.554 90.0447 243.321 90.0447L243.227 90.1402V91.2431C243.227 91.6979 243.21 93.2329 243.227 93.4989C243.261 94.3858 243.508 94.5563 244.862 94.5563C245.219 94.5563 245.874 94.5563 246.23 94.4153C246.587 94.2607 246.776 94.0265 246.851 93.5001L246.991 93.2988L247.084 93.5012C247.084 93.5956 246.976 94.4938 246.9 94.7769C246.804 95.118 246.663 95.118 246.138 95.118C245.11 95.118 244.319 95.0839 243.756 95.0703C243.183 95.0407 242.826 95.0407 242.623 95.0407C242.591 95.0407 242.328 95.0407 242.032 95.0555C241.767 95.0714 241.454 95.085 241.238 95.085L241.022 94.9827L241.13 94.8713L241.548 94.8076C241.811 94.7599 241.846 94.4938 241.905 94.1072C241.984 93.5615 241.984 92.5211 241.984 91.2465V88.9157L241.988 88.91ZM263.352 91.1158C263.352 89.856 263.272 89.6854 262.653 89.516L262.123 89.4671L261.998 89.3762L262.244 89.2511C262.946 89.2511 263.927 89.2966 264.005 89.2966C264.08 89.2966 265.062 89.2511 265.526 89.2511L265.776 89.3762L265.651 89.4671L265.262 89.516C264.841 89.5922 264.719 89.8571 264.687 90.4029C264.655 90.8997 264.655 91.3648 264.655 92.0151V93.7593C264.655 94.4608 264.638 94.487 264.454 94.6007C263.458 95.1282 262.059 95.2977 261.156 95.2977C259.974 95.2977 257.766 95.143 256.04 93.6342C255.093 92.8099 254.19 91.1442 254.19 89.2056C254.19 86.7156 255.403 84.9623 256.787 84.0891C258.188 83.217 259.726 83.109 260.922 83.109C261.905 83.109 263.006 83.3103 263.302 83.3728C263.629 83.4524 264.174 83.5126 264.561 83.5297L264.747 83.6661C264.747 83.889 264.639 84.3222 264.639 85.8776C264.639 86.1243 264.609 86.2051 264.5 86.2051L264.391 85.9663C264.374 85.7503 264.298 85.3182 264.064 84.943C263.677 84.3518 262.417 83.6809 260.412 83.6809C259.432 83.6809 258.265 83.7764 257.086 84.7088C256.179 85.4251 255.544 86.8406 255.544 88.6598C255.544 90.8508 256.647 92.4381 257.191 92.9668C258.421 94.1652 259.834 94.6314 261.267 94.6314C261.824 94.6314 262.634 94.5359 263.037 94.3016C263.238 94.1925 263.349 94.0219 263.349 93.7582V91.1146L263.352 91.1158ZM272.618 90.852L272.666 90.7576L271.313 87.1351C271.236 86.935 271.157 86.935 271.079 87.1351L269.806 90.7576L269.851 90.852H272.618ZM271.095 85.3489C271.265 84.9123 271.329 84.8327 271.42 84.8327C271.56 84.8327 271.607 85.0215 271.748 85.3193C271.995 85.8765 274.189 91.3341 275.029 93.3386C275.526 94.5279 275.9 94.6962 276.193 94.7871C276.394 94.8485 276.599 94.8667 276.739 94.8667L276.91 94.9759L276.599 95.0828C276.394 95.0828 275.389 95.0828 274.437 95.0532C274.173 95.0373 273.957 95.0373 273.957 94.9622L274.05 94.8656C274.126 94.836 274.266 94.7257 274.173 94.5086L272.945 91.4751L272.82 91.3989H269.663L269.527 91.5069L268.748 93.6217C268.623 93.9492 268.546 94.2744 268.546 94.5086C268.546 94.7701 268.78 94.8645 269.012 94.8645H269.134L269.273 94.9747L269.073 95.0816C268.747 95.0816 267.999 95.0361 267.845 95.0361C267.703 95.0361 267.021 95.0816 266.46 95.0816L266.197 94.9747L266.319 94.8645L266.725 94.8349C267.346 94.7553 267.612 94.2891 267.877 93.6217L271.095 85.3489ZM279.895 90.0277L279.989 90.1982C280.19 90.3085 280.891 90.4029 281.495 90.4029C281.822 90.4029 282.197 90.3847 282.521 90.1675C282.99 89.856 283.347 89.159 283.347 88.1437C283.347 86.4996 282.443 85.5513 280.982 85.5513C280.577 85.5513 280.141 85.5968 280.002 85.6286L279.893 85.7844V90.0288L279.895 90.0277ZM278.713 88.91C278.713 86.8588 278.713 86.4814 278.681 86.0618C278.651 85.6138 278.572 85.3944 278.124 85.3341L277.658 85.3L277.546 85.1931L277.765 85.0828C278.388 85.0828 279.303 85.117 279.379 85.117C279.522 85.117 280.672 85.0828 281.09 85.0828C281.966 85.0828 282.928 85.1602 283.644 85.6593C283.985 85.9094 284.591 86.5462 284.591 87.4637C284.591 88.4415 284.186 89.3909 282.912 90.4791C284.032 91.8776 284.979 93.0782 285.771 93.9014C286.501 94.6462 286.954 94.7724 287.295 94.819C287.559 94.8645 287.7 94.8645 287.776 94.8645L287.904 94.9759C287.904 95.0521 287.825 95.0816 287.577 95.0816H286.721C285.945 95.0816 285.603 95.0066 285.259 94.8201C284.67 94.5074 284.173 93.8741 283.394 92.8758C282.817 92.1595 282.214 91.3045 281.918 90.9475L281.732 90.8713L279.989 90.8395L279.898 90.9475V91.2602C279.898 92.5336 279.898 93.5592 279.958 94.1027C280.003 94.4927 280.083 94.7428 280.504 94.8031L281.108 94.8667L281.22 94.977L281 95.0828C280.252 95.0828 279.381 95.0373 279.322 95.0373C279.305 95.0373 278.39 95.0828 277.969 95.0828L277.753 94.9782L277.86 94.869L278.278 94.8053C278.542 94.7451 278.574 94.4949 278.637 94.1061C278.716 93.5603 278.716 92.5211 278.716 91.2454V88.9145L278.713 88.91Z" fill="var(--fill-0, #231F20)"/>
<path id="Vector_3" d="M292.846 90.852L292.891 90.7576L291.54 87.1351C291.461 86.935 291.385 86.935 291.307 87.1351L290.032 90.7576L290.077 90.852H292.845H292.846ZM291.322 85.3489C291.495 84.9123 291.556 84.8327 291.65 84.8327C291.786 84.8327 291.835 85.0215 291.975 85.3193C292.225 85.8765 294.417 91.3341 295.256 93.3386C295.756 94.5279 296.127 94.6962 296.425 94.7871C296.625 94.8485 296.826 94.8667 296.967 94.8667L297.138 94.9759L296.826 95.0828C296.626 95.0828 295.617 95.0828 294.668 95.0532C294.403 95.0373 294.184 95.0373 294.184 94.9622L294.277 94.8656C294.357 94.836 294.497 94.7257 294.402 94.5086L293.174 91.4751L293.049 91.3989H289.894L289.754 91.5069L288.976 93.6217C288.854 93.9492 288.774 94.2744 288.774 94.5086C288.774 94.7701 289.008 94.8645 289.243 94.8645H289.364L289.504 94.9747L289.302 95.0816C288.974 95.0816 288.228 95.0361 288.074 95.0361C287.934 95.0361 287.252 95.0816 286.69 95.0816L286.428 94.9747L286.549 94.8645L286.954 94.8349C287.577 94.7553 287.843 94.2891 288.106 93.6217L291.323 85.3489H291.322ZM299.518 93.2795C299.549 94.3642 299.67 94.6939 300.044 94.7826C300.296 94.8474 300.607 94.8622 300.73 94.8622L300.84 94.9759L300.59 95.0805C299.814 95.0805 299.271 95.035 299.146 95.035C299.018 95.035 298.445 95.0805 297.822 95.0805L297.606 94.9747L297.711 94.8645C297.822 94.8645 298.07 94.8485 298.273 94.7849C298.614 94.6939 298.661 94.3358 298.661 93.1419V85.5661C298.661 85.0385 298.738 84.8987 298.848 84.8987L299.378 85.3023C299.594 85.5183 301.586 87.6331 303.698 89.8116C305.051 91.2101 306.514 92.7815 306.934 93.2169L306.794 86.5905C306.777 85.7378 306.701 85.4387 306.281 85.3626C306.03 85.3171 305.723 85.3012 305.613 85.3012L305.504 85.1784L305.768 85.084C306.391 85.084 307.043 85.1158 307.198 85.1158C307.355 85.1158 307.804 85.084 308.365 85.084L308.615 85.1784L308.459 85.3012L308.133 85.333C307.682 85.424 307.651 85.6911 307.651 86.4814L307.62 94.23C307.62 95.0964 307.603 95.1771 307.51 95.1771C307.37 95.1771 307.229 95.0669 306.468 94.3653C306.329 94.2448 304.353 92.2983 302.909 90.7895C301.323 89.126 299.783 87.5092 299.362 87.0419L299.519 93.2783L299.518 93.2795ZM314.881 91.2408C314.881 92.5177 314.881 93.5569 314.941 94.1027C314.987 94.4893 315.051 94.7394 315.47 94.7997L316.091 94.8633L316.201 94.9747L315.985 95.0816C315.237 95.0816 314.368 95.0361 314.291 95.0361C314.227 95.0361 313.279 95.0816 312.874 95.0816L312.658 94.9759L312.766 94.8792L313.168 94.819C313.449 94.7553 313.525 94.4927 313.572 94.1049C313.636 93.5592 313.636 92.52 313.636 91.2431V85.6923L311.662 85.7218C310.806 85.74 310.479 85.8333 310.275 86.1459C310.12 86.3779 310.104 86.4689 310.059 86.5666L309.92 86.6883L309.825 86.5791L310.12 85.1488L310.262 84.9009C310.355 84.9009 310.495 85.0067 310.867 85.0556C311.256 85.101 311.784 85.1192 311.938 85.1192H317.102C317.553 85.1192 317.864 85.0874 318.08 85.0556C318.285 85.0237 318.41 84.9942 318.47 84.9942L318.534 85.1499C318.534 85.5547 318.486 86.503 318.486 86.6587L318.359 86.8259L318.254 86.5951L318.237 86.4552C318.192 86.0516 317.896 85.756 316.589 85.7241L314.878 85.6957V91.2465L314.881 91.2408ZM324.363 83.001L324.3 83.1852C324.254 83.1852 324.098 83.1534 323.834 83.1852C323.072 83.2625 321.986 83.6218 321.472 83.8401L321.238 83.9163L321.163 83.8253L321.268 83.7003C321.829 83.3114 323.276 82.4382 323.383 82.3779C323.648 82.2233 323.741 82.1733 323.82 82.1733L323.976 82.3143C324.085 82.4734 324.192 82.6861 324.364 83.001M322.621 91.2397C322.621 92.5166 322.621 93.5558 322.684 94.1027C322.729 94.4893 322.775 94.7394 323.18 94.8008C323.384 94.8326 323.68 94.8656 323.802 94.8656L323.911 94.9736L323.697 95.0794C322.935 95.0794 322.046 95.0339 321.986 95.0339C321.909 95.0339 321.051 95.0794 320.633 95.0794L320.417 94.9736L320.521 94.8656L320.942 94.8008C321.204 94.7394 321.254 94.4893 321.3 94.1027C321.359 93.5569 321.376 92.5166 321.376 91.2397V88.9111C321.376 86.8577 321.376 86.4814 321.345 86.0607C321.311 85.6172 321.205 85.4126 320.909 85.3478L320.491 85.3023L320.38 85.1931L320.6 85.084C321.05 85.084 321.907 85.1181 321.985 85.1181C322.045 85.1181 322.933 85.084 323.351 85.084L323.567 85.1943L323.459 85.3023L323.118 85.3341C322.745 85.4137 322.667 85.5979 322.637 86.0618C322.62 86.4825 322.62 86.86 322.62 88.9123V91.2431L322.621 91.2397ZM331.033 90.852L331.078 90.7576L329.725 87.1351C329.649 86.935 329.572 86.935 329.495 87.1351L328.219 90.7576L328.264 90.852H331.034H331.033ZM329.509 85.3489C329.68 84.9123 329.741 84.8327 329.837 84.8327C329.973 84.8327 330.022 85.0215 330.162 85.3193C330.412 85.8765 332.604 91.3341 333.443 93.3386C333.94 94.5279 334.314 94.6962 334.61 94.7871C334.811 94.8485 335.014 94.8667 335.153 94.8667L335.324 94.9759L335.014 95.0828C334.811 95.0828 333.8 95.0828 332.853 95.0532C332.587 95.0373 332.37 95.0373 332.37 94.9622L332.463 94.8656C332.54 94.836 332.683 94.7257 332.586 94.5086L331.358 91.4751L331.233 91.3989H328.076L327.937 91.5069L327.16 93.6217C327.035 93.9492 326.959 94.2744 326.959 94.5086C326.959 94.7701 327.193 94.8645 327.425 94.8645H327.55L327.687 94.9747L327.487 95.0816C327.159 95.0816 326.411 95.0361 326.256 95.0361C326.12 95.0361 325.433 95.0816 324.875 95.0816L324.609 94.9747L324.734 94.8645L325.139 94.8349C325.761 94.7553 326.026 94.2891 326.287 93.6217L329.508 85.3489H329.509ZM343.426 90.3392C343.426 91.7377 343.426 92.9657 343.443 93.2158C343.462 93.5433 343.492 94.0231 343.603 94.1663C343.773 94.4131 344.254 94.6928 345.87 94.6928C347.13 94.6928 348.249 94.2744 349.074 93.4944C349.788 92.8235 350.147 91.566 350.147 90.3563C350.147 88.6712 349.414 87.6002 348.858 87.0419C347.565 85.7344 346.056 85.5638 344.423 85.5638C344.162 85.5638 343.725 85.6138 343.603 85.6548L343.43 85.922V90.3381L343.426 90.3392ZM342.182 88.9111C342.182 86.8577 342.182 86.4814 342.148 86.0607C342.12 85.6172 342.044 85.3955 341.591 85.333L341.125 85.3012L341.016 85.1931L341.232 85.0851C341.855 85.0851 342.742 85.117 342.818 85.117C342.975 85.117 343.848 85.0851 344.655 85.0851C346.022 85.0851 348.527 84.9601 350.145 86.5916C350.827 87.2761 351.481 88.379 351.481 89.9515C351.481 91.6149 350.764 92.8906 350.003 93.6661C349.411 94.2744 348.183 95.1931 345.853 95.1931C345.259 95.1931 344.529 95.1442 343.938 95.1135C343.347 95.0646 342.881 95.0339 342.818 95.0339C342.791 95.0339 342.541 95.0509 342.261 95.0509C341.98 95.0657 341.655 95.0805 341.435 95.0805L341.219 94.9736L341.327 94.8633L341.746 94.8019C342.007 94.7394 342.041 94.4881 342.103 94.1015C342.182 93.5558 342.182 92.5166 342.182 91.2397V88.9089V88.9111ZM354.621 88.91C354.621 86.8588 354.621 86.4814 354.589 86.0629C354.555 85.6138 354.48 85.3955 354.03 85.3319L353.564 85.2977L353.453 85.1909L353.672 85.0829C354.293 85.0829 355.179 85.117 355.258 85.117C355.351 85.117 358.212 85.1306 358.523 85.117C358.787 85.0999 359.035 85.0544 359.144 85.0374L359.332 84.976L359.397 85.101C359.397 85.192 359.315 85.3512 359.285 85.7218L359.209 86.5928L359.084 86.7326L358.975 86.5666L358.897 86.0948C358.807 85.8788 358.665 85.7855 357.917 85.6923C357.684 85.6604 356.098 85.6445 355.944 85.6445L355.864 85.7855V89.3762L355.944 89.5172C356.116 89.5172 357.917 89.5172 358.229 89.4853C358.559 89.4535 358.758 89.4398 358.897 89.2977L359.1 89.1272L359.179 89.234C359.179 89.3136 359.1 89.5297 359.07 89.9663C359.038 90.2323 359.008 90.7315 359.008 90.8236L358.883 91.0714L358.792 90.9486L358.728 90.5132C358.68 90.3256 358.56 90.1721 358.029 90.1095C357.654 90.0595 356.194 90.0447 355.959 90.0447L355.866 90.1402V91.2431C355.866 91.6979 355.849 93.2329 355.866 93.4989C355.898 94.3858 356.147 94.5563 357.5 94.5563C357.857 94.5563 358.512 94.5563 358.869 94.4153C359.225 94.2607 359.409 94.0265 359.489 93.5001L359.627 93.2988L359.721 93.5012C359.721 93.5956 359.611 94.4938 359.535 94.7769C359.44 95.118 359.301 95.118 358.774 95.118C357.746 95.118 356.954 95.0839 356.393 95.0703C355.816 95.0407 355.46 95.0407 355.256 95.0407C355.227 95.0407 354.962 95.0407 354.664 95.0555C354.403 95.0714 354.092 95.085 353.874 95.085L353.658 94.9827L353.766 94.8713L354.185 94.8076C354.45 94.7599 354.48 94.4938 354.543 94.1072C354.622 93.5615 354.622 92.5211 354.622 91.2465V88.9157L354.621 88.91ZM369.906 89.516C369.906 91.1647 369.923 92.5939 369.935 92.8895C369.954 93.2783 369.985 93.8991 370.106 94.0686C370.311 94.3642 370.917 94.6939 372.75 94.6939C374.197 94.6939 375.535 94.1652 376.452 93.2465C377.259 92.4552 377.697 90.9634 377.697 89.5285C377.697 87.5547 376.844 86.2835 376.205 85.6172C374.743 84.0709 372.97 83.8526 371.119 83.8526C370.806 83.8526 370.234 83.9015 370.107 83.9663L369.923 84.2756C369.906 84.8032 369.906 86.3904 369.906 87.5911V89.516ZM368.598 87.8333C368.598 85.4114 368.598 84.9737 368.571 84.4768C368.539 83.947 368.415 83.6991 367.902 83.59L367.374 83.5445L367.249 83.4501L367.499 83.3251C368.197 83.3251 369.177 83.3739 369.253 83.3739C369.441 83.3739 370.42 83.3251 371.353 83.3251C372.892 83.3251 375.74 83.1841 377.589 85.0988C378.365 85.9083 379.099 87.1988 379.099 89.0498C379.099 91.0055 378.289 92.5177 377.416 93.4353C376.749 94.1311 375.352 95.2203 372.706 95.2203C372.039 95.2203 371.215 95.1749 370.546 95.1294C369.864 95.0805 369.333 95.0361 369.254 95.0361C369.224 95.0361 368.959 95.0361 368.635 95.0475C368.322 95.0475 367.964 95.0794 367.731 95.0794L367.483 94.9588L367.608 94.8633L368.074 94.7997C368.386 94.7394 368.463 94.3972 368.527 93.9469C368.603 93.292 368.603 92.064 368.603 90.57V87.8333H368.598ZM382.33 88.91C382.33 86.8588 382.33 86.4814 382.298 86.0629C382.264 85.6138 382.189 85.3955 381.736 85.3319L381.27 85.2977L381.162 85.1909L381.378 85.0829C382.004 85.0829 382.888 85.117 382.964 85.117C383.06 85.117 385.918 85.1306 386.231 85.117C386.495 85.0999 386.745 85.0544 386.854 85.0374L387.039 84.976L387.102 85.101C387.102 85.192 387.025 85.3512 386.992 85.7218L386.917 86.5928L386.794 86.7326L386.683 86.5666L386.606 86.0948C386.513 85.8788 386.372 85.7855 385.624 85.6923C385.393 85.6604 383.807 85.6445 383.652 85.6445L383.573 85.7855V89.3762L383.652 89.5172C383.823 89.5172 385.624 89.5172 385.938 89.4853C386.264 89.4535 386.466 89.4398 386.606 89.2977L386.809 89.1272L386.886 89.234C386.886 89.3136 386.809 89.5297 386.776 89.9663C386.746 90.2323 386.715 90.7315 386.715 90.8236L386.59 91.0714L386.496 90.9486L386.437 90.5132C386.388 90.3256 386.266 90.1721 385.735 90.1095C385.36 90.0595 383.901 90.0447 383.668 90.0447L383.575 90.1402V91.2431C383.575 91.6979 383.558 93.2329 383.575 93.4989C383.607 94.3858 383.855 94.5563 385.206 94.5563C385.566 94.5563 386.218 94.5563 386.575 94.4153C386.932 94.2607 387.119 94.0265 387.197 93.5001L387.336 93.2988L387.432 93.5012C387.432 93.5956 387.321 94.4938 387.245 94.7769C387.151 95.118 387.011 95.118 386.483 95.118C385.458 95.118 384.664 95.0839 384.104 95.0703C383.527 95.0407 383.171 95.0407 382.967 95.0407C382.938 95.0407 382.671 95.0407 382.375 95.0555C382.112 95.0714 381.801 95.085 381.584 95.085L381.366 94.9827L381.474 94.8713L381.894 94.8076C382.156 94.7599 382.19 94.4938 382.253 94.1072C382.33 93.5615 382.33 92.5211 382.33 91.2465V88.9157V88.91ZM390.897 88.91C390.897 86.8588 390.897 86.4814 390.866 86.0629C390.835 85.6138 390.756 85.3955 390.307 85.3319L389.841 85.2977L389.729 85.1909L389.948 85.0829C390.571 85.0829 391.426 85.117 391.534 85.117C391.83 85.117 392.855 85.0829 393.478 85.0829C395.236 85.0829 395.855 85.6286 396.09 85.8333C396.403 86.1107 396.774 86.6974 396.774 87.4137C396.774 89.3125 395.344 90.5746 393.242 90.5746L392.855 90.5564L392.715 90.4347C392.715 90.3244 392.793 90.2926 393.072 90.2926C394.553 90.2926 395.608 89.3602 395.608 88.1607C395.608 87.7287 395.562 86.8736 394.832 86.1573C394.116 85.441 393.292 85.5206 392.981 85.5206C392.748 85.5206 392.359 85.5831 392.219 85.615L392.11 85.8617V91.242C392.11 92.5177 392.11 93.558 392.172 94.1027C392.217 94.4893 392.297 94.7417 392.715 94.8019L393.321 94.8656L393.43 94.9759L393.214 95.0805C392.464 95.0805 391.562 95.035 391.503 95.035C391.454 95.035 390.571 95.0805 390.15 95.0805L389.934 94.9782L390.042 94.8667L390.461 94.8031C390.724 94.7428 390.756 94.4904 390.82 94.1038C390.896 93.558 390.896 92.5188 390.896 91.2431V88.9123L390.897 88.91ZM406.258 83.001L406.197 83.1852C406.151 83.1852 405.995 83.1534 405.73 83.1852C404.969 83.2625 403.877 83.6218 403.369 83.8401L403.135 83.9163L403.055 83.8253L403.165 83.7003C403.726 83.3114 405.171 82.4382 405.28 82.3779C405.545 82.2233 405.637 82.1733 405.716 82.1733L405.87 82.3143C405.981 82.4734 406.089 82.6861 406.259 83.001M404.19 94.7076C405.42 94.7076 407.893 94.0538 407.893 90.2278C407.893 87.0578 405.964 85.3932 403.802 85.3932C401.517 85.3932 399.868 86.8236 399.868 89.7025C399.868 92.7837 401.721 94.7076 404.191 94.7076M403.877 84.8987C406.958 84.8987 409.289 86.7781 409.289 89.856C409.289 92.8088 407.099 95.2545 403.801 95.2545C400.052 95.2545 398.453 92.4347 398.453 90.0584C398.453 87.9276 400.101 84.8964 403.876 84.8964M411.421 94.8963C411.235 94.8008 411.217 94.7542 411.217 94.3994C411.217 93.7445 411.282 93.2169 411.296 92.9964L411.404 92.7826L411.529 92.9384L411.578 93.4159C411.794 94.3824 412.821 94.7235 413.738 94.7235C415.091 94.7235 415.792 93.9617 415.792 92.9668C415.792 92.0163 415.278 91.566 414.066 90.6667L413.444 90.1971C411.966 89.0942 411.481 88.2869 411.481 87.3682C411.481 85.8128 412.714 84.8816 414.517 84.8816C415.063 84.8816 415.605 84.9612 415.93 85.0351C416.197 85.0988 416.306 85.0988 416.414 85.0988L416.556 85.192C416.556 85.2534 416.492 85.6889 416.492 86.5905C416.492 86.7952 416.475 86.8861 416.382 86.8861L416.259 86.7133L416.057 86.0607C415.963 85.9083 415.513 85.4103 414.285 85.4103C413.29 85.4103 412.466 85.9083 412.466 86.8384C412.466 87.6798 412.887 88.1607 414.238 89.0783L414.624 89.3443C416.291 90.4768 416.867 91.3966 416.867 92.5302C416.867 93.3079 416.569 94.1447 415.592 94.7815C415.016 95.1567 414.161 95.2545 413.415 95.2545C412.779 95.2545 411.985 95.1567 411.426 94.8952M421.652 91.2408C421.652 92.5177 421.652 93.5569 421.713 94.1027C421.759 94.4893 421.807 94.7394 422.211 94.7997C422.413 94.8338 422.712 94.8633 422.833 94.8633L422.942 94.9747L422.726 95.0816C421.965 95.0816 421.078 95.0361 421.015 95.0361C420.94 95.0361 420.083 95.0816 419.662 95.0816L419.446 94.9759L419.556 94.8656L419.975 94.8019C420.236 94.7428 420.285 94.4927 420.332 94.1049C420.397 93.5592 420.409 92.52 420.409 91.2431V88.9123C420.409 86.8611 420.409 86.4825 420.377 86.0641C420.345 85.6172 420.239 85.4137 419.942 85.35L419.525 85.3046L419.414 85.1954L419.633 85.0863C420.083 85.0863 420.94 85.1181 421.016 85.1181C421.078 85.1181 421.966 85.0863 422.385 85.0863L422.601 85.1954L422.492 85.3034L422.151 85.3353C421.778 85.4149 421.698 85.6002 421.669 86.0652C421.652 86.4836 421.652 86.8611 421.652 88.9123V91.2431V91.2408ZM429.443 91.2408C429.443 92.5177 429.443 93.5569 429.506 94.1027C429.552 94.4893 429.614 94.7394 430.029 94.7997L430.655 94.8633L430.765 94.9747L430.549 95.0816C429.801 95.0816 428.932 95.0361 428.855 95.0361C428.792 95.0361 427.843 95.0816 427.438 95.0816L427.222 94.9759L427.33 94.8792L427.733 94.819C428.013 94.7553 428.092 94.4927 428.136 94.1049C428.2 93.5592 428.2 92.52 428.2 91.2431V85.6923L426.224 85.7218C425.371 85.74 425.041 85.8333 424.84 86.1459C424.687 86.3779 424.672 86.4689 424.624 86.5666L424.485 86.6883L424.392 86.5791L424.688 85.1488L424.828 84.9009C424.918 84.9009 425.059 85.0067 425.43 85.0556C425.82 85.101 426.351 85.1192 426.505 85.1192H431.667C432.117 85.1192 432.428 85.0874 432.648 85.0556C432.85 85.0237 432.973 84.9942 433.034 84.9942L433.096 85.1499C433.096 85.5547 433.05 86.503 433.05 86.6587L432.925 86.8259L432.816 86.5951L432.799 86.4552C432.751 86.0516 432.456 85.756 431.15 85.7241L429.44 85.6957V91.2465L429.443 91.2408ZM439.765 94.7076C440.993 94.7076 443.467 94.0526 443.467 90.2301C443.467 87.0578 441.538 85.3955 439.377 85.3955C437.091 85.3955 435.443 86.8236 435.443 89.7048C435.443 92.7815 437.291 94.7076 439.765 94.7076ZM439.455 84.8975C442.533 84.8975 444.867 86.7781 444.867 89.8548C444.867 92.811 442.673 95.2556 439.375 95.2556C435.628 95.2556 434.028 92.4381 434.028 90.0572C434.028 87.9288 435.677 84.8975 439.456 84.8975M446.997 94.8963C446.809 94.8008 446.794 94.7542 446.794 94.3994C446.794 93.7445 446.858 93.2169 446.872 92.9964L446.981 92.7826L447.103 92.9384L447.154 93.4159C447.37 94.3824 448.396 94.7235 449.314 94.7235C450.667 94.7235 451.365 93.9617 451.365 92.9668C451.365 92.0163 450.85 91.566 449.64 90.6667L449.015 90.1971C447.539 89.0942 447.059 88.2869 447.059 87.3682C447.059 85.8128 448.285 84.8816 450.089 84.8816C450.633 84.8816 451.176 84.9612 451.504 85.0351C451.768 85.0988 451.876 85.0988 451.987 85.0988L452.126 85.192C452.126 85.2534 452.063 85.6889 452.063 86.5905C452.063 86.7952 452.047 86.8861 451.953 86.8861L451.831 86.7133L451.627 86.0607C451.536 85.9083 451.087 85.4103 449.857 85.4103C448.861 85.4103 448.038 85.9083 448.038 86.8384C448.038 87.6798 448.459 88.1607 449.812 89.0783L450.199 89.3443C451.864 90.4768 452.438 91.3966 452.438 92.5302C452.438 93.3079 452.143 94.1447 451.163 94.7815C450.586 95.1567 449.73 95.2545 448.986 95.2545C448.35 95.2545 447.556 95.1578 446.997 94.8963ZM167.346 108.997C167.346 110.398 167.346 111.624 167.363 111.874C167.38 112.204 167.408 112.681 167.516 112.823C167.687 113.074 168.17 113.349 169.786 113.349C171.043 113.349 172.166 112.933 172.989 112.153C173.705 111.485 174.061 110.225 174.061 109.014C174.061 107.332 173.33 106.257 172.772 105.7C171.481 104.393 169.972 104.222 168.341 104.222C168.077 104.222 167.639 104.267 167.516 104.317L167.346 104.579V108.995V108.997ZM166.103 107.565C166.103 105.515 166.103 105.143 166.069 104.72C166.04 104.27 165.962 104.053 165.512 103.992L165.044 103.958L164.934 103.849L165.15 103.741C165.776 103.741 166.66 103.775 166.736 103.775C166.893 103.775 167.765 103.741 168.573 103.741C169.942 103.741 172.443 103.62 174.06 105.251C174.744 105.937 175.398 107.039 175.398 108.605C175.398 110.274 174.685 111.55 173.922 112.325C173.329 112.935 172.101 113.849 169.772 113.849C169.179 113.849 168.448 113.806 167.856 113.772C167.265 113.73 166.799 113.692 166.736 113.692C166.708 113.692 166.459 113.71 166.179 113.71C165.897 113.73 165.572 113.74 165.354 113.74L165.138 113.632L165.247 113.523L165.665 113.461C165.929 113.395 165.963 113.151 166.025 112.76C166.104 112.217 166.104 111.175 166.104 109.899V107.566L166.103 107.565ZM178.54 107.566C178.54 105.515 178.54 105.141 178.508 104.72C178.476 104.27 178.401 104.053 177.951 103.989L177.48 103.958L177.375 103.848L177.591 103.739C178.215 103.739 179.1 103.773 179.176 103.773C179.271 103.773 182.13 103.786 182.443 103.773C182.708 103.756 182.957 103.709 183.065 103.693L183.251 103.631L183.316 103.756C183.316 103.847 183.24 104.003 183.207 104.379L183.13 105.249L183.005 105.389L182.896 105.218L182.819 104.754C182.725 104.536 182.584 104.44 181.838 104.348C181.605 104.319 180.019 104.299 179.864 104.299L179.787 104.439V108.035L179.867 108.172C180.037 108.172 181.839 108.172 182.15 108.141C182.477 108.113 182.677 108.096 182.821 107.959L183.021 107.785L183.098 107.893C183.098 107.971 183.021 108.191 182.989 108.624C182.957 108.888 182.927 109.386 182.927 109.479L182.802 109.732L182.708 109.603L182.648 109.168C182.602 108.983 182.477 108.827 181.95 108.764C181.577 108.717 180.113 108.703 179.88 108.703L179.787 108.794V109.897C179.787 110.348 179.771 111.886 179.787 112.153C179.821 113.039 180.069 113.21 181.421 113.21C181.778 113.21 182.433 113.21 182.789 113.074C183.146 112.914 183.331 112.679 183.412 112.153L183.548 111.948L183.645 112.153C183.645 112.246 183.536 113.149 183.457 113.426C183.364 113.769 183.224 113.769 182.695 113.769C181.672 113.769 180.876 113.738 180.317 113.724C179.741 113.69 179.384 113.69 179.18 113.69C179.151 113.69 178.884 113.69 178.589 113.708C178.327 113.725 178.016 113.738 177.796 113.738L177.58 113.63L177.689 113.519L178.108 113.456C178.371 113.41 178.403 113.149 178.465 112.755C178.541 112.214 178.541 111.172 178.541 109.898V107.565L178.54 107.566ZM193.404 109.932C193.404 111.872 193.438 112.664 193.686 112.9C193.902 113.116 194.432 113.212 195.505 113.212C196.219 113.212 196.827 113.194 197.154 112.81C197.324 112.605 197.434 112.325 197.479 112.062L197.619 111.891L197.712 112.093C197.712 112.232 197.617 113.026 197.509 113.412C197.415 113.728 197.368 113.773 196.637 113.773C195.66 113.773 194.898 113.756 194.261 113.727C193.636 113.709 193.172 113.693 192.768 113.693C192.703 113.693 192.472 113.693 192.208 113.709C191.926 113.728 191.63 113.741 191.412 113.741L191.196 113.631L191.305 113.523L191.722 113.46C191.987 113.396 192.018 113.153 192.08 112.76C192.16 112.217 192.16 111.176 192.16 109.899V107.568C192.16 105.515 192.16 105.143 192.126 104.722C192.094 104.272 192.018 104.055 191.569 103.991L191.1 103.962L190.991 103.851L191.21 103.742C191.831 103.742 192.689 103.776 192.766 103.776C192.826 103.776 193.853 103.742 194.274 103.742L194.49 103.852L194.382 103.948L193.935 103.979C193.529 104.058 193.45 104.259 193.42 104.725C193.403 105.145 193.403 105.517 193.403 107.57V109.935L193.404 109.932ZM204.228 109.51L204.271 109.419L202.922 105.792C202.844 105.592 202.767 105.592 202.69 105.792L201.412 109.419L201.459 109.51H204.228ZM202.701 104.005C202.875 103.57 202.937 103.493 203.028 103.493C203.169 103.493 203.216 103.68 203.356 103.974C203.606 104.536 205.797 109.991 206.637 111.999C207.133 113.182 207.505 113.35 207.803 113.446C208.003 113.508 208.206 113.523 208.346 113.523L208.517 113.628L208.206 113.739C208.002 113.739 206.993 113.739 206.046 113.709C205.78 113.692 205.563 113.692 205.563 113.616L205.656 113.523C205.736 113.489 205.872 113.383 205.779 113.168L204.551 110.132L204.426 110.055H201.271L201.127 110.165L200.352 112.28C200.229 112.605 200.151 112.933 200.151 113.169C200.151 113.428 200.384 113.524 200.617 113.524H200.742L200.881 113.63L200.679 113.741C200.352 113.741 199.604 113.693 199.451 113.693C199.308 113.693 198.626 113.741 198.068 113.741L197.804 113.63L197.926 113.524L198.331 113.49C198.952 113.413 199.218 112.947 199.483 112.281L202.699 104.007L202.701 104.005ZM209.31 113.552C209.125 113.459 209.109 113.412 209.109 113.055C209.109 112.402 209.172 111.873 209.186 111.657L209.297 111.439L209.422 111.594L209.467 112.08C209.686 113.042 210.711 113.384 211.63 113.384C212.983 113.384 213.681 112.622 213.681 111.627C213.681 110.678 213.167 110.229 211.956 109.326L211.333 108.86C209.853 107.757 209.373 106.95 209.373 106.029C209.373 104.476 210.601 103.543 212.405 103.543C212.949 103.543 213.493 103.623 213.821 103.698C214.082 103.761 214.193 103.761 214.303 103.761L214.439 103.852C214.439 103.915 214.379 104.35 214.379 105.254C214.379 105.452 214.361 105.545 214.269 105.545L214.144 105.375L213.941 104.723C213.848 104.569 213.398 104.07 212.17 104.07C211.175 104.07 210.351 104.57 210.351 105.502C210.351 106.34 210.771 106.821 212.122 107.742L212.511 108.004C214.176 109.141 214.751 110.057 214.751 111.194C214.751 111.967 214.455 112.809 213.477 113.448C212.901 113.819 212.045 113.914 211.298 113.914C210.661 113.914 209.867 113.819 209.308 113.556M225.327 109.232C225.327 110.721 225.327 111.949 225.407 112.605C225.45 113.055 225.543 113.395 226.009 113.458C226.225 113.489 226.57 113.523 226.71 113.523L226.835 113.614L226.585 113.739C225.732 113.739 224.752 113.693 224.675 113.693C224.595 113.693 223.617 113.739 223.151 113.739L222.901 113.614L223.026 113.523L223.492 113.459C223.803 113.395 223.881 113.055 223.945 112.606C224.022 111.95 224.022 110.719 224.022 109.229V106.493C224.022 104.067 224.022 103.634 223.991 103.134C223.961 102.607 223.804 102.344 223.461 102.267L222.982 102.206L222.857 102.111L223.104 101.985C223.618 101.985 224.598 102.031 224.673 102.031C224.753 102.031 225.733 101.985 226.197 101.985L226.447 102.111L226.324 102.206L225.936 102.252C225.515 102.327 225.39 102.59 225.36 103.135C225.331 103.635 225.331 104.067 225.331 106.494V109.234L225.327 109.232ZM231.079 111.938C231.111 113.025 231.234 113.35 231.608 113.445C231.858 113.507 232.17 113.521 232.294 113.521L232.402 113.631L232.154 113.74C231.376 113.74 230.831 113.691 230.706 113.691C230.584 113.691 230.007 113.74 229.384 113.74L229.168 113.63L229.276 113.519C229.384 113.519 229.632 113.504 229.837 113.443C230.178 113.348 230.225 112.994 230.225 111.794V104.222C230.225 103.693 230.302 103.551 230.411 103.551L230.939 103.958C231.156 104.178 233.148 106.292 235.26 108.468C236.613 109.866 238.078 111.435 238.498 111.871L238.356 105.249C238.339 104.391 238.263 104.096 237.844 104.021C237.594 103.971 237.284 103.957 237.174 103.957L237.067 103.83L237.331 103.739C237.954 103.739 238.606 103.768 238.761 103.768C238.918 103.768 239.369 103.739 239.927 103.739L240.178 103.83L240.022 103.957L239.692 103.988C239.243 104.079 239.215 104.346 239.215 105.141L239.184 112.884C239.184 113.751 239.167 113.832 239.074 113.832C238.934 113.832 238.793 113.726 238.03 113.022C237.893 112.897 235.915 110.956 234.471 109.445C232.885 107.782 231.344 106.166 230.926 105.699L231.08 111.934L231.079 111.938ZM242.306 113.552C242.12 113.459 242.101 113.412 242.101 113.055C242.101 112.402 242.166 111.873 242.181 111.657L242.289 111.439L242.412 111.594L242.461 112.08C242.679 113.042 243.706 113.384 244.621 113.384C245.974 113.384 246.674 112.622 246.674 111.627C246.674 110.678 246.16 110.229 244.95 109.326L244.327 108.86C242.848 107.757 242.365 106.95 242.365 106.029C242.365 104.476 243.595 103.543 245.401 103.543C245.942 103.543 246.488 103.623 246.815 103.698C247.077 103.761 247.187 103.761 247.295 103.761L247.438 103.852C247.438 103.915 247.374 104.35 247.374 105.254C247.374 105.452 247.357 105.545 247.263 105.545L247.141 105.375L246.938 104.723C246.845 104.569 246.395 104.07 245.167 104.07C244.17 104.07 243.348 104.57 243.348 105.502C243.348 106.34 243.768 106.821 245.119 107.742L245.506 108.004C247.175 109.141 247.748 110.057 247.748 111.194C247.748 111.967 247.452 112.809 246.474 113.448C245.897 113.819 245.042 113.914 244.297 113.914C243.66 113.914 242.864 113.819 242.307 113.556M254.59 109.898C254.59 111.176 254.59 112.217 254.65 112.759C254.696 113.15 254.76 113.395 255.178 113.46L255.801 113.52L255.913 113.628L255.693 113.74C254.947 113.74 254.076 113.691 253.999 113.691C253.936 113.691 252.987 113.74 252.585 113.74L252.364 113.628L252.473 113.537L252.879 113.476C253.159 113.41 253.235 113.149 253.282 112.757C253.345 112.216 253.345 111.175 253.345 109.897V104.348L251.367 104.38C250.514 104.391 250.187 104.487 249.983 104.797C249.828 105.029 249.813 105.127 249.767 105.218L249.628 105.343L249.537 105.234L249.83 103.804L249.971 103.553C250.067 103.553 250.207 103.664 250.579 103.71C250.968 103.756 251.495 103.772 251.652 103.772H256.814C257.262 103.772 257.576 103.742 257.792 103.71C257.994 103.681 258.122 103.65 258.182 103.65L258.243 103.805C258.243 104.208 258.198 105.158 258.198 105.313L258.073 105.484L257.963 105.25L257.946 105.113C257.9 104.707 257.601 104.413 256.297 104.382L254.588 104.348V109.899L254.59 109.898ZM262.332 109.898C262.332 111.176 262.332 112.217 262.393 112.759C262.439 113.15 262.487 113.395 262.89 113.46C263.093 113.486 263.391 113.52 263.513 113.52L263.623 113.628L263.407 113.74C262.642 113.74 261.758 113.691 261.694 113.691C261.618 113.691 260.762 113.74 260.341 113.74L260.125 113.628L260.233 113.52L260.652 113.459C260.918 113.394 260.964 113.147 261.009 112.756C261.071 112.215 261.088 111.174 261.088 109.896V107.562C261.088 105.512 261.088 105.141 261.054 104.718C261.024 104.269 260.918 104.065 260.62 104.004L260.201 103.958L260.091 103.844L260.309 103.74C260.761 103.74 261.617 103.769 261.693 103.769C261.754 103.769 262.641 103.74 263.062 103.74L263.278 103.846L263.17 103.959L262.829 103.989C262.457 104.066 262.379 104.255 262.347 104.719C262.33 105.142 262.33 105.515 262.33 107.564V109.897L262.332 109.898ZM270.122 109.898C270.122 111.176 270.122 112.217 270.186 112.759C270.232 113.15 270.293 113.395 270.713 113.46L271.338 113.52L271.446 113.628L271.228 113.74C270.481 113.74 269.61 113.691 269.534 113.691C269.47 113.691 268.524 113.74 268.118 113.74L267.902 113.628L268.011 113.537L268.415 113.476C268.697 113.41 268.773 113.149 268.82 112.757C268.885 112.216 268.885 111.175 268.885 109.897V104.348L266.908 104.38C266.056 104.391 265.726 104.487 265.525 104.797C265.368 105.029 265.354 105.127 265.306 105.218L265.168 105.343L265.074 105.234L265.368 103.804L265.508 103.553C265.603 103.553 265.743 103.664 266.115 103.71C266.504 103.756 267.031 103.772 267.188 103.772H272.35C272.802 103.772 273.112 103.742 273.334 103.71C273.533 103.681 273.659 103.65 273.72 103.65L273.782 103.805C273.782 104.208 273.736 105.158 273.736 105.313L273.609 105.484L273.5 105.25L273.483 105.113C273.435 104.707 273.138 104.413 271.834 104.382L270.125 104.348V109.899L270.122 109.898ZM275.921 107.566C275.921 105.515 275.921 105.141 275.89 104.72C275.856 104.299 275.78 104.053 275.33 103.989L274.864 103.958L274.754 103.848L274.973 103.739C275.594 103.739 276.417 103.773 276.545 103.773C276.666 103.773 277.522 103.739 277.928 103.739L278.16 103.848L278.035 103.958L277.692 103.988C277.335 104.05 277.256 104.283 277.226 104.718C277.198 105.138 277.198 105.514 277.198 107.564V109.417C277.198 111.327 277.614 112.123 278.208 112.651C278.877 113.255 279.465 113.363 280.243 113.363C281.082 113.363 281.892 112.994 282.358 112.429C282.997 111.667 283.138 110.582 283.138 109.226V107.562C283.138 105.511 283.119 105.137 283.104 104.717C283.087 104.296 283.011 104.049 282.562 103.985L282.092 103.955L281.986 103.844L282.202 103.735C282.811 103.735 283.601 103.769 283.68 103.769C283.771 103.769 284.425 103.735 284.829 103.735L285.048 103.844L284.939 103.955L284.598 103.984C284.223 104.062 284.147 104.28 284.115 104.714C284.086 105.135 284.098 105.51 284.098 107.56V108.977C284.098 110.406 283.91 112.013 282.824 112.942C281.826 113.8 280.77 113.905 279.962 113.905C279.51 113.905 278.079 113.877 277.114 112.972C276.447 112.352 275.918 111.433 275.918 109.504V107.56L275.921 107.566ZM288.11 112.497C286.774 111.345 286.447 109.836 286.447 108.578C286.447 107.691 286.774 106.151 287.985 104.971C288.809 104.179 290.054 103.555 292.152 103.555C292.698 103.555 293.474 103.6 294.144 103.709C294.656 103.805 295.091 103.898 295.543 103.912L295.713 104.055C295.713 104.163 295.681 104.319 295.653 104.798C295.635 105.234 295.635 105.965 295.619 106.151C295.602 106.356 295.543 106.432 295.464 106.432L295.356 106.153C295.356 105.641 295.138 105.115 294.779 104.834C294.299 104.428 293.301 104.103 292.088 104.103C290.333 104.103 289.492 104.569 289.009 105.019C288 105.951 287.782 107.134 287.782 108.472C287.782 111.005 289.787 113.259 292.712 113.259C293.737 113.259 294.422 113.182 294.966 112.639C295.262 112.346 295.448 111.786 295.495 111.534L295.635 111.348L295.76 111.533C295.76 111.626 295.571 112.778 295.434 113.227C295.354 113.477 295.323 113.523 295.089 113.616C294.53 113.834 293.504 113.911 292.617 113.911C290.566 113.911 289.183 113.428 288.109 112.498M300.256 109.898C300.256 111.176 300.256 112.217 300.317 112.759C300.365 113.15 300.411 113.395 300.815 113.46C301.016 113.486 301.315 113.52 301.437 113.52L301.546 113.628L301.33 113.74C300.568 113.74 299.681 113.691 299.622 113.691C299.543 113.691 298.686 113.74 298.266 113.74L298.05 113.628L298.158 113.52L298.578 113.459C298.842 113.394 298.889 113.147 298.935 112.756C298.997 112.215 299.015 111.174 299.015 109.896V107.562C299.015 105.512 299.015 105.141 298.981 104.718C298.951 104.269 298.842 104.065 298.547 104.004L298.128 103.958L298.018 103.844L298.236 103.74C298.685 103.74 299.544 103.769 299.621 103.769C299.68 103.769 300.565 103.74 300.988 103.74L301.204 103.846L301.095 103.959L300.754 103.989C300.381 104.066 300.302 104.255 300.273 104.719C300.257 105.142 300.257 105.515 300.257 107.564V109.897L300.256 109.898ZM309.025 113.368C310.253 113.368 312.725 112.714 312.725 108.888C312.725 105.716 310.798 104.054 308.636 104.054C306.351 104.054 304.702 105.484 304.702 108.363C304.702 111.439 306.551 113.368 309.025 113.368ZM308.713 103.556C311.792 103.556 314.125 105.437 314.125 108.513C314.125 111.469 311.933 113.91 308.636 113.91C304.888 113.91 303.288 111.099 303.288 108.719C303.288 106.588 304.937 103.553 308.711 103.553M317.56 111.938C317.591 113.025 317.714 113.35 318.088 113.445C318.338 113.507 318.651 113.521 318.774 113.521L318.884 113.631L318.634 113.74C317.859 113.74 317.312 113.691 317.19 113.691C317.063 113.691 316.487 113.74 315.868 113.74L315.648 113.63L315.757 113.519C315.868 113.519 316.116 113.504 316.318 113.443C316.659 113.348 316.707 112.994 316.707 111.794V104.222C316.707 103.693 316.783 103.551 316.894 103.551L317.421 103.958C317.64 104.178 319.631 106.292 321.746 108.468C323.094 109.866 324.559 111.435 324.98 111.871L324.837 105.249C324.82 104.391 324.747 104.096 324.326 104.021C324.076 103.971 323.766 103.957 323.658 103.957L323.548 103.83L323.815 103.739C324.437 103.739 325.089 103.768 325.243 103.768C325.4 103.768 325.852 103.739 326.415 103.739L326.659 103.83L326.507 103.957L326.18 103.988C325.728 104.079 325.698 104.346 325.698 105.141L325.666 112.884C325.666 113.751 325.649 113.832 325.556 113.832C325.416 113.832 325.275 113.726 324.515 113.022C324.374 112.897 322.4 110.956 320.953 109.445C319.366 107.782 317.827 106.166 317.406 105.699L317.562 111.934L317.56 111.938ZM329.628 107.566C329.628 105.515 329.628 105.141 329.597 104.72C329.565 104.27 329.489 104.053 329.04 103.989L328.571 103.958L328.463 103.848L328.679 103.739C329.301 103.739 330.189 103.773 330.266 103.773C330.359 103.773 333.219 103.786 333.532 103.773C333.796 103.756 334.046 103.709 334.153 103.693L334.338 103.631L334.401 103.756C334.401 103.847 334.323 104.003 334.293 104.379L334.213 105.249L334.088 105.389L333.98 105.218L333.901 104.754C333.81 104.536 333.67 104.44 332.923 104.348C332.691 104.319 331.104 104.299 330.948 104.299L330.87 104.439V108.035L330.95 108.172C331.121 108.172 332.925 108.172 333.235 108.141C333.563 108.113 333.763 108.096 333.903 107.959L334.105 107.785L334.182 107.893C334.182 107.971 334.105 108.191 334.073 108.624C334.044 108.888 334.012 109.386 334.012 109.479L333.887 109.732L333.792 109.603L333.731 109.168C333.682 108.983 333.561 108.827 333.031 108.764C332.656 108.717 331.194 108.703 330.964 108.703L330.868 108.794V109.897C330.868 110.348 330.851 111.886 330.868 112.153C330.9 113.039 331.152 113.21 332.502 113.21C332.858 113.21 333.514 113.21 333.87 113.074C334.227 112.914 334.413 112.679 334.491 112.153L334.627 111.948L334.724 112.153C334.724 112.246 334.613 113.149 334.536 113.426C334.443 113.769 334.301 113.769 333.774 113.769C332.748 113.769 331.955 113.738 331.396 113.724C330.82 113.69 330.463 113.69 330.259 113.69C330.23 113.69 329.965 113.69 329.667 113.708C329.406 113.725 329.094 113.738 328.875 113.738L328.659 113.63L328.77 113.519L329.189 113.456C329.453 113.41 329.484 113.149 329.546 112.755C329.622 112.214 329.622 111.172 329.622 109.898V107.565L329.628 107.566ZM337.043 113.552C336.857 113.459 336.842 113.412 336.842 113.055C336.842 112.402 336.903 111.873 336.918 111.657L337.027 111.439L337.152 111.594L337.2 112.08C337.42 113.042 338.445 113.384 339.36 113.384C340.716 113.384 341.414 112.622 341.414 111.627C341.414 110.678 340.9 110.229 339.689 109.326L339.064 108.86C337.586 107.757 337.106 106.95 337.106 106.029C337.106 104.476 338.334 103.543 340.138 103.543C340.682 103.543 341.226 103.623 341.554 103.698C341.815 103.761 341.925 103.761 342.036 103.761L342.172 103.852C342.172 103.915 342.111 104.35 342.111 105.254C342.111 105.452 342.094 105.545 342.005 105.545L341.88 105.375L341.678 104.723C341.584 104.569 341.134 104.07 339.904 104.07C338.909 104.07 338.085 104.57 338.085 105.502C338.085 106.34 338.505 106.821 339.858 107.742L340.245 108.004C341.91 109.141 342.485 110.057 342.485 111.194C342.485 111.967 342.189 112.809 341.211 113.448C340.635 113.819 339.779 113.914 339.033 113.914C338.396 113.914 337.603 113.819 337.043 113.556M351.754 106.491C351.754 104.066 351.754 103.632 351.72 103.133C351.691 102.606 351.567 102.36 351.052 102.249L350.523 102.204L350.401 102.107L350.651 101.982C351.007 101.982 351.427 101.982 351.767 101.999L352.407 102.026C352.719 102.046 355.873 102.026 356.232 102.013C356.528 101.998 356.775 101.998 356.915 101.949L357.131 101.858L357.225 101.998C357.225 102.106 357.149 102.294 357.1 102.728L357.02 103.755L356.899 103.925L356.791 103.738C356.791 103.615 356.747 103.349 356.652 103.149C356.559 102.944 356.202 102.667 355.594 102.648L353.201 102.603L353.061 102.773V107.066L353.172 107.204L355.161 107.19C355.425 107.19 355.641 107.19 355.861 107.172C356.236 107.141 356.436 107.095 356.577 106.894L356.747 106.735L356.825 106.864C356.825 106.959 356.749 107.223 356.7 107.734C356.67 108.047 356.638 108.667 356.638 108.776L356.529 109.075L356.42 108.931L356.326 108.371C356.249 108.155 356.002 107.871 355.518 107.814C355.129 107.768 353.438 107.768 353.173 107.768L353.062 107.905V109.227C353.062 110.717 353.062 111.948 353.139 112.602C353.184 113.052 353.282 113.392 353.746 113.457C353.966 113.486 354.309 113.52 354.446 113.52L354.571 113.614L354.323 113.736C353.467 113.736 352.489 113.691 352.411 113.691C352.331 113.691 351.353 113.736 350.887 113.736L350.637 113.614L350.762 113.52L351.226 113.457C351.539 113.392 351.617 113.052 351.679 112.602C351.756 111.948 351.756 110.717 351.756 109.227V106.491H351.754ZM361.843 109.898C361.843 111.176 361.843 112.217 361.905 112.759C361.953 113.15 361.999 113.395 362.403 113.46C362.604 113.486 362.903 113.52 363.025 113.52L363.134 113.628L362.913 113.74C362.152 113.74 361.267 113.691 361.208 113.691C361.128 113.691 360.272 113.74 359.855 113.74L359.635 113.628L359.743 113.52L360.162 113.459C360.426 113.394 360.474 113.147 360.521 112.756C360.585 112.215 360.601 111.174 360.601 109.896V107.562C360.601 105.512 360.601 105.141 360.567 104.718C360.535 104.269 360.424 104.065 360.132 104.004L359.712 103.958L359.605 103.844L359.821 103.74C360.272 103.74 361.128 103.769 361.208 103.769C361.265 103.769 362.152 103.74 362.572 103.74L362.788 103.846L362.681 103.959L362.34 103.989C361.967 104.066 361.888 104.255 361.856 104.719C361.839 105.142 361.839 105.515 361.839 107.564V109.897L361.843 109.898ZM366.913 111.938C366.945 113.025 367.068 113.35 367.442 113.445C367.692 113.507 367.999 113.521 368.124 113.521L368.234 113.631L367.984 113.74C367.208 113.74 366.665 113.691 366.54 113.691C366.415 113.691 365.84 113.74 365.217 113.74L365.001 113.63L365.11 113.519C365.219 113.519 365.467 113.504 365.672 113.443C366.013 113.348 366.058 112.994 366.058 111.794V104.222C366.058 103.693 366.136 103.551 366.245 103.551L366.773 103.958C366.992 104.178 368.979 106.292 371.094 108.468C372.447 109.866 373.909 111.435 374.33 111.871L374.19 105.249C374.173 104.391 374.099 104.096 373.678 104.021C373.428 103.971 373.117 103.957 373.011 103.957L372.901 103.83L373.162 103.739C373.785 103.739 374.44 103.768 374.593 103.768C374.75 103.768 375.199 103.739 375.759 103.739L376.009 103.83L375.854 103.957L375.526 103.988C375.075 104.079 375.045 104.346 375.045 105.141L375.011 112.884C375.011 113.751 374.995 113.832 374.904 113.832C374.764 113.832 374.623 113.726 373.86 113.022C373.724 112.897 371.746 110.956 370.302 109.445C368.715 107.782 367.177 106.166 366.756 105.699L366.911 111.934L366.913 111.938ZM382.896 109.51L382.944 109.419L381.593 105.792C381.514 105.592 381.436 105.592 381.359 105.792L380.085 109.419L380.131 109.51H382.898H382.896ZM381.373 104.005C381.545 103.57 381.607 103.493 381.7 103.493C381.836 103.493 381.885 103.68 382.027 103.974C382.278 104.536 384.467 109.991 385.307 111.999C385.807 113.182 386.177 113.35 386.475 113.446C386.675 113.508 386.879 113.523 387.017 113.523L387.189 113.628L386.879 113.739C386.674 113.739 385.666 113.739 384.719 113.709C384.453 113.692 384.233 113.692 384.233 113.616L384.326 113.523C384.406 113.489 384.546 113.383 384.452 113.168L383.224 110.132L383.098 110.055H379.942L379.803 110.165L379.026 112.28C378.903 112.605 378.823 112.933 378.823 113.169C378.823 113.428 379.058 113.524 379.29 113.524H379.415L379.554 113.63L379.353 113.741C379.026 113.741 378.28 113.693 378.125 113.693C377.985 113.693 377.299 113.741 376.742 113.741L376.478 113.63L376.603 113.524L377.006 113.49C377.625 113.413 377.893 112.947 378.157 112.281L381.375 104.007L381.373 104.005ZM389.568 111.938C389.6 113.025 389.72 113.35 390.094 113.445C390.347 113.507 390.657 113.521 390.78 113.521L390.89 113.631L390.64 113.74C389.864 113.74 389.318 113.691 389.196 113.691C389.069 113.691 388.494 113.74 387.873 113.74L387.654 113.63L387.762 113.519C387.872 113.519 388.121 113.504 388.325 113.443C388.666 113.348 388.712 112.994 388.712 111.794V104.222C388.712 103.693 388.788 103.551 388.898 103.551L389.427 103.958C389.643 104.178 391.633 106.292 393.748 108.468C395.101 109.866 396.563 111.435 396.984 111.871L396.845 105.249C396.828 104.391 396.752 104.096 396.331 104.021C396.081 103.971 395.772 103.957 395.663 103.957L395.552 103.83L395.817 103.739C396.44 103.739 397.093 103.768 397.247 103.768C397.404 103.768 397.853 103.739 398.414 103.739L398.659 103.83L398.507 103.957L398.18 103.988C397.729 104.079 397.698 104.346 397.698 105.141L397.668 112.884C397.668 113.751 397.651 113.832 397.558 113.832C397.419 113.832 397.277 113.726 396.516 113.022C396.38 112.897 394.404 110.956 392.957 109.445C391.372 107.782 389.831 106.166 389.41 105.699L389.569 111.934L389.568 111.938ZM401.834 112.497C400.498 111.345 400.171 109.836 400.171 108.578C400.171 107.691 400.498 106.151 401.709 104.971C402.536 104.179 403.778 103.555 405.876 103.555C406.424 103.555 407.202 103.6 407.869 103.709C408.381 103.805 408.816 103.898 409.268 103.912L409.438 104.055C409.438 104.163 409.406 104.319 409.378 104.798C409.361 105.234 409.361 105.965 409.346 106.151C409.329 106.356 409.269 106.432 409.191 106.432L409.082 106.153C409.082 105.641 408.866 105.115 408.506 104.834C408.026 104.428 407.028 104.103 405.818 104.103C404.059 104.103 403.218 104.569 402.737 105.019C401.725 105.951 401.509 107.134 401.509 108.472C401.509 111.005 403.513 113.259 406.438 113.259C407.463 113.259 408.148 113.182 408.692 112.639C408.988 112.346 409.174 111.786 409.221 111.534L409.361 111.348L409.486 111.533C409.486 111.626 409.297 112.778 409.159 113.227C409.081 113.477 409.048 113.523 408.815 113.616C408.256 113.834 407.231 113.911 406.343 113.911C404.291 113.911 402.905 113.427 401.834 112.497ZM413.977 109.898C413.977 111.176 413.977 112.217 414.04 112.759C414.087 113.15 414.133 113.395 414.54 113.46C414.74 113.486 415.036 113.52 415.158 113.52L415.27 113.628L415.05 113.74C414.289 113.74 413.402 113.691 413.34 113.691C413.263 113.691 412.406 113.74 411.987 113.74L411.768 113.628L411.879 113.52L412.3 113.459C412.562 113.394 412.609 113.147 412.656 112.756C412.72 112.215 412.736 111.174 412.736 109.896V107.562C412.736 105.512 412.736 105.141 412.704 104.718C412.673 104.269 412.564 104.065 412.267 104.004L411.85 103.958L411.741 103.844L411.957 103.74C412.408 103.74 413.264 103.769 413.344 103.769C413.403 103.769 414.291 103.74 414.708 103.74L414.927 103.846L414.82 103.959L414.479 103.989C414.106 104.066 414.024 104.255 413.995 104.719C413.979 105.142 413.979 105.515 413.979 107.564V109.897L413.977 109.898ZM418.473 107.566C418.473 105.515 418.473 105.141 418.439 104.72C418.41 104.27 418.331 104.053 417.882 103.989L417.413 103.958L417.305 103.848L417.523 103.739C418.147 103.739 419.03 103.773 419.108 103.773C419.199 103.773 422.061 103.786 422.374 103.773C422.638 103.756 422.888 103.709 422.995 103.693L423.181 103.631L423.246 103.756C423.246 103.847 423.166 104.003 423.135 104.379L423.058 105.249L422.933 105.389L422.823 105.218L422.743 104.754C422.652 104.536 422.514 104.44 421.766 104.348C421.534 104.319 419.946 104.299 419.792 104.299L419.712 104.439V108.035L419.792 108.172C419.962 108.172 421.766 108.172 422.077 108.141C422.405 108.113 422.607 108.096 422.745 107.959L422.949 107.785L423.024 107.893C423.024 107.971 422.948 108.191 422.915 108.624C422.887 108.888 422.853 109.386 422.853 109.479L422.73 109.732L422.637 109.603L422.575 109.168C422.53 108.983 422.407 108.827 421.875 108.764C421.503 108.717 420.042 108.703 419.81 108.703L419.714 108.794V109.897C419.714 110.348 419.697 111.886 419.714 112.153C419.746 113.039 419.995 113.21 421.348 113.21C421.706 113.21 422.36 113.21 422.718 113.074C423.078 112.914 423.261 112.679 423.341 112.153L423.478 111.948L423.572 112.153C423.572 112.246 423.463 113.149 423.387 113.426C423.294 113.769 423.154 113.769 422.625 113.769C421.597 113.769 420.806 113.738 420.247 113.724C419.669 113.69 419.314 113.69 419.11 113.69C419.079 113.69 418.814 113.69 418.518 113.708C418.257 113.725 417.946 113.738 417.727 113.738L417.511 113.63L417.619 113.519L418.036 113.456C418.3 113.41 418.332 113.149 418.396 112.755C418.472 112.214 418.472 111.172 418.472 109.898V107.565L418.473 107.566ZM428.22 108.688L428.314 108.856C428.516 108.964 429.217 109.061 429.82 109.061C430.148 109.061 430.522 109.043 430.847 108.825C431.313 108.514 431.673 107.817 431.673 106.805C431.673 105.157 430.771 104.206 429.308 104.206C428.905 104.206 428.469 104.255 428.328 104.286L428.22 104.438V108.688ZM427.038 107.566C427.038 105.514 427.038 105.142 427.007 104.721C426.978 104.271 426.898 104.054 426.448 103.99L425.982 103.96L425.875 103.849L426.091 103.741C426.713 103.741 427.63 103.775 427.705 103.775C427.846 103.775 428.999 103.741 429.418 103.741C430.289 103.741 431.252 103.821 431.97 104.319C432.311 104.566 432.916 105.205 432.916 106.121C432.916 107.102 432.515 108.054 431.238 109.141C432.36 110.535 433.307 111.733 434.1 112.558C434.83 113.307 435.282 113.425 435.623 113.476C435.887 113.521 436.028 113.521 436.104 113.521L436.229 113.63C436.229 113.709 436.154 113.74 435.903 113.74H435.047C434.269 113.74 433.929 113.664 433.586 113.476C432.995 113.166 432.498 112.527 431.719 111.532C431.144 110.818 430.536 109.963 430.244 109.605L430.055 109.525L428.316 109.497L428.221 109.605V109.912C428.221 111.192 428.221 112.216 428.283 112.759C428.331 113.151 428.408 113.395 428.829 113.459L429.435 113.521L429.545 113.63L429.329 113.74C428.578 113.74 427.709 113.691 427.646 113.691C427.63 113.691 426.714 113.74 426.295 113.74L426.075 113.63L426.186 113.521L426.605 113.459C426.866 113.395 426.9 113.152 426.962 112.759C427.041 112.216 427.041 111.175 427.041 109.898V107.567L427.038 107.566Z" fill="var(--fill-0, #231F20)"/>
<path id="Vector_4" d="M441.172 109.51L441.217 109.419L439.864 105.792C439.789 105.592 439.71 105.592 439.634 105.792L438.36 109.419L438.403 109.51H441.172ZM439.648 104.005C439.819 103.57 439.883 103.493 439.976 103.493C440.112 103.493 440.161 103.68 440.301 103.974C440.551 104.536 442.743 109.991 443.582 111.999C444.083 113.182 444.453 113.35 444.749 113.446C444.949 113.508 445.155 113.523 445.295 113.523L445.463 113.628L445.156 113.739C444.949 113.739 443.942 113.739 442.991 113.709C442.726 113.692 442.509 113.692 442.509 113.616L442.602 113.523C442.678 113.489 442.818 113.383 442.725 113.168L441.497 110.132L441.372 110.055H438.217L438.077 110.165L437.299 112.28C437.174 112.605 437.098 112.933 437.098 113.169C437.098 113.428 437.332 113.524 437.566 113.524H437.689L437.826 113.63L437.627 113.741C437.299 113.741 436.553 113.693 436.397 113.693C436.257 113.693 435.574 113.741 435.013 113.741L434.751 113.63L434.876 113.524L435.279 113.49C435.902 113.413 436.168 112.947 436.431 112.281L439.648 104.007V104.005ZM446.257 113.552C446.07 113.459 446.055 113.412 446.055 113.055C446.055 112.402 446.117 111.873 446.13 111.657L446.241 111.439L446.363 111.594L446.411 112.08C446.631 113.042 447.656 113.384 448.575 113.384C449.928 113.384 450.625 112.622 450.625 111.627C450.625 110.678 450.111 110.229 448.9 109.326L448.28 108.86C446.802 107.757 446.319 106.95 446.319 106.029C446.319 104.476 447.549 103.543 449.355 103.543C449.895 103.543 450.44 103.623 450.767 103.698C451.032 103.761 451.139 103.761 451.249 103.761L451.39 103.852C451.39 103.915 451.326 104.35 451.326 105.254C451.326 105.452 451.309 105.545 451.217 105.545L451.095 105.375L450.89 104.723C450.799 104.569 450.35 104.07 449.121 104.07C448.125 104.07 447.299 104.57 447.299 105.502C447.299 106.34 447.72 106.821 449.073 107.742L449.46 108.004C451.128 109.141 451.703 110.057 451.703 111.194C451.703 111.967 451.405 112.809 450.426 113.448C449.85 113.819 448.996 113.914 448.25 113.914C447.613 113.914 446.819 113.819 446.26 113.556M190.832 43.1855C190.832 34.5443 190.832 32.9935 190.722 31.2186C190.612 29.3369 190.168 28.45 188.341 28.0612C187.897 27.9531 186.953 27.8974 186.455 27.8974C186.234 27.8974 186.012 27.7837 186.012 27.5643C186.012 27.2323 186.292 27.1175 186.899 27.1175C188.175 27.1175 189.669 27.1174 190.89 27.1777L193.16 27.288C194.267 27.3403 205.513 27.288 206.786 27.2312C207.837 27.1777 208.722 27.1777 209.223 27.0117C209.556 26.898 209.777 26.6774 210 26.6774C210.219 26.6774 210.33 26.8991 210.33 27.1777C210.33 27.5643 210.053 28.2294 209.887 29.7814C209.83 30.3352 209.721 32.7718 209.612 33.4358C209.555 33.712 209.443 34.0452 209.168 34.0452C208.891 34.0452 208.782 33.7689 208.782 33.38C208.782 32.9366 208.611 31.9952 208.281 31.2766C207.947 30.5557 206.675 29.5575 204.513 29.5029L195.986 29.3369C195.653 29.3369 195.486 29.504 195.486 29.9463V45.2344C195.486 45.5675 195.542 45.7347 195.872 45.7347L202.962 45.6778C203.904 45.6778 204.683 45.6778 205.456 45.621C206.786 45.513 207.505 45.3447 208.005 44.6261C208.226 44.3464 208.392 44.069 208.612 44.069C208.835 44.069 208.891 44.2361 208.891 44.5124C208.891 44.8467 208.613 45.7881 208.45 47.6164C208.338 48.7227 208.227 50.9387 208.227 51.3276C208.227 51.8256 208.227 52.3793 207.838 52.3793C207.562 52.3793 207.451 52.1553 207.451 51.8813C207.394 51.3265 207.341 50.5487 207.117 49.8859C206.844 49.1104 205.955 48.1122 204.24 47.8904C202.853 47.7267 196.816 47.7267 195.872 47.7267C195.597 47.7267 195.486 47.8359 195.486 48.2236V52.9308C195.486 58.2485 195.486 62.626 195.763 64.9523C195.928 66.5588 196.261 67.7766 197.923 67.9994C198.7 68.1086 199.918 68.2154 200.416 68.2154C200.749 68.2154 200.859 68.386 200.859 68.5531C200.859 68.8306 200.58 68.9943 199.972 68.9943C196.925 68.9943 193.437 68.8306 193.162 68.8306C192.884 68.8306 189.395 68.9932 187.73 68.9932C187.122 68.9932 186.843 68.8829 186.843 68.552C186.843 68.3837 186.953 68.2154 187.287 68.2154C187.785 68.2154 188.45 68.1063 188.949 67.996C190.056 67.7743 190.333 66.5566 190.556 64.9489C190.832 62.6237 190.832 58.2462 190.832 52.9285V43.181V43.1855ZM240.297 67.6697C245.283 67.6697 255.587 64.7897 255.587 48.6704C255.587 35.3721 247.5 28.2306 238.748 28.2306C229.497 28.2306 222.573 34.3215 222.573 46.4521C222.573 59.3594 230.33 67.6686 240.299 67.6686M239.134 26.3443C251.595 26.3443 260.904 34.2123 260.904 47.1173C260.904 59.5265 252.154 69.7709 238.801 69.7709C223.624 69.7709 217.308 57.9734 217.308 48.0064C217.308 39.0298 223.846 26.3466 239.135 26.3466M300.621 54.8716C300.621 50.3862 300.342 49.7779 298.127 49.1684C297.686 49.0547 296.742 49.0013 296.244 49.0013C296.02 49.0013 295.801 48.8921 295.801 48.6693C295.801 48.3361 296.076 48.2259 296.685 48.2259C299.179 48.2259 302.666 48.393 302.946 48.393C303.222 48.393 306.711 48.227 308.374 48.227C308.983 48.227 309.261 48.3361 309.261 48.6704C309.261 48.8921 309.039 49.0002 308.817 49.0002C308.428 49.0002 308.097 49.057 307.432 49.1684C305.936 49.4447 305.494 50.385 305.381 52.3247C305.271 54.0962 305.271 55.7608 305.271 58.0871V64.2905C305.271 66.7806 305.217 66.892 304.55 67.2808C301.007 69.1637 296.019 69.7709 292.805 69.7709C288.598 69.7709 280.732 69.2183 274.584 63.8471C271.204 60.9114 267.99 54.9853 267.99 48.0576C267.99 39.1981 272.313 32.9378 277.245 29.8349C282.228 26.7309 287.711 26.3443 291.978 26.3443C295.469 26.3443 299.399 27.0674 300.453 27.288C301.617 27.5654 303.557 27.786 304.94 27.8417C305.494 27.8963 305.605 28.118 305.605 28.342C305.605 29.1152 305.219 30.666 305.219 36.2055C305.219 37.0924 305.105 37.3698 304.718 37.3698C304.442 37.3698 304.389 37.0344 304.332 36.5375C304.275 35.7621 303.999 34.2123 303.167 32.882C301.78 30.7763 297.297 28.3943 290.149 28.3943C286.66 28.3943 282.504 28.7297 278.297 32.0509C275.079 34.5955 272.812 39.6381 272.812 46.1179C272.812 53.929 276.746 59.5799 278.683 61.4651C283.058 65.7288 288.1 67.3923 293.195 67.3923C295.188 67.3923 298.069 67.0569 299.507 66.228C300.228 65.8414 300.617 65.2274 300.617 64.2883V54.8716H300.621ZM335.795 50.6613C336.071 50.6613 336.071 50.4964 336.016 50.2747L330.752 35.3186C330.477 34.4886 330.198 34.4886 329.922 35.3186L325.048 50.2747C324.938 50.551 325.048 50.6613 325.213 50.6613H335.794H335.795ZM330.037 28.5046C330.699 26.6786 330.92 26.3443 331.254 26.3443C331.588 26.3443 331.806 26.6206 332.47 28.3397C333.302 30.4432 341.998 53.3219 345.377 61.7402C347.373 66.6748 348.979 67.5571 350.141 67.8914C350.975 68.1688 351.806 68.2211 352.356 68.2211C352.689 68.2211 352.913 68.278 352.913 68.5565C352.913 68.8863 352.413 68.9977 351.806 68.9977C350.976 68.9977 346.928 68.9977 343.108 68.8874C342.054 68.8351 341.446 68.8351 341.446 68.5008C341.446 68.278 341.613 68.1688 341.832 68.112C342.167 68.0017 342.497 67.5025 342.166 66.618L337.016 52.9899C336.902 52.7704 336.792 52.6579 336.516 52.6579H324.607C324.328 52.6579 324.163 52.8262 324.052 53.1013L320.728 62.9057C320.232 64.2905 319.953 65.6197 319.953 66.618C319.953 67.7231 321.118 68.2211 322.056 68.2211H322.614C323 68.2211 323.167 68.3326 323.167 68.5565C323.167 68.8863 322.833 68.9977 322.337 68.9977C321.007 68.9977 318.626 68.834 318.017 68.834C317.406 68.834 314.36 68.9966 311.755 68.9966C311.037 68.9966 310.703 68.8863 310.703 68.5554C310.703 68.3314 310.924 68.2189 311.2 68.2189C311.589 68.2189 312.366 68.1666 312.809 68.1097C315.356 67.7777 316.465 65.672 317.463 62.9022L330.038 28.5046H330.037ZM365.484 49.1696C365.484 55.0365 365.541 60.1371 365.598 61.1877C365.652 62.5725 365.763 64.7885 366.204 65.3968C366.924 66.4508 369.085 67.614 375.618 67.614C380.772 67.614 385.537 65.73 388.803 62.4634C391.685 59.6379 393.237 54.3202 393.237 49.2207C393.237 42.1884 390.19 37.6461 387.916 35.2629C382.711 29.7803 376.395 29.0049 369.804 29.0049C368.697 29.0049 366.645 29.1709 366.203 29.3915C365.702 29.6143 365.536 29.8917 365.536 30.4989C365.48 32.384 365.48 38.0338 365.48 42.2987V49.1696H365.484ZM360.83 43.1855C360.83 34.5443 360.83 32.9935 360.721 31.2186C360.611 29.3357 360.166 28.45 358.339 28.0612C357.896 27.9531 356.952 27.8974 356.454 27.8974C356.236 27.8974 356.011 27.7837 356.011 27.5643C356.011 27.2323 356.29 27.1209 356.897 27.1209C359.391 27.1209 362.883 27.288 363.157 27.288C363.821 27.288 367.312 27.1197 370.636 27.1197C376.118 27.1197 386.255 26.6229 392.847 33.4358C395.618 36.3146 398.219 40.9172 398.219 47.5061C398.219 54.4839 395.339 59.8585 392.239 63.1285C389.857 65.6185 384.871 69.4957 375.457 69.4957C373.074 69.4957 370.136 69.3297 367.755 69.1626C365.317 68.9954 363.434 68.8328 363.156 68.8328C363.044 68.8328 362.105 68.8328 360.938 68.8851C359.833 68.8851 358.56 68.9954 357.725 68.9954C357.117 68.9954 356.841 68.8851 356.841 68.5554C356.841 68.3849 356.951 68.2177 357.284 68.2177C357.782 68.2177 358.447 68.1097 358.946 67.9971C360.052 67.7766 360.33 66.5588 360.553 64.9523C360.828 62.6248 360.828 58.2474 360.828 52.9308V43.1833L360.83 43.1855ZM411.071 43.1855C411.071 34.5443 411.071 32.9935 410.962 31.2186C410.852 29.3369 410.409 28.45 408.58 28.0612C408.136 27.9531 407.193 27.8974 406.696 27.8974C406.475 27.8974 406.252 27.7837 406.252 27.5643C406.252 27.2323 406.53 27.1175 407.139 27.1175C408.413 27.1175 409.907 27.1174 411.13 27.1777L413.398 27.288C413.785 27.288 424.811 27.288 426.083 27.2312C427.137 27.1777 428.024 27.0663 428.465 26.956C428.74 26.8991 428.962 26.6774 429.24 26.6774C429.409 26.6774 429.461 26.8991 429.461 27.1777C429.461 27.5643 429.185 28.2294 429.017 29.7814C428.961 30.3352 428.85 32.7718 428.74 33.4358C428.688 33.712 428.575 34.0452 428.353 34.0452C428.024 34.0452 427.91 33.7689 427.91 33.3232C427.91 32.9366 427.853 31.9952 427.578 31.3334C427.189 30.4432 426.634 29.7803 423.644 29.446C422.702 29.3357 416.666 29.2812 416.056 29.2812C415.835 29.2812 415.722 29.4472 415.722 29.836V45.1241C415.722 45.5141 415.779 45.679 416.056 45.679C416.776 45.679 423.592 45.679 424.864 45.5687C426.192 45.455 426.967 45.3458 427.468 44.7933C427.854 44.3498 428.077 44.0724 428.298 44.0724C428.465 44.0724 428.575 44.1827 428.575 44.5158C428.575 44.849 428.299 45.7893 428.132 47.6198C428.021 48.7261 427.91 50.7761 427.91 51.1627C427.91 51.6062 427.91 52.2156 427.523 52.2156C427.247 52.2156 427.137 51.9961 427.137 51.7176C427.137 51.1627 427.137 50.6101 426.913 49.8904C426.694 49.115 426.192 48.1736 424.034 47.9496C422.538 47.7847 417.053 47.6733 416.111 47.6733C415.835 47.6733 415.722 47.8393 415.722 48.0599V52.9353C415.722 54.8205 415.668 61.2445 415.722 62.4065C415.891 66.2302 416.721 66.95 422.151 66.95C423.592 66.95 426.028 66.95 427.468 66.3439C428.906 65.7334 429.571 64.6248 429.96 62.3554C430.071 61.7436 430.182 61.5231 430.458 61.5231C430.791 61.5231 430.791 61.9665 430.791 62.3531C430.791 62.7965 430.348 66.5634 430.071 67.7243C429.681 69.1648 429.241 69.1648 427.081 69.1648C422.926 69.1648 419.879 69.0546 417.718 68.9977C415.558 68.8874 414.231 68.834 413.397 68.834C413.287 68.834 412.346 68.834 411.184 68.8863C410.075 68.8863 408.802 68.9966 407.969 68.9966C407.361 68.9966 407.082 68.8863 407.082 68.5531C407.082 68.3871 407.194 68.2189 407.526 68.2189C408.026 68.2189 408.689 68.1086 409.189 67.9983C410.296 67.7777 410.574 66.56 410.795 64.9534C411.071 62.626 411.071 58.2485 411.071 52.9319V43.1855Z" fill="var(--fill-0, #231F20)"/>
<path id="Vector_5" d="M91.9765 57.6095L69.7686 19.3267L47.563 57.6095L37.7768 74.4735H101.756L91.9776 57.6118L91.9765 57.6095Z" fill="var(--fill-0, #B3E6FA)"/>
<path id="Vector_6" d="M69.8505 52.9364L71.2637 12.7662H68.2621L69.8505 52.9364ZM68.8249 52.9592L63.9358 13.0687L60.9705 13.5348L68.8249 52.9592ZM67.813 53.1434L56.7477 14.5104L53.8938 15.4348L67.813 53.1434ZM66.8442 53.4879L49.8722 17.055L47.1946 18.4194L66.8442 53.4879ZM65.9426 53.9779L43.4755 20.6479L41.0457 22.4137L65.9403 53.9768L65.9426 53.9779ZM65.1274 54.6022L37.7257 25.1959L35.5995 27.3198L65.1274 54.6022ZM64.4201 55.3435L32.7547 30.591L30.9901 33.0173L64.4201 55.3435ZM63.8369 56.1871L28.6899 36.691L27.3278 39.3652L63.8369 56.1871ZM63.3934 57.1115L25.628 43.3561L24.7025 46.2145L63.3934 57.1115ZM63.1035 58.0984L23.6473 50.418L23.1812 53.3833L63.1035 58.1007V58.0984ZM62.9671 59.116L22.7968 57.7028V60.7078L62.9671 59.116ZM62.9898 60.1416L23.0982 65.0307L23.5643 67.9937L62.9898 60.1416ZM63.1763 61.1479L24.5365 72.2222L25.4631 75.0727L63.1774 61.149L63.1763 61.1479ZM63.5128 62.1189L27.0868 79.092L28.4512 81.7674L63.5162 62.12L63.5128 62.1189ZM64.004 63.0239L30.6785 85.4876L32.4443 87.9163L64.004 63.0239ZM64.6271 63.8369L35.2265 91.242L37.3527 93.3625L64.6271 63.8369ZM65.3718 64.5452L40.6171 96.2107L43.0457 97.973L65.3718 64.5452ZM66.2166 65.1274L46.7216 100.272L49.397 101.636L66.2166 65.1274ZM67.1444 65.5708L53.3867 103.336L56.2406 104.263L67.1444 65.5708ZM68.1268 65.8664L60.4475 105.313L63.415 105.785L68.1268 65.8664ZM69.141 66.0006L67.7311 106.169H70.7385L69.141 66.0006ZM70.1688 65.9756L75.0579 105.867L78.0255 105.399L70.1688 65.9756ZM71.1785 65.7925L82.2483 104.424L85.1067 103.503L71.1785 65.7925ZM72.1472 65.448L89.1226 101.877L91.7991 100.513L72.1472 65.448ZM73.0523 64.9602L95.5194 98.2823L97.9469 96.5222L73.0523 64.9602ZM73.8675 64.3383L101.269 93.7354L103.393 91.6126L73.8675 64.3394V64.3383ZM74.5758 63.5947L106.238 88.3472L108 85.914L74.5758 63.5947ZM75.1557 62.7476L110.307 82.2392L111.669 79.5673L75.1557 62.7476ZM75.6014 61.8232L113.363 75.5764L114.296 72.7225L75.6014 61.8232ZM75.8948 60.8375L115.343 68.5156L115.817 65.5537L75.8948 60.8375ZM76.0278 59.8198L116.195 61.2354V58.228L76.0278 59.8198ZM76.0039 58.7943L115.898 53.9052L115.426 50.941L76.0039 58.7943ZM75.8197 57.7858L114.455 46.7148L113.529 43.8609L75.8197 57.7858ZM75.4775 56.8159L111.907 39.8371L110.546 37.1651L75.4775 56.8159ZM74.9886 55.912L108.314 33.4505L106.552 31.0174L74.9886 55.912ZM74.3666 55.099L103.763 27.6939L101.644 25.5711L74.3666 55.099ZM73.6208 54.3895L98.3732 22.7264L95.9458 20.964L73.6208 54.3895ZM72.7771 53.8074L92.2721 18.6627L89.5945 17.2983L72.7771 53.8074ZM71.8527 53.3617L85.6081 15.6019L82.752 14.6718L71.8527 53.3617ZM70.8692 53.0706L78.544 13.6213L75.5787 13.1494L70.8681 53.0695L70.8692 53.0706Z" fill="var(--fill-0, white)"/>
<path id="Vector_7" d="M3.68957 75.9289C3.89877 75.6537 4.1853 75.4945 4.5571 75.4434C4.9289 75.3979 5.25067 75.4775 5.52355 75.6878C5.80211 75.8925 5.96357 76.1847 6.01246 76.5553C6.06248 76.9237 5.98062 77.2489 5.77028 77.5218C5.55766 77.7969 5.26658 77.9584 4.89706 78.0073C4.52753 78.0562 4.2069 77.9732 3.93402 77.7685C3.66114 77.5593 3.50196 77.2682 3.45193 76.8964C3.40304 76.5269 3.48036 76.2029 3.6907 75.93M4.38655 60.1587C4.45477 59.6322 4.4036 59.199 4.22509 58.8625C4.04999 58.5293 3.67933 58.3281 3.1222 58.2531C2.51959 58.1769 2.08071 58.3361 1.80328 58.742C1.66002 58.958 1.56451 59.2536 1.51335 59.6425L1.16088 62.394L4.05113 62.7692L4.38655 60.1587ZM0 63.4196L0.495732 59.5345C0.578733 58.9 0.741324 58.3815 0.981231 57.9904C1.44968 57.2491 2.17167 56.9444 3.14949 57.0694C3.66114 57.1342 4.06705 57.2968 4.36608 57.547C4.66511 57.8017 4.8891 58.1291 5.03691 58.5362C5.21315 58.2224 5.42576 57.9904 5.66795 57.8562C5.9124 57.7164 6.2842 57.6698 6.78221 57.7164L7.93967 57.8187C8.26258 57.8471 8.50817 57.8528 8.66735 57.8278C8.94705 57.7892 9.1358 57.6834 9.23585 57.5129L9.43369 57.5379L9.25177 58.9614L8.95274 59.0205C8.83563 59.0364 8.60709 59.0285 8.27054 59.0058L6.83792 58.8864C6.2751 58.8443 5.87602 58.9967 5.63611 59.348C5.50649 59.5526 5.41098 59.8824 5.35186 60.3372L5.02213 62.8954L8.68782 63.3661L8.54228 64.51L0 63.4196ZM1.72256 52.6909L3.47126 46.6443L4.46386 46.9308L3.03579 51.8722L5.57357 52.6079L6.89249 48.0394L7.84303 48.3123L6.52411 52.883L9.32567 53.6948L10.7731 48.6807L11.768 48.9706L10.0022 55.0808L1.72256 52.6909ZM7.81915 39.3652C7.60539 39.5437 7.40528 39.8348 7.21995 40.2407L6.26487 42.3191L8.97775 43.5698L9.93624 41.4857C10.1455 41.0139 10.2205 40.5875 10.1523 40.2009C10.0863 39.8143 9.79526 39.5051 9.28474 39.272C8.70715 39.0082 8.21937 39.0378 7.81915 39.3652ZM4.85613 42.9729L6.4593 39.48C6.77766 38.7865 7.23018 38.3169 7.81801 38.0668C8.40698 37.82 9.05962 37.8621 9.7691 38.185C10.3808 38.4693 10.8265 38.9036 11.1039 39.4971C11.3848 40.0883 11.3427 40.7705 10.9846 41.5437L9.8703 43.9769L13.1824 45.4936L12.6889 46.5647L4.85726 42.9718L4.85613 42.9729ZM10.0227 32.8559L14.4592 35.7893C14.98 36.1304 15.4803 36.3181 15.9578 36.3522C16.6718 36.4011 17.2563 36.0793 17.7133 35.3891C18.2625 34.5591 18.3535 33.8087 17.9862 33.1379C17.785 32.774 17.4291 32.4216 16.9061 32.0805L12.4649 29.1493L13.1176 28.168L17.1539 30.8332C18.0408 31.4176 18.6434 31.9849 18.964 32.5387C19.5393 33.5483 19.4302 34.6626 18.6263 35.8814C17.8225 37.0935 16.8412 37.6347 15.6895 37.496C15.0562 37.4187 14.2955 37.0889 13.4109 36.5068L9.37457 33.8371L10.0227 32.8559ZM23.7065 27.4222C24.1897 26.8878 24.3807 26.3648 24.2806 25.8588C24.2181 25.5382 24.0476 25.2528 23.7713 25.006C23.3051 24.5819 22.8014 24.5058 22.2511 24.7707C21.9623 24.9128 21.6485 25.1664 21.3165 25.5325L19.7474 27.2675L21.9987 29.305L23.7042 27.4222H23.7065ZM20.4944 25.0458C20.8276 24.6774 21.0356 24.3454 21.1198 24.0453C21.2494 23.5791 21.1016 23.1584 20.6934 22.7798C20.2773 22.4046 19.8407 22.3182 19.3824 22.5262C19.1232 22.6456 18.8253 22.898 18.4797 23.2789L17.0664 24.8389L19.0561 26.6354L20.4944 25.0436V25.0458ZM15.5769 25.0367L18.0783 22.2738C18.7605 21.5234 19.47 21.1937 20.2045 21.279C20.6388 21.329 21.0254 21.512 21.3711 21.827C21.7736 22.1908 22.0032 22.6047 22.0533 23.0663C22.0828 23.3096 22.0533 23.5893 21.9623 23.9157C22.383 23.6996 22.7468 23.5859 23.0493 23.5655C23.5871 23.5314 24.0999 23.736 24.5899 24.1817C24.9992 24.5535 25.255 25.0208 25.3517 25.5802C25.5029 26.4216 25.1925 27.2653 24.4284 28.1066L21.968 30.8241L15.578 25.0367H15.5769ZM22.5922 17.7577L23.4836 17.0072L28.3727 22.8207L31.695 20.0317L32.3522 20.8139L28.1396 24.3568L22.5911 17.7599L22.5922 17.7577ZM29.4233 12.3853L30.3966 11.7202L35.2675 18.8287L34.2976 19.4939L29.4233 12.3853ZM39.2413 7.33024C40.0372 7.55309 40.6352 7.97833 41.0355 8.59458L40.0349 9.12442C39.6597 8.69236 39.2322 8.4229 38.7433 8.31261C38.2544 8.20232 37.7086 8.30465 37.1003 8.62756C36.3613 9.01414 35.9031 9.59742 35.7268 10.3649C35.5506 11.1335 35.7518 12.059 36.3294 13.146C36.8001 14.0385 37.3846 14.6502 38.0895 14.9913C38.7979 15.3324 39.5517 15.2836 40.3658 14.8504C41.1139 14.4558 41.5301 13.8612 41.6165 13.0721C41.6574 12.6537 41.5983 12.1693 41.4368 11.6133L42.4397 11.0835C42.7751 11.9328 42.8399 12.7662 42.625 13.5712C42.3749 14.5422 41.7381 15.2972 40.7217 15.8339C39.8462 16.2978 38.9707 16.4171 38.0884 16.1977C36.9332 15.9066 35.9622 15.0152 35.1754 13.5371C34.5841 12.4149 34.3908 11.3382 34.5955 10.3046C34.8206 9.19037 35.4915 8.33535 36.6137 7.73956C37.5688 7.23359 38.4442 7.09488 39.2401 7.32683M49.198 8.14547L46.708 4.99143L46.6557 9.02778L49.1946 8.14547H49.198ZM45.7188 3.98632L46.9672 3.55426L52.7318 10.6787L51.5209 11.0948L49.8268 8.9425L46.6375 10.0408L46.5977 12.7981L45.4686 13.1915L45.7188 3.9886V3.98632ZM61.2582 8.10908C61.6425 8.06019 61.9551 7.98401 62.1928 7.87372C62.6135 7.66906 62.9432 7.33933 63.174 6.87658C63.3559 6.50705 63.4673 6.04998 63.5037 5.50081C63.5196 5.17676 63.5196 4.87546 63.481 4.60258C63.3514 3.55312 63.0489 2.76291 62.5668 2.22625C62.0813 1.69754 61.3821 1.48492 60.4634 1.59748L58.4452 1.84194L59.2252 8.34899L61.2559 8.11022L61.2582 8.10908ZM57.1797 0.963039L60.5885 0.553719C61.7425 0.415005 62.6942 0.726543 63.431 1.47924C64.087 2.16485 64.4884 3.09378 64.6248 4.27057C64.7362 5.1779 64.6669 6.017 64.4202 6.78903C63.9824 8.15343 63.0444 8.92204 61.5981 9.09714L58.2019 9.50191L57.1797 0.963039ZM68.054 0L74.3416 0.20466L74.3121 1.2598L69.1694 1.10062L69.0819 3.70435L73.83 3.85557L73.7959 4.87204L69.0523 4.71855L68.9568 7.63154L74.1642 7.79755L74.1301 8.81289L67.78 8.60823L68.0563 0.001137L68.054 0ZM82.9601 1.42693L84.2733 1.76803L86.6928 9.60992L88.4529 2.86069L89.5149 3.13926L87.3341 11.4848L86.0834 11.1551L83.607 3.28138L81.839 10.0465L80.7793 9.77138L82.9578 1.42807L82.9601 1.42693ZM93.2818 4.53663L94.3824 4.96528L91.2624 12.9959L90.1573 12.5661L93.2818 4.53663ZM103.017 9.79867C103.278 10.5866 103.261 11.3154 102.978 11.9931L101.973 11.4644C102.121 10.9141 102.104 10.407 101.923 9.94079C101.736 9.47803 101.343 9.08463 100.737 8.764C99.998 8.37514 99.259 8.32398 98.5222 8.60823C97.7911 8.90044 97.1351 9.58605 96.5631 10.6798C96.0902 11.5701 95.9116 12.4035 96.0288 13.1744C96.1425 13.9476 96.6086 14.5445 97.4238 14.9766C98.172 15.3711 98.8951 15.3813 99.5955 15.0027C99.9662 14.8072 100.335 14.4865 100.698 14.0419L101.702 14.5695C101.191 15.3279 100.539 15.843 99.7536 16.1249C98.8076 16.4626 97.8298 16.3592 96.8121 15.827C95.9367 15.3609 95.3409 14.7094 95.0271 13.8578C94.62 12.7321 94.8076 11.4359 95.591 9.94989C96.1822 8.82426 96.9668 8.05451 97.9355 7.64746C98.985 7.19835 100.071 7.27225 101.191 7.86349C102.146 8.36718 102.754 9.01186 103.013 9.7998M107.909 18.5149L109.114 14.6684L105.741 16.9026L107.909 18.5172V18.5149ZM109.394 13.2779L110.448 14.0624L107.818 22.8435L106.795 22.084L107.609 19.4745L104.9 17.4598L102.61 18.9765L101.651 18.2636L109.394 13.2779ZM115.36 23.6689C115.732 24.0441 116.101 24.2602 116.471 24.3284C116.843 24.3932 117.229 24.2261 117.633 23.8258C118.068 23.3983 118.213 22.9526 118.072 22.491C117.992 22.2454 117.819 21.9862 117.549 21.7122L115.616 19.7599L113.528 21.8179L115.359 23.6712L115.36 23.6689ZM115.506 18.2113L118.251 20.989C118.704 21.4472 119.008 21.8918 119.167 22.3239C119.46 23.1425 119.258 23.8997 118.555 24.5979C118.191 24.9583 117.814 25.1777 117.429 25.2607C117.046 25.3369 116.647 25.3085 116.236 25.1755C116.372 25.5109 116.425 25.8144 116.386 26.0998C116.347 26.3761 116.158 26.6968 115.817 27.0606L115.03 27.9043C114.803 28.143 114.647 28.3397 114.561 28.4818C114.416 28.724 114.375 28.9366 114.441 29.1186L114.311 29.247L113.303 28.2272L113.442 27.9634C113.51 27.861 113.658 27.6905 113.889 27.4449L114.867 26.3909C115.246 25.977 115.371 25.5677 115.242 25.1675C115.167 24.9378 114.969 24.6604 114.645 24.3329L112.837 22.5069L110.211 25.1015L109.383 24.2624L115.508 18.2136L115.506 18.2113ZM121.325 32.6592L123.631 29.3573L119.742 30.4773L121.325 32.6592ZM124.31 28.1169L125.081 29.1822L119.928 36.7729L119.18 35.7382L120.749 33.4869L118.766 30.7524L116.117 31.5142L115.419 30.5478L124.31 28.1146V28.1169ZM130.997 39.7973C130.974 40.7501 130.511 41.5676 129.599 42.2418L129.078 41.2151C129.571 40.8103 129.847 40.351 129.908 39.8302C129.965 39.314 129.845 38.7637 129.548 38.1748C129.195 37.4755 128.631 37.0207 127.856 36.8126C127.082 36.6046 126.168 36.7672 125.112 37.3016C124.2 37.7609 123.559 38.3362 123.179 39.0184C122.809 39.7006 122.849 40.4874 123.296 41.3777C123.644 42.0554 124.126 42.5193 124.754 42.7648C125.382 43.0059 126.146 42.9058 127.047 42.4579L125.835 40.0667L126.695 39.6324L128.4 42.9979L124.293 45.073L123.956 44.4021L124.82 43.6494C124.257 43.4993 123.836 43.3311 123.553 43.1344C123.067 42.8194 122.648 42.3112 122.299 41.6222C121.847 40.7262 121.753 39.8086 122.013 38.8649C122.399 37.7916 123.229 36.9241 124.52 36.2703C125.805 35.6222 127.004 35.4494 128.11 35.7541C129.164 36.0361 129.956 36.7035 130.48 37.7404C130.839 38.4522 131.014 39.1367 130.998 39.7984M133.931 46.3555L128.852 47.9439C128.254 48.1315 127.794 48.3964 127.47 48.7455C126.978 49.2639 126.856 49.9166 127.103 50.7045C127.394 51.646 127.922 52.1917 128.67 52.3259C129.079 52.3998 129.577 52.3441 130.171 52.1553L135.251 50.5715L135.603 51.6971L130.993 53.1388C129.978 53.4549 129.162 53.5595 128.529 53.4617C127.385 53.2684 126.592 52.4805 126.157 51.0968C125.725 49.7074 125.93 48.6136 126.764 47.8074C127.221 47.3663 127.958 46.9888 128.97 46.6704L133.579 45.2264L133.932 46.3566L133.931 46.3555ZM132.139 60.7931L135.698 58.9216L131.741 58.128L132.139 60.7931ZM136.863 58.1325L137.061 59.4355L129.003 63.8084L128.814 62.5441L131.239 61.2672L130.739 57.9245L128.041 57.3787L127.859 56.1962L136.863 58.1325ZM133.945 77.0317C133.681 77.2523 133.361 77.341 132.987 77.3092C132.615 77.2751 132.314 77.1204 132.092 76.8544C131.869 76.5895 131.778 76.2688 131.81 75.8959C131.851 75.5252 132.001 75.2251 132.267 75.0045C132.534 74.7839 132.855 74.6907 133.231 74.7316C133.607 74.7657 133.902 74.9158 134.118 75.1818C134.339 75.4434 134.432 75.7674 134.395 76.1415C134.36 76.5133 134.21 76.8123 133.947 77.0329M6.09432 95.2419L9.13921 92.6064L5.09945 92.7314L6.09432 95.2419ZM10.1045 91.574L10.5866 92.7962L3.7305 98.8758L3.25864 97.6899L5.33253 95.8991L4.0932 92.7587L1.34166 92.844L0.900504 91.7297L10.1045 91.574ZM13.5758 99.334L14.474 100.739L9.67019 106.754L17.1357 104.901L18.0294 106.295L10.7708 110.94L10.1682 110.006L14.4547 107.26C14.6025 107.167 14.8504 107.021 15.2017 106.808C15.5508 106.598 15.9203 106.367 16.3137 106.121L8.85496 107.951L8.23188 106.977L13.0152 100.966L12.7947 101.104C12.6162 101.224 12.3512 101.398 11.9897 101.644C11.6338 101.889 11.3711 102.067 11.2006 102.173L6.9141 104.913L6.31604 103.981L13.5781 99.334H13.5758ZM21.1562 110.11L25.4768 114.655L24.7116 115.378L21.1823 111.66L19.2835 113.466L22.5547 116.909L21.8361 117.589L18.5661 114.146L16.4353 116.17L20.0169 119.944L19.2778 120.646L14.9061 116.047L21.1562 110.11ZM29.8917 123.31C30.3204 123.62 30.7217 123.779 31.1004 123.779C31.4813 123.787 31.8394 123.559 32.1737 123.088C32.5375 122.596 32.6058 122.131 32.3943 121.694C32.2772 121.473 32.06 121.239 31.7496 121.012L29.5211 119.388L27.786 121.77L29.894 123.311L29.8917 123.31ZM29.1584 117.889L32.3158 120.192C32.8366 120.567 33.2106 120.957 33.4358 121.363C33.861 122.125 33.7803 122.904 33.2004 123.706C32.8957 124.124 32.5603 124.403 32.1953 124.542C31.8337 124.679 31.4358 124.716 31.0094 124.656C31.2004 124.965 31.3005 125.256 31.3084 125.538C31.3084 125.817 31.1788 126.166 30.8968 126.584L30.2465 127.551C30.0611 127.817 29.9395 128.038 29.8826 128.188C29.7769 128.449 29.7723 128.661 29.8656 128.836L29.7496 128.988L28.5944 128.14L28.6933 127.859C28.7445 127.751 28.8639 127.555 29.0526 127.277L29.8372 126.072C30.1464 125.598 30.2044 125.17 30.0111 124.793C29.8974 124.581 29.6586 124.338 29.2857 124.069L27.2084 122.555L25.0288 125.548L24.0805 124.854L29.1515 117.889H29.1584ZM39.3607 124.538L40.409 125.084L36.4261 132.73L35.3766 132.189L39.3607 124.538ZM50.7716 129.948C51.1468 130.687 51.2537 131.411 51.0786 132.125L49.9939 131.757C50.0507 131.193 49.9552 130.699 49.7028 130.267C49.4481 129.84 48.9979 129.517 48.3475 129.289C47.5562 129.021 46.8194 129.089 46.1417 129.483C45.4595 129.881 44.9217 130.662 44.5238 131.825C44.1975 132.78 44.1509 133.624 44.3873 134.368C44.6238 135.112 45.1764 135.63 46.0474 135.926C46.8433 136.202 47.5596 136.1 48.1906 135.619C48.526 135.369 48.8387 134.99 49.132 134.493L50.2156 134.865C49.8268 135.687 49.2651 136.293 48.5329 136.692C47.6551 137.17 46.6704 137.227 45.5846 136.855C44.65 136.537 43.9587 135.98 43.5187 135.192C42.9434 134.142 42.9218 132.832 43.4664 131.243C43.8757 130.044 44.5272 129.169 45.4197 128.608C46.3907 128.01 47.472 127.911 48.6716 128.317C49.6903 128.665 50.3918 129.213 50.7705 129.949M60.1473 136.38L59.3946 132.438L57.4799 135.985L60.1473 136.38ZM58.9762 131.088L60.2803 131.279L62.1166 140.252L60.8545 140.066L60.3406 137.378L56.9978 136.882L55.688 139.308L54.5055 139.135L58.9762 131.09V131.088ZM79.0374 131.71C79.6969 132.208 80.1039 132.815 80.2586 133.536L79.1307 133.666C78.9419 133.138 78.6349 132.728 78.2165 132.458C77.7981 132.18 77.2455 132.08 76.5588 132.163C75.7197 132.263 75.0807 132.637 74.6372 133.292C74.1893 133.945 74.0369 134.883 74.1824 136.102C74.3018 137.103 74.6315 137.883 75.1693 138.452C75.7072 139.019 76.436 139.248 77.3524 139.144C78.2017 139.041 78.8078 138.638 79.1716 137.933C79.3649 137.554 79.4877 137.085 79.5354 136.508L80.6611 136.375C80.677 137.285 80.4268 138.077 79.9357 138.752C79.3467 139.562 78.4848 140.036 77.341 140.168C76.3552 140.288 75.4923 140.084 74.7509 139.561C73.7731 138.867 73.1864 137.696 72.9886 136.036C72.843 134.771 73.0488 133.702 73.6185 132.814C74.2325 131.85 75.1694 131.298 76.4291 131.148C77.5093 131.023 78.3757 131.204 79.0374 131.71ZM84.5974 129.905L90.603 128.038L90.9179 129.055L85.9981 130.584L86.7713 133.074L91.317 131.665L91.6195 132.636L87.0737 134.042L87.9356 136.833L92.9213 135.276L93.2249 136.251L87.1567 138.136L84.5985 129.907L84.5974 129.905ZM94.9816 126.241L96.2027 125.596L103.236 129.758L99.9935 123.601L100.983 123.078L105.002 130.703L103.831 131.321L96.7451 127.177L99.9878 133.339L98.9986 133.869L94.9816 126.241ZM110.123 116.452L110.751 117.266L108.465 119.039L113.138 125.034L112.211 125.753L107.537 119.764L105.252 121.549L104.63 120.741L110.122 116.455L110.123 116.452ZM118.805 113.25C119.161 112.856 119.358 112.474 119.403 112.101C119.445 111.719 119.255 111.344 118.835 110.964C118.376 110.551 117.922 110.432 117.47 110.606C117.229 110.701 116.978 110.888 116.72 111.177L114.872 113.229L117.062 115.193L118.806 113.249L118.805 113.25ZM113.342 113.426L115.951 110.518C116.387 110.04 116.81 109.71 117.23 109.528C118.038 109.184 118.805 109.341 119.541 110.004C119.927 110.348 120.17 110.711 120.268 111.087C120.373 111.466 120.371 111.869 120.253 112.286C120.58 112.129 120.878 112.063 121.16 112.087C121.444 112.109 121.774 112.286 122.16 112.603L123.047 113.342C123.303 113.552 123.502 113.694 123.65 113.769C123.898 113.904 124.113 113.923 124.293 113.843L124.438 113.973L123.483 115.037L123.203 114.918C123.101 114.855 122.919 114.72 122.655 114.508L121.533 113.615C121.093 113.26 120.677 113.153 120.282 113.308C120.063 113.393 119.797 113.61 119.491 113.95L117.78 115.851L120.531 118.318L119.747 119.189L113.336 113.425L113.342 113.426ZM127.432 103.319L123.492 102.455L126.018 105.618L127.432 103.319ZM122.083 102.3L122.773 101.178L131.76 103.028L131.089 104.117L128.411 103.531L126.645 106.403L128.362 108.552L127.74 109.575L122.083 102.3ZM126.238 94.6439L126.673 93.566L133.713 96.3903L135.322 92.3687L136.273 92.7508L134.229 97.8491L126.238 94.6439Z" fill="var(--fill-0, #231F20)"/>
<path id="Vector_8" d="M101.298 73.6822H38.2373L25.3517 95.8969H114.181L101.299 73.6822H101.298Z" fill="var(--fill-0, #176FC1)"/>
<path id="Vector_9" d="M25.3517 95.898L47.563 57.6095L69.7686 19.3267L91.9776 57.6095L114.183 95.898H25.3517ZM93.4205 56.4634L69.7663 15.503L46.1213 56.4634L22.4717 97.425H117.066L93.4205 56.4634Z" fill="var(--fill-0, #FAB239)"/>
<path id="Vector_10" d="M25.3517 95.898L47.563 57.6095L69.7686 19.3267L91.9776 57.6095L114.183 95.898H25.3517ZM93.4205 56.4634L69.7663 15.503L46.1213 56.4634L22.4717 97.425H117.066L93.4205 56.4634Z" stroke="var(--stroke-0, #231F20)" stroke-width="0.176377"/>
<path id="Vector_11" d="M46.1019 73.8845C46.1019 60.7556 56.7727 50.1099 69.9391 50.1099C83.1022 50.1099 93.7741 60.7556 93.7741 73.8845C93.7741 74.1642 93.757 74.4348 93.7513 74.7123H96.3414C96.3585 74.4348 96.3642 74.1642 96.3642 73.8845C96.3642 59.1945 84.5325 47.2867 69.9403 47.2867C55.3412 47.2867 43.5141 59.1911 43.5141 73.8834C43.5141 74.1631 43.5323 74.4337 43.5369 74.7111H46.1258C46.1088 74.4337 46.1031 74.1631 46.1031 73.8834" fill="var(--fill-0, #1C63B7)"/>
<path id="Vector_12" d="M69.9448 46.1008C60.7272 46.1008 52.5669 50.6374 47.5539 57.6254L47.4914 57.7198L44.8899 62.2291C43.256 65.7789 42.3226 69.7106 42.3226 73.88C42.3226 74.1608 42.3498 74.4485 42.3533 74.7259H43.5471C43.53 74.4485 43.5164 74.162 43.5164 73.8811C43.5164 59.1911 55.3492 47.2935 69.9482 47.2935C84.5416 47.2935 96.3801 59.1899 96.3801 73.8811C96.3801 74.162 96.3517 74.4496 96.3482 74.7271H97.5387C97.5557 74.4496 97.5387 74.1631 97.5387 73.8823C97.5387 70.5258 96.9622 67.3104 95.8787 64.3315C95.8752 64.3201 95.8821 64.3087 95.8787 64.2996L91.9958 57.6277L91.0555 55.9995C85.9959 49.9507 78.4189 46.1031 69.9494 46.1031L69.9448 46.1008Z" fill="var(--fill-0, #3C9BDC)"/>
<path id="Vector_13" d="M69.9448 44.7864C62.5657 44.7864 55.8233 47.5948 50.7182 52.1769L47.5539 57.6254C52.5681 50.6374 60.7283 46.1008 69.9448 46.1008C78.4155 46.1008 85.9879 49.9495 91.0521 55.9973L88.454 51.5516C83.4399 47.3333 76.9931 44.7864 69.946 44.7864H69.9448ZM44.891 62.228L41.6961 67.7083C41.2697 69.6981 41.04 71.7595 41.04 73.8788C41.04 74.1597 41.0696 74.4473 41.0707 74.7248H42.3555C42.3555 74.4473 42.3237 74.1608 42.3237 73.88C42.3237 69.7117 43.256 65.7789 44.891 62.2303V62.228ZM95.8741 64.3269C96.9588 67.3059 97.5341 70.5236 97.5341 73.8777C97.5341 74.1597 97.5375 74.4462 97.5341 74.7248H98.8189V73.88C98.8189 72.0687 98.6643 70.3075 98.3494 68.5873L95.8741 64.3269Z" fill="var(--fill-0, #4E9C69)"/>
<path id="Vector_14" d="M69.9448 43.3766C63.5174 43.3766 57.5629 45.389 52.6579 48.8251L50.717 52.1758C55.8222 47.5937 62.5646 44.7853 69.9437 44.7853C76.9897 44.7853 83.4399 47.3322 88.4541 51.5504L86.6371 48.4169C81.8504 45.2287 76.1153 43.3754 69.946 43.3754L69.9448 43.3766ZM41.6972 67.7083L39.7552 71.0625C39.6699 71.9948 39.6301 72.9249 39.6301 73.8823C39.6301 74.162 39.6597 74.4485 39.662 74.7271H41.0719C41.0537 74.4496 41.04 74.1631 41.04 73.8823C41.04 71.7629 41.2697 69.7026 41.6972 67.7129V67.7083ZM98.3494 68.5861C98.6632 70.3064 98.8178 72.0676 98.8178 73.8788V74.7248H100.228C100.244 74.4473 100.228 74.1608 100.228 73.88C100.228 73.1387 100.184 72.4167 100.133 71.6878L98.3505 68.5838L98.3494 68.5861Z" fill="var(--fill-0, #FAE418)"/>
<path id="Vector_15" d="M69.9448 42.1861C64.0972 42.1861 58.634 43.8063 53.9416 46.6022L52.6567 48.8251C57.5618 45.389 63.5174 43.3766 69.9448 43.3766C76.1153 43.3766 81.8492 45.2299 86.636 48.418L85.4149 46.2884C80.8441 43.6847 75.5741 42.1861 69.9448 42.1861ZM39.7552 71.0602L38.4704 73.2524C38.4681 73.4616 38.4704 73.6685 38.4704 73.8777C38.4704 74.1574 38.4545 74.4462 38.4704 74.7248H39.662C39.6449 74.4474 39.662 74.1608 39.662 73.88H39.6301C39.6301 72.9249 39.6699 71.9948 39.7552 71.0602ZM100.134 71.6856C100.184 72.4155 100.225 73.1375 100.225 73.88C100.225 74.1597 100.244 74.4462 100.225 74.7248H101.42V73.88L100.136 71.6879L100.134 71.6856Z" fill="var(--fill-0, #F68712)"/>
<path id="Vector_16" d="M69.9448 40.9957C64.5975 40.9957 59.5561 42.3032 55.1013 44.5977L53.9416 46.5704C58.626 43.7847 64.1097 42.185 69.9448 42.185C75.573 42.185 80.843 43.6835 85.4149 46.2873L84.2892 44.3476C79.9573 42.21 75.0943 40.9957 69.9448 40.9957ZM38.4727 73.2842L37.6256 74.7248H38.4715C38.4715 74.4474 38.4408 74.1586 38.4408 73.88C38.4408 73.6799 38.467 73.4843 38.4704 73.2853L38.4727 73.2842ZM101.417 73.8789C101.417 74.1574 101.435 74.4474 101.417 74.7248H101.92L101.417 73.8789ZM71.8538 61.0228C71.8538 61.0228 72.5383 60.6476 72.5383 59.5856C72.5383 58.5237 72.0039 56.402 71.5491 55.2673C71.0977 54.1303 70.1904 53.7528 69.5082 53.8267C68.826 53.904 67.5412 54.5885 67.6128 54.9671C67.6128 54.9671 67.5071 55.7255 68.0608 55.5879C68.6134 55.4458 69.0955 55.2082 69.0955 55.6527C69.0955 56.103 68.303 56.3463 67.9903 56.4486C67.6833 56.551 66.676 57.2104 66.61 58.6931C66.5418 60.1757 66.7146 60.3872 66.9557 60.6624C67.1944 60.9352 67.8539 61.1808 68.129 61.1808C68.4053 61.1808 68.8192 61.3855 68.8908 62.1132C68.959 62.8363 68.751 65.3923 69.7163 65.4241C70.685 65.4605 70.6486 61.9392 70.6486 61.9392C70.6486 61.9392 70.9533 61.041 71.8538 61.0251" fill="var(--fill-0, #E21D25)"/>
<path id="Vector_17" d="M32.5523 83.4865C32.5523 83.4865 40.741 81.2443 45.2719 75.2967C49.7995 69.3445 47.6028 68.1791 49.5448 68.1336C51.4777 68.0904 52.1292 68.1336 52.3873 69.2967C52.6488 70.4622 53.4254 72.9204 54.9342 75.2512C54.9342 75.2512 57.7346 73.1819 58.5953 72.1893C59.4628 71.1978 60.4509 69.5173 60.4509 69.5173C60.4509 69.5173 60.7579 68.5668 61.531 68.5668C62.3065 68.5668 63.2559 68.5213 63.7743 69.863C64.2928 71.1978 65.2388 73.3103 67.7425 76.0687C67.7425 76.0687 71.0193 74.1313 72.8317 70.5929C72.8317 70.5929 74.079 68.8692 75.1602 70.9386C76.2404 73.0079 76.2404 74.1313 79.2136 77.1887C79.2136 77.1887 82.3609 73.009 82.5758 72.6225C82.7918 72.2325 84.2165 71.1557 84.8611 72.6634C85.5069 74.1756 86.7201 76.0289 87.1465 76.2017C87.5808 76.3757 88.7701 73.2683 88.7701 73.2683C88.7701 73.2683 88.7997 72.5952 89.0066 72.4496C89.2113 72.2984 90.0333 71.7959 90.9441 73.15C91.8605 74.5031 94.3301 77.2137 95.8298 78.0084C97.3329 78.8043 102.629 79.3296 103.865 79.3296C105.104 79.3296 104.721 80.8009 104.721 80.8009C104.721 80.8009 102.513 82.8589 98.247 84.0357C93.9776 85.2159 93.5649 85.184 89.8287 86.3324C86.0914 87.4808 81.8833 88.4813 81.8833 88.4813C81.8833 88.4813 78.3836 89.7434 74.5269 89.3648C70.6725 88.9816 65.9653 89.8651 63.4037 90.3653C60.8454 90.8622 54.6328 89.3079 50.5749 89.6877C46.5135 90.0709 41.8064 91.2454 40.2441 91.2181C38.6864 91.1908 32.3329 88.8304 30.0657 89.3932L30.9753 85.9254L32.55 83.4888L32.5523 83.4865Z" fill="var(--fill-0, #61A85B)"/>
<path id="Vector_18" d="M31.4471 85.0658C31.4471 85.0658 37.4505 83.6525 41.513 80.3904C41.513 80.3904 42.2134 82.1494 48.1235 75.1205C48.1235 75.1205 43.032 79.6912 42.7751 79.3046C42.5136 78.9123 45.5334 75.5502 46.3566 74.6429C47.1719 73.7424 49.0695 71.1068 49.1991 70.2484C49.3276 69.3877 49.588 68.436 50.2759 68.436C50.9694 68.436 51.7039 68.436 51.9586 69.6037C52.2167 70.7657 54.46 81.4592 66.6646 86.7213C66.6646 86.7213 59.8972 83.0578 55.2377 75.507C55.2377 75.507 57.9552 73.7424 58.344 73.3536C58.7283 72.9624 61.1899 69.9016 61.1899 69.9016C61.1899 69.9016 61.7061 68.992 62.095 69.083C62.485 69.1683 63.6925 71.7129 64.2973 72.7032C64.9 73.6969 70.1188 83.2705 82.7543 88.0118L83.1431 87.8412C83.1431 87.8412 75.2933 84.6917 67.8334 75.9823C67.8334 75.9823 70.6373 73.6969 71.1989 72.8351C71.7561 71.9744 72.2757 70.1574 72.8339 70.0744C73.3933 69.9869 74.6077 69.7299 74.9056 70.8499C75.208 71.9755 78.0096 80.4257 88.5768 84.52C88.5768 84.52 81.4615 80.2506 79.1761 77.0636C79.1761 77.0636 80.9419 74.8612 81.333 74.0846C81.7196 73.3069 81.8902 71.9278 82.8384 71.8834C83.7912 71.8425 84.478 71.7129 84.7372 73.2205C84.9987 74.7327 88.7917 81.7162 98.7564 83.7855C98.7564 83.7855 91.2067 81.3273 87.1533 76.1972C87.1533 76.1972 88.188 75.5923 88.7906 72.8772C88.7906 72.8772 90.0436 71.9676 90.686 73.0932C91.3363 74.2131 94.1811 79.1306 98.8838 79.5172C103.585 79.9038 105.481 78.0084 105.351 80.7225C105.351 80.7225 101.47 83.8719 94.4836 84.9953C94.4836 84.9953 88.8747 86.7633 87.9299 87.0192C86.9794 87.2807 82.279 88.3153 80.7668 88.8725C79.2614 89.4387 75.034 89.6092 73.7367 89.35C72.4439 89.0919 66.9204 89.3955 64.4213 90.2119C61.9199 91.0305 54.5487 89.8708 52.4316 89.7798C50.3202 89.6934 46.9968 90.3415 45.4027 90.6416C43.8063 90.9429 39.9701 91.6786 37.8564 91.0305C35.7416 90.3869 32.2931 88.487 28.7547 89.9106L31.4494 85.0624L31.4471 85.0658Z" fill="var(--fill-0, #00813C)"/>
<path id="Vector_19" d="M68.7203 90.221C68.7203 90.221 65.224 91.2784 61.0501 90.5962C56.883 89.9174 53.7551 88.8907 51.3969 89.0703C49.0434 89.2443 46.5147 90.4211 45.3936 90.8929C44.2793 91.3614 41.9257 91.8366 40.982 91.6615C40.982 91.6615 43.1014 92.3631 45.5732 91.6615C48.0462 90.952 52.5749 89.8344 57.3446 91.0703C60.9671 92.0117 65.9176 92.1391 68.7214 90.221M107.799 92.8724C107.799 92.8724 104.299 93.9333 100.128 93.2533C95.9583 92.5734 92.8304 91.5478 90.4745 91.7229C88.1209 91.8992 85.59 93.0782 84.4711 93.5501C83.3546 94.0163 80.9999 94.4892 80.0596 94.3153C80.0596 94.3153 82.1778 95.018 84.6462 94.3153C87.1226 93.6047 91.6524 92.487 96.4199 93.7241C100.042 94.6632 104.993 94.7894 107.799 92.8724ZM75.3331 92.703L72.627 91.9378C72.627 91.9378 71.2149 91.5854 70.0381 91.8764C68.8613 92.1755 68.1506 92.8793 66.5645 92.8235C66.5645 92.8235 68.7407 93.4682 71.5105 93.2897C74.2734 93.1135 75.3308 92.7019 75.3308 92.7019M35.3323 90.4802C35.3323 90.4802 32.392 89.4228 28.5103 91.1283C28.5103 91.1283 33.3334 90.6564 35.3323 90.4802ZM25.9748 94.7201C25.9748 94.7201 27.2141 94.3073 28.4489 95.2488L26.508 95.8969H25.354L25.9759 94.7201H25.9748ZM103.543 82.4746C103.543 82.4746 104.953 81.5354 106.132 82.8873C106.132 82.8873 104.779 83.5968 103.543 82.4746ZM108.897 86.8895C108.897 86.8895 107.897 85.889 105.132 86.4188C102.364 86.9532 97.7752 88.0106 96.7746 88.0106C95.7741 88.0106 92.3005 88.0675 89.8275 87.1863C89.8275 87.1863 93.5967 89.3079 96.4222 89.3079C99.2453 89.3079 103.954 88.188 106.132 88.0118C108.311 87.8355 109.607 87.9526 109.607 87.9526L108.897 86.8918V86.8895Z" fill="var(--fill-0, white)"/>
<path id="Vector_20" d="M77.7663 90.0083C77.7663 90.0083 80.6497 89.5422 81.7685 89.1272C82.885 88.7178 86.711 88.1266 88.7724 88.3654C90.8304 88.5973 93.9503 89.8946 94.6564 89.773C95.3613 89.6593 96.1868 89.4228 96.1868 89.4228C96.1868 89.4228 95.4819 90.304 94.0686 90.4802C92.6587 90.6576 90.3028 89.9538 89.3023 89.4819C88.304 89.0123 86.8918 88.4791 85.7139 89.2431C84.5371 90.0083 83.3 90.8918 80.8282 90.5962C78.3575 90.304 77.7697 90.0083 77.7697 90.0083M54.9739 93.8412C54.9739 93.8412 51.7403 92.5484 49.0877 93.8412C45.472 95.6092 41.2037 95.0805 41.2037 95.0805L33.7268 94.0742C33.7268 94.0742 37.4334 93.6035 38.7296 93.6035C40.0258 93.6035 41.9655 94.3653 43.2026 94.6643C44.4396 94.9566 46.7932 94.3653 48.3214 93.4853C49.8518 92.6018 52.559 91.8389 53.6789 92.3653C54.7989 92.8997 57.9142 93.076 57.9142 93.076C57.149 93.6024 54.9728 93.8377 54.9728 93.8377M41.8189 77.5707C41.8189 77.5707 40.816 76.3359 39.405 76.6884C37.9917 77.0408 36.9332 78.0414 35.9895 78.0414C35.9895 78.0414 37.2879 79.2773 38.7569 78.5735C40.2293 77.8663 40.758 77.4559 41.8189 77.5707ZM101.238 76.8669C101.238 76.8669 99.6501 75.1591 96.4744 76.4576L98.4756 77.2796C98.4756 77.2796 99.9469 78.1062 101.238 76.8669Z" fill="var(--fill-0, white)"/>
</g>
<defs>
<clipPath id="clip0_0_332">
<rect width="454.8" height="140.251" fill="white"/>
</clipPath>
</defs>
</svg>
