<svg width="50" height="50" overflow="visible" style="display: block;" viewBox="0 0 50 50" fill="none" xmlns="http://www.w3.org/2000/svg">
<g id="SVG">
<path id="Vector" d="M40.5625 14.9922L36.8438 11.2734C36.0207 10.4577 34.9088 9.99999 33.75 10H16.0312C14.875 10 13.7578 10.4609 12.9375 11.2734L9.21875 14.9922H0V34.9688H5C6.375 34.9688 7.48438 33.8594 7.49219 32.4922H8.20312L14.8125 38.4609C17.2266 40.4219 20.5781 40.4688 23.0625 38.7578C24.0391 39.6016 25.0937 40 26.2734 40C27.6953 40 29.0313 39.4219 30.0859 38.125C31.8125 38.8047 33.8516 38.3281 35.0859 36.8125L37.1328 34.2891C37.5703 33.75 37.8438 33.1328 37.9844 32.4922H42.5078C42.5156 33.8594 43.6328 34.9688 45 34.9688H50V14.9922H40.5625ZM3.75 32.4688C3.0625 32.4688 2.5 31.9063 2.5 31.2188C2.5 30.5313 3.0625 29.9688 3.75 29.9688C4.4375 29.9688 5 30.5313 5 31.2188C5 31.9141 4.4375 32.4688 3.75 32.4688ZM34.2188 31.9297L32.1797 34.4453C31.9609 34.7109 31.5703 34.7578 31.2969 34.5391L29.4297 33.0234L27.0859 35.875C26.6172 36.4453 25.9141 36.25 25.6797 36.0625L22.8047 33.6016L21.5859 35.1016C20.5 36.4375 18.5234 36.6406 17.2656 35.6172L9.66406 28.7422H7.5V18.7344H10.7734L15.5938 13.9219C15.75 13.8594 15.8828 13.8047 16.0391 13.7422H20.4688L17.4453 16.5156C15.1484 18.6172 15.0156 22.1641 17.1016 24.4297C18.2578 25.6953 21.8828 27.6484 25.0312 24.7734L25.6719 24.1875L34.125 31.0469C34.3906 31.2656 34.4297 31.6641 34.2188 31.9297ZM42.5 28.7422H37.0937C36.9141 28.5234 36.7109 28.3203 36.4922 28.1406L28.4687 21.625L29.4453 20.7344C29.9531 20.2656 29.9922 19.4766 29.5234 18.9688L28.6719 18.0547C28.2031 17.5469 27.4141 17.5156 26.9062 17.9766L22.5938 21.9297C21.8516 22.6094 20.5859 22.6641 19.8906 21.9297C19.1641 21.1562 19.2266 19.9688 19.9844 19.2813L25.1094 14.5859C25.6875 14.0547 26.4375 13.7656 27.2187 13.7656L33.7578 13.75C33.9219 13.75 34.0781 13.8125 34.1875 13.9297L39.0078 18.7422H42.5V28.7422ZM46.25 32.4688C45.5625 32.4688 45 31.9063 45 31.2188C45 30.5313 45.5625 29.9688 46.25 29.9688C46.9375 29.9688 47.5 30.5313 47.5 31.2188C47.5 31.9141 46.9375 32.4688 46.25 32.4688Z" fill="var(--fill-0, #FF7500)"/>
</g>
</svg>
