<svg width="50" height="50" overflow="visible" style="display: block;" viewBox="0 0 50 50" fill="none" xmlns="http://www.w3.org/2000/svg">
<g id="SVG">
<path id="Vector" d="M33.75 29.6875C30.9473 29.6875 29.5996 31.25 25 31.25C20.4004 31.25 19.0625 29.6875 16.25 29.6875C9.00391 29.6875 3.125 35.5664 3.125 42.8125V45.3125C3.125 47.9004 5.22461 50 7.8125 50H42.1875C44.7754 50 46.875 47.9004 46.875 45.3125V42.8125C46.875 35.5664 40.9961 29.6875 33.75 29.6875ZM42.1875 45.3125H7.8125V42.8125C7.8125 38.1641 11.6016 34.375 16.25 34.375C17.6758 34.375 19.9902 35.9375 25 35.9375C30.0488 35.9375 32.3145 34.375 33.75 34.375C38.3984 34.375 42.1875 38.1641 42.1875 42.8125V45.3125ZM25 28.125C32.7637 28.125 39.0625 21.8262 39.0625 14.0625C39.0625 6.29883 32.7637 0 25 0C17.2363 0 10.9375 6.29883 10.9375 14.0625C10.9375 21.8262 17.2363 28.125 25 28.125ZM25 4.6875C30.166 4.6875 34.375 8.89648 34.375 14.0625C34.375 19.2285 30.166 23.4375 25 23.4375C19.834 23.4375 15.625 19.2285 15.625 14.0625C15.625 8.89648 19.834 4.6875 25 4.6875Z" fill="var(--fill-0, #FF7500)"/>
</g>
</svg>
