<svg width="50" height="50" overflow="visible" style="display: block;" viewBox="0 0 50 50" fill="none" xmlns="http://www.w3.org/2000/svg">
<g id="SVG">
<path id="Vector" d="M45.842 17.6649L33.1597 15.816L27.4913 4.32292C26.4757 2.27431 23.533 2.24826 22.5087 4.32292L16.8403 15.816L4.15799 17.6649C1.88368 17.9948 0.972223 20.7986 2.62153 22.4045L11.7969 31.3455L9.62674 43.9757C9.23611 46.2587 11.6406 47.9687 13.6545 46.901L25 40.9375L36.3455 46.901C38.3594 47.9601 40.7639 46.2587 40.3733 43.9757L38.2031 31.3455L47.3785 22.4045C49.0278 20.7986 48.1163 17.9948 45.842 17.6649ZM33.7326 29.8872L35.7899 41.901L25 36.2326L14.2101 41.901L16.2674 29.8872L7.53472 21.3802L19.6007 19.6267L25 8.68924L30.3993 19.6267L42.4653 21.3802L33.7326 29.8872Z" fill="var(--fill-0, #FF7500)"/>
</g>
</svg>
