<svg width="55" height="55" overflow="visible" style="display: block;" viewBox="0 0 55 55" fill="none" xmlns="http://www.w3.org/2000/svg">
<g id="SVG">
<path id="Vector" d="M37.5509 10.6115C31.7945 10.6115 27.0403 6.875 19.803 6.875C17.1223 6.875 14.721 7.34594 12.4935 8.16546C12.8022 7.35923 12.9336 6.49595 12.8787 5.63438C12.6883 2.57974 10.1842 0.129551 7.12615 0.00515625C3.6894 -0.134707 0.859375 2.60992 0.859375 6.01563C0.859375 8.05943 1.87956 9.86401 3.4375 10.9511V52.4219C3.4375 53.8458 4.59175 55 6.01562 55H7.73438C9.15825 55 10.3125 53.8458 10.3125 52.4219V42.2812C13.3537 40.9853 17.1426 39.9049 22.6053 39.9049C28.3618 39.9049 33.1159 43.6413 40.3532 43.6413C45.5276 43.6413 49.6632 41.891 53.513 39.2523C54.4457 38.613 55 37.5516 55 36.4208V10.3066C55 7.79367 52.393 6.1311 50.1139 7.18964C46.4253 8.9028 41.9011 10.6115 37.5509 10.6115Z" fill="var(--fill-0, #FF7500)"/>
</g>
</svg>
