<svg width="55" height="55" overflow="visible" style="display: block;" viewBox="0 0 55 55" fill="none" xmlns="http://www.w3.org/2000/svg">
<g id="SVG">
<path id="Vector" d="M17.6 25.3C16.6891 24.0883 14.9617 23.8391 13.75 24.75C12.5383 25.6609 12.2891 27.3883 13.2 28.6L16.4742 32.9656C16.8867 33.5156 16.8266 34.2805 16.3453 34.7617L15.2453 35.8617C14.6695 36.4375 13.7328 36.3945 13.2172 35.7672L5.5 26.5031V13.75C5.5 12.2289 4.27109 11 2.75 11C1.22891 11 0 12.2289 0 13.75V32.5187C0 33.4555 0.317969 34.3664 0.902344 35.0969L9.84844 46.6383C10.2781 47.1969 10.5703 47.8328 10.7422 48.5031C10.8969 49.0961 11.4383 49.5 12.057 49.5H23.375C24.1313 49.5 24.75 48.8813 24.75 48.125V38.5C24.75 36.1195 23.9766 33.8078 22.55 31.9L17.6 25.3ZM52.25 11C50.7289 11 49.5 12.2289 49.5 13.75V26.5031L41.7828 35.7672C41.2672 36.3859 40.3219 36.4289 39.7547 35.8617L38.6547 34.7617C38.1734 34.2805 38.1133 33.5156 38.5258 32.9656L41.8 28.6C42.7109 27.3883 42.4617 25.6609 41.25 24.75C40.0383 23.8391 38.3109 24.0883 37.4 25.3L32.45 31.9C31.0234 33.8078 30.25 36.1195 30.25 38.5V48.125C30.25 48.8813 30.8687 49.5 31.625 49.5H42.943C43.5531 49.5 44.1031 49.0961 44.2578 48.5031C44.4297 47.8328 44.7219 47.1969 45.1516 46.6383L54.0977 35.0969C54.682 34.3664 55 33.4555 55 32.5187V13.75C55 12.2289 53.7711 11 52.25 11Z" fill="var(--fill-0, #FF7500)"/>
</g>
</svg>
