<svg width="55" height="55" overflow="visible" style="display: block;" viewBox="0 0 55 55" fill="none" xmlns="http://www.w3.org/2000/svg">
<g id="SVG">
<path id="Vector" d="M8.25 24.75C11.2836 24.75 13.75 22.2836 13.75 19.25C13.75 16.2164 11.2836 13.75 8.25 13.75C5.21641 13.75 2.75 16.2164 2.75 19.25C2.75 22.2836 5.21641 24.75 8.25 24.75ZM46.75 24.75C49.7836 24.75 52.25 22.2836 52.25 19.25C52.25 16.2164 49.7836 13.75 46.75 13.75C43.7164 13.75 41.25 16.2164 41.25 19.25C41.25 22.2836 43.7164 24.75 46.75 24.75ZM49.5 27.5H44C42.4875 27.5 41.1211 28.1102 40.1242 29.0984C43.5875 30.9977 46.0453 34.4266 46.5781 38.5H52.25C53.7711 38.5 55 37.2711 55 35.75V33C55 29.9664 52.5336 27.5 49.5 27.5ZM27.5 27.5C32.8195 27.5 37.125 23.1945 37.125 17.875C37.125 12.5555 32.8195 8.25 27.5 8.25C22.1805 8.25 17.875 12.5555 17.875 17.875C17.875 23.1945 22.1805 27.5 27.5 27.5ZM34.1 30.25H33.3867C31.5992 31.1094 29.6141 31.625 27.5 31.625C25.3859 31.625 23.4094 31.1094 21.6133 30.25H20.9C15.4344 30.25 11 34.6844 11 40.15V42.625C11 44.9023 12.8477 46.75 15.125 46.75H39.875C42.1523 46.75 44 44.9023 44 42.625V40.15C44 34.6844 39.5656 30.25 34.1 30.25ZM14.8758 29.0984C13.8789 28.1102 12.5125 27.5 11 27.5H5.5C2.46641 27.5 0 29.9664 0 33V35.75C0 37.2711 1.22891 38.5 2.75 38.5H8.41328C8.95469 34.4266 11.4125 30.9977 14.8758 29.0984Z" fill="var(--fill-0, #FF7500)"/>
</g>
</svg>
