<svg width="55" height="55" overflow="visible" style="display: block;" viewBox="0 0 55 55" fill="none" xmlns="http://www.w3.org/2000/svg">
<g id="SVG">
<path id="Vector" d="M37.357 11H29.975C29.2875 11 28.6258 11.2578 28.1188 11.7219L19.6711 19.4562C19.6625 19.4648 19.6539 19.482 19.6453 19.4906C18.2188 20.8313 18.2445 22.9711 19.4648 24.3031C20.5562 25.4977 22.8508 25.8156 24.2859 24.5352C24.2945 24.5266 24.3117 24.5266 24.3203 24.518L31.1867 18.2273C31.7453 17.7203 32.6219 17.7547 33.1289 18.3133C33.6445 18.8719 33.6016 19.7398 33.043 20.2555L30.8 22.3094L43.3125 32.4672C43.5617 32.6734 43.7852 32.8969 43.9914 33.1289V16.5L39.2992 11.8078C38.7922 11.2922 38.0875 11 37.357 11ZM46.75 16.5172V35.7586C46.75 37.2797 47.9789 38.5086 49.5 38.5086H55V16.5172H46.75ZM50.875 35.7586C50.1187 35.7586 49.5 35.1398 49.5 34.3836C49.5 33.6273 50.1187 33.0086 50.875 33.0086C51.6313 33.0086 52.25 33.6273 52.25 34.3836C52.25 35.1398 51.6313 35.7586 50.875 35.7586ZM0 38.5H5.5C7.02109 38.5 8.25 37.2711 8.25 35.75V16.5172H0V38.5ZM4.125 33.0086C4.88125 33.0086 5.5 33.6273 5.5 34.3836C5.5 35.1398 4.88125 35.7586 4.125 35.7586C3.36875 35.7586 2.75 35.1398 2.75 34.3836C2.75 33.6188 3.36875 33.0086 4.125 33.0086ZM41.5852 34.607L28.7547 24.1914L26.1766 26.5547C23.6242 28.8836 19.7141 28.6602 17.4367 26.1766C15.125 23.65 15.3055 19.7398 17.8148 17.4367L24.8445 11H17.643C16.9125 11 16.2164 11.2922 15.7008 11.8078L11 16.5V35.7414H12.5727L20.35 42.7797C22.7047 44.6961 26.168 44.3352 28.0844 41.9805L28.1016 41.9633L29.6398 43.2953C31.0062 44.4125 33.0258 44.1977 34.1344 42.8312L36.8328 39.5141L37.2969 39.8922C38.4742 40.8461 40.2102 40.6742 41.1641 39.4883L41.9805 38.4828C42.943 37.2969 42.7625 35.5695 41.5852 34.607Z" fill="var(--fill-0, #FF7500)"/>
</g>
</svg>
