<svg preserveAspectRatio="none" width="100%" height="100%" overflow="visible" style="display: block;" viewBox="0 0 203.274 274.112" fill="none" xmlns="http://www.w3.org/2000/svg">
<g id="Group">
<path id="Vector" d="M200.363 0H123.996C122.388 0 121.085 1.30051 121.085 2.90476V46.1415C121.085 47.7458 122.388 49.0464 123.996 49.0464H200.363C201.971 49.0464 203.274 47.7458 203.274 46.1415V2.90476C203.274 1.30051 201.971 0 200.363 0Z" fill="var(--fill-0, #FF7500)"/>
<path id="Vector_2" d="M121.085 17.7259H203.274V9.26275H121.085V17.7259Z" fill="var(--fill-0, #803A0F)"/>
<path id="Vector_3" d="M184.448 39.6361H196.532C197.301 39.6361 197.923 40.2575 197.923 41.0239C197.923 41.7904 197.3 42.4117 196.532 42.4117H184.448C183.68 42.4117 183.057 41.7903 183.057 41.0239C183.057 40.2574 183.68 39.636 184.448 39.6361Z" fill="var(--fill-0, white)"/>
<path id="Vector_4" d="M165.865 39.6361H177.949C178.718 39.6361 179.34 40.2575 179.34 41.0241C179.34 41.7906 178.717 42.4119 177.949 42.4119H165.865C165.097 42.4119 164.474 41.7904 164.474 41.0241C164.474 40.2575 165.097 39.6361 165.865 39.6361Z" fill="var(--fill-0, white)"/>
<path id="Vector_5" d="M147.281 39.6361H159.365C160.134 39.6361 160.756 40.2575 160.756 41.0241C160.756 41.7906 160.134 42.4119 159.365 42.4119H147.281C146.513 42.4119 145.89 41.7904 145.89 41.0239C145.89 40.2574 146.513 39.6361 147.281 39.6361Z" fill="var(--fill-0, #E7F4CB)"/>
<path id="Vector_6" d="M128.697 39.6361H140.782C141.55 39.6361 142.173 40.2575 142.173 41.0239C142.173 41.7904 141.55 42.4119 140.782 42.4119H128.697C127.929 42.4119 127.306 41.7904 127.306 41.0239C127.306 40.2574 127.929 39.6361 128.697 39.6361Z" fill="var(--fill-0, #E7F4CB)"/>
<path id="Vector_7" d="M197.09 2.4893C197.937 2.4893 198.624 3.17513 198.624 4.02097V4.55902C198.624 5.40503 197.937 6.09087 197.09 6.09087C196.241 6.09087 195.554 5.40503 195.554 4.55902V4.02097C195.554 3.17496 196.241 2.4893 197.09 2.4893Z" fill="var(--fill-0, white)"/>
<path id="Vector_8" d="M193.782 4.29017C193.782 5.28469 192.974 6.09105 191.977 6.09105H185.581C184.585 6.09105 183.777 5.28485 183.777 4.29017C183.777 3.29566 184.584 2.4893 185.581 2.4893H191.977C192.974 2.4893 193.782 3.29548 193.782 4.29017Z" fill="var(--fill-0, white)"/>
<path id="Vector_9" d="M186.359 34.1702H194.621C195.945 34.1702 197.019 33.0991 197.019 31.7778V24.6708C197.019 23.3495 195.945 22.2784 194.621 22.2784H186.359C185.035 22.2784 183.962 23.3495 183.962 24.6708V31.7778C183.962 33.0991 185.035 34.1702 186.359 34.1702Z" fill="var(--fill-0, #FFB948)"/>
<path id="Vector_10" d="M46.6557 35.0043C48.6653 23.1256 66.9978 17.763 66.6382 25.5161L150.677 26.0072C156.498 26.0412 161.218 31.2664 161.223 37.6838L161.397 258.228C161.402 264.877 156.6 270.312 150.669 270.363L64.878 271.098C64.3457 272.213 63.3488 273.228 61.7788 274.077C51.9402 274.285 47.2213 269.438 45.4974 263.957C44.9361 262.485 44.6306 260.859 44.6446 259.145C44.988 256.274 46.0337 37.7895 46.6557 35.0043Z" fill="var(--fill-0, #E66817)"/>
<path id="Vector_11" d="M62.6954 274.112L161.171 273.478C167.316 273.438 172.286 267.855 172.274 261.015L171.905 34.2046C171.894 27.6082 167.003 22.2499 160.976 22.2303L64.4144 21.9172C58.3406 21.8976 53.3735 27.2482 53.3226 33.8747L51.5722 261.733C51.5194 268.606 56.5006 274.151 62.6954 274.112Z" fill="var(--fill-0, white)"/>
<path id="Vector_12" d="M61.336 272.462C61.745 272.515 62.1636 272.542 62.5803 272.539L161.025 271.795C166.306 271.756 170.621 266.861 170.613 260.89L170.272 34.3292C170.263 28.5704 166.016 23.8708 160.836 23.8485L64.2812 23.4294C64.1302 23.4288 63.9777 23.432 63.8274 23.439C61.3976 23.5513 59.1268 24.6558 57.4298 26.546C55.6953 28.4778 54.7304 31.038 54.7097 33.7592L52.9826 261.849C52.9416 267.255 56.5201 271.817 61.336 272.462Z" fill="var(--fill-0, black)"/>
<path id="Vector_13" d="M58.0953 34.9056L56.4348 262.202L167.337 261.539L167.054 34.9056H58.0953Z" fill="var(--fill-0, #FFA300)"/>
<path id="Vector_14" d="M97.6349 153.995H125.046C127.375 153.995 129.263 152.111 129.263 149.787C129.263 147.463 127.375 145.58 125.046 145.58H97.6349C95.3059 145.58 93.4179 147.463 93.4179 149.787C93.4179 152.111 95.3059 153.995 97.6349 153.995Z" fill="var(--fill-0, #FF7500)"/>
<path id="Vector_15" d="M76.7815 122.757H147.659C149.978 122.757 151.876 120.864 151.876 118.549C151.876 116.235 149.978 114.342 147.659 114.342H76.7815C74.463 114.342 72.5655 116.235 72.5655 118.549C72.5655 120.864 74.463 122.757 76.7815 122.757Z" fill="var(--fill-0, white)"/>
<path id="Vector_16" d="M76.7815 136.31H147.659C149.988 136.31 151.876 134.426 151.876 132.103C151.876 129.778 149.988 127.894 147.659 127.894H76.7815C74.4525 127.894 72.5645 129.778 72.5645 132.103C72.5645 134.426 74.4525 136.31 76.7815 136.31Z" fill="var(--fill-0, white)"/>
<path id="Vector_17" d="M127.435 133.957C128.256 133.957 128.92 133.294 128.92 132.475C128.92 131.657 128.256 130.994 127.435 130.994C126.616 130.994 125.951 131.657 125.951 132.475C125.951 133.294 126.616 133.957 127.435 133.957Z" fill="var(--fill-0, #D3A980)"/>
<path id="Vector_18" d="M122.345 133.957C123.166 133.957 123.83 133.294 123.83 132.475C123.83 131.657 123.166 130.994 122.345 130.994C121.525 130.994 120.861 131.657 120.861 132.475C120.861 133.294 121.525 133.957 122.345 133.957Z" fill="var(--fill-0, #D3A980)"/>
<path id="Vector_19" d="M117.255 133.957C118.075 133.957 118.739 133.294 118.739 132.475C118.739 131.657 118.075 130.994 117.255 130.994C116.435 130.994 115.77 131.657 115.77 132.475C115.77 133.294 116.435 133.957 117.255 133.957Z" fill="var(--fill-0, #D3A980)"/>
<path id="Vector_20" d="M112.164 133.957C112.985 133.957 113.649 133.294 113.649 132.475C113.649 131.657 112.985 130.994 112.164 130.994C111.345 130.994 110.681 131.657 110.681 132.475C110.681 133.294 111.345 133.957 112.164 133.957Z" fill="var(--fill-0, #D3A980)"/>
<path id="Vector_21" d="M107.075 133.957C107.895 133.957 108.559 133.294 108.559 132.475C108.559 131.657 107.895 130.994 107.075 130.994C106.255 130.994 105.59 131.657 105.59 132.475C105.59 133.294 106.255 133.957 107.075 133.957Z" fill="var(--fill-0, #D3A980)"/>
<path id="Vector_22" d="M101.984 133.957C102.805 133.957 103.469 133.294 103.469 132.475C103.469 131.657 102.805 130.994 101.984 130.994C101.164 130.994 100.5 131.657 100.5 132.475C100.5 133.294 101.164 133.957 101.984 133.957Z" fill="var(--fill-0, #D3A980)"/>
<path id="Vector_23" d="M96.8946 133.957C97.7143 133.957 98.3785 133.294 98.3785 132.475C98.3785 131.657 97.7143 130.994 96.8946 130.994C96.0749 130.994 95.4096 131.657 95.4096 132.475C95.4096 133.294 96.0749 133.957 96.8946 133.957Z" fill="var(--fill-0, #D3A980)"/>
<path id="Vector_24" d="M91.8039 133.957C92.6236 133.957 93.2878 133.294 93.2878 132.475C93.2878 131.657 92.6236 130.994 91.8039 130.994C90.9842 130.994 90.3189 131.657 90.3189 132.475C90.3189 133.294 90.9842 133.957 91.8039 133.957Z" fill="var(--fill-0, #D3A980)"/>
<path id="Vector_25" d="M86.7132 133.957C87.534 133.957 88.1982 133.294 88.1982 132.475C88.1982 131.657 87.534 130.994 86.7132 130.994C85.8935 130.994 85.2293 131.657 85.2293 132.475C85.2293 133.294 85.8935 133.957 86.7132 133.957Z" fill="var(--fill-0, #D3A980)"/>
<path id="Vector_26" d="M123.717 97.8053C130.08 91.4564 130.08 81.1628 123.717 74.8139C117.355 68.465 107.039 68.465 100.676 74.8139C94.3127 81.1628 94.3127 91.4564 100.676 97.8053C107.039 104.154 117.355 104.154 123.717 97.8053Z" fill="var(--fill-0, white)"/>
<path id="Vector_27" d="M112.173 85.6553C110.583 85.6553 109.114 84.8822 108.176 83.7016C107.483 82.8471 107.075 81.7481 107.075 80.5269C107.075 77.7187 109.359 75.3985 112.173 75.3985C115.029 75.3985 117.313 77.7187 117.313 80.5269C117.313 81.7481 116.906 82.847 116.211 83.7016C115.273 84.8822 113.806 85.6553 112.173 85.6553Z" fill="var(--fill-0, #FF7500)"/>
<path id="Vector_28" d="M103.142 94.7934C103.142 98.0297 121.254 98.0297 121.254 94.7934L121.248 91.022C120.533 85.8663 104.615 85.6499 103.139 91.022L103.142 94.7934Z" fill="var(--fill-0, #FF7500)"/>
<path id="Vector_29" d="M76.7614 131.326V134.31C76.7614 134.826 80.5945 134.826 80.5945 134.31V131.326H80.3427V131.101C80.3427 130.188 79.5981 129.446 78.6832 129.446C77.7683 129.446 77.0237 130.188 77.0237 131.101V131.326H76.7614ZM79.7515 131.326H77.6044V131.101C77.6044 130.495 77.9703 130.008 78.6832 130.008C79.3972 130.008 79.7515 130.528 79.7515 131.101V131.326ZM78.1575 132.387C78.1575 132.099 78.4008 131.857 78.6896 131.857C78.9772 131.857 79.2205 132.1 79.2205 132.387C79.2205 132.586 79.1095 132.741 78.955 132.829V133.691C78.955 133.847 78.844 133.957 78.6896 133.957C78.5341 133.957 78.4008 133.847 78.4008 133.691V132.829C78.2686 132.741 78.1575 132.586 78.1575 132.387Z" fill="var(--fill-0, #152C0D)"/>
<path id="Vector_30" d="M78.679 118.245C78.3437 118.245 78.0338 118.081 77.836 117.832C77.69 117.651 77.6033 117.42 77.6033 117.163C77.6033 116.569 78.0856 116.081 78.679 116.081C79.2819 116.081 79.7642 116.569 79.7642 117.163C79.7642 117.42 79.6775 117.651 79.5315 117.832C79.3337 118.081 79.0238 118.245 78.679 118.245Z" fill="var(--fill-0, #152C0D)"/>
<path id="Vector_31" d="M76.7741 120.173C76.7741 120.855 80.6156 120.855 80.6156 120.173L80.5945 119.376C80.4432 118.289 77.084 118.244 76.773 119.376L76.7741 120.173Z" fill="var(--fill-0, #152C0D)"/>
<path id="Vector_32" d="M106.36 119.785H121.892C122.572 119.785 123.13 119.228 123.13 118.549C123.13 117.87 122.572 117.315 121.892 117.315H106.36C105.679 117.315 105.122 117.87 105.122 118.549C105.122 119.228 105.679 119.785 106.36 119.785Z" fill="var(--fill-0, #D3A980)"/>
<path id="Vector_33" d="M85.8745 119.785H101.407C102.087 119.785 102.644 119.228 102.644 118.549C102.644 117.87 102.087 117.315 101.407 117.315H85.8745C85.1933 117.315 84.637 117.87 84.637 118.549C84.637 119.228 85.1933 119.785 85.8745 119.785Z" fill="var(--fill-0, #D3A980)"/>
<path id="Vector_34" d="M3.96142e-06 152.221C0.000744346 152.044 0.00106338 151.966 0.00127492 151.948C0.00127492 151.981 3.96142e-06 152.221 3.96142e-06 152.221Z" fill="var(--fill-0, #FFEC72)"/>
<path id="Vector_35" d="M3.96142e-06 152.221C0.000744346 152.044 0.00106338 151.966 0.00127492 151.948C0.00127492 151.981 3.96142e-06 152.221 3.96142e-06 152.221Z" fill="var(--fill-0, #FFEC72)"/>
<path id="Vector_36" d="M105.387 152.691C105.387 152.691 105.388 152.45 105.388 152.418C105.388 152.436 105.388 152.514 105.387 152.691Z" fill="var(--fill-0, #FFEC72)"/>
<path id="Vector_37" d="M105.387 152.691C105.387 152.691 105.388 152.45 105.388 152.418C105.388 152.436 105.388 152.514 105.387 152.691Z" fill="var(--fill-0, #FFEC72)"/>
<path id="Vector_38" d="M52.8886 127.509C41.2227 139.978 22.6078 150.198 2.68792 154.551C2.6821 155.878 2.6491 163.234 2.49722 197.134C2.29467 242.355 45.4257 264.455 52.1218 267.846C58.61 264.866 102.286 242.802 102.488 197.579C102.64 163.68 102.673 156.325 102.678 154.997C82.7987 150.466 64.4424 140.082 52.8886 127.509Z" fill="var(--fill-0, white)"/>
<path id="Vector_39" d="M52.7838 132.414C40.7575 143.422 24.0962 152.074 5.77511 156.79L5.59446 197.126C5.51153 215.582 12.8596 232.279 27.4352 246.753C37.0119 256.264 47.0811 262.163 52.1904 264.814C52.4099 264.703 52.6511 264.578 52.8884 264.455V132.508C52.8538 132.476 52.8175 132.445 52.7838 132.414Z" fill="var(--fill-0, #005F86)"/>
<path id="Vector_40" d="M52.8887 132.508V264.455C58.2016 261.696 67.8588 255.995 77.1073 246.974C91.8102 232.631 99.3082 216 99.3907 197.544L99.5716 157.208C81.3454 152.344 64.8072 143.577 52.8887 132.508Z" fill="var(--fill-0, #005F86)"/>
<path id="Vector_41" d="M29.6622 187.989L29.4466 220.49C29.4226 224.108 73.9098 224.399 73.9331 220.782L74.1489 188.281L29.6622 187.989ZM54.0415 205.408L53.9804 214.62C53.9722 215.847 52.9607 216.86 51.7252 216.851C50.4694 216.843 49.4713 215.818 49.4795 214.591L49.5407 205.358C47.641 204.493 46.3141 202.571 46.3286 200.367C46.3487 197.352 48.8349 194.936 51.8705 194.955C54.9061 194.975 57.3396 197.424 57.3196 200.439C57.3048 202.664 55.9731 204.568 54.0415 205.408Z" fill="var(--fill-0, white)"/>
<path id="Vector_42" d="M70.2703 185.938L65.7672 185.91L65.7817 183.72C65.832 176.138 59.662 169.928 52.0291 169.878C44.3945 169.828 38.1426 175.957 38.0923 183.539L38.0777 185.728L33.5745 185.698L33.589 183.51C33.6558 173.459 41.9411 165.338 52.0589 165.404C62.175 165.471 70.3518 173.701 70.2851 183.75L70.2703 185.938Z" fill="var(--fill-0, white)"/>
</g>
</svg>
